<?xml version="1.0" standalone="no"?>
<!DOCTYPE svg PUBLIC "-//W3C//DTD SVG 1.1//EN" "http://www.w3.org/Graphics/SVG/1.1/DTD/svg11.dtd" >
<svg xmlns="http://www.w3.org/2000/svg">
<metadata>
This is a custom SVG webfont generated by Font Squirrel.
Copyright   : 2012 by Jason Mark Jones All rights reserved
Designer    : Jason Mark Jones
Foundry     : Jason Mark Jones
Foundry URL : httpwwwjasonmarkjonescom
</metadata>
<defs>
<font id="SullivanRegular" horiz-adv-x="388" >
<font-face units-per-em="1000" ascent="750" descent="-250" />
<missing-glyph horiz-adv-x="160" />
<glyph unicode=" "  horiz-adv-x="160" />
<glyph unicode="&#x09;" horiz-adv-x="160" />
<glyph unicode="&#xa0;" horiz-adv-x="160" />
<glyph unicode="!" horiz-adv-x="180" d="M30 120h120v-120h-120v120zM140 86l-8 9l-14 -14l22 -23v28zM138 102l2 -2v4zM47 111l43 -44l44 44h-87zM40 17l43 43l-43 44v-87zM51 10l-2 2l-3 -2h5zM69 33l-13 -14l9 -9h27zM90 54l-14 -14l30 -30h28zM111 74l-14 -14l43 -43v28zM30 167v533h120v-533h-120zM46 691 l44 -43l43 43h-87zM140 252l-45 45v-27l45 -46v28zM140 293l-45 46v-28l45 -46v28zM85 229v409l-45 46v-500zM50 177l-2 2l-2 -2h4zM69 199l-14 -14l8 -8h28zM89 220l-13 -14l29 -29h27zM95 256v-28l45 -45v27zM95 380v-28l45 -45v28zM95 422v-28l45 -46v28zM95 463v-28 l45 -45v27zM95 504v-27l45 -46v28zM95 546v-28l45 -45v27zM95 587v-28l45 -45v28zM95 629v-28l45 -46v28zM110 655l-14 -14l44 -44v27zM131 675l-14 -13l23 -24v28zM140 685l-2 -3l2 -2v5z" />
<glyph unicode="&#x22;" horiz-adv-x="328" d="M30 700h120v-89l-29 -86h-62l-29 86v89zM47 690l42 -43l43 43h-85zM105 535l-16 15l-16 -15h32zM132 591l-37 37v-28l30 -31zM110 654l-14 -14l40 -40l4 13v11zM130 674l-13 -13l23 -24v29zM140 684l-3 -3l3 -3v6zM40 683v-70l24 -74l21 20v79zM95 558l21 -20l6 21 l-27 28v-29zM178 700h120v-89l-29 -86h-62l-29 86v89zM195 690l42 -43l43 43h-85zM253 535l-16 15l-16 -15h32zM280 591l-37 37v-28l30 -31zM258 654l-14 -14l40 -40l4 13v11zM278 674l-13 -13l23 -24v29zM288 684l-3 -3l3 -3v6zM188 683v-70l24 -74l21 20v79zM243 558 l21 -20l6 21l-27 28v-29z" />
<glyph unicode="#" horiz-adv-x="553" d="M440 536h83v-121h-83v-128h83v-121h-83v-166h-120v166h-87v-166h-120v166h-83v121h83v128h-83v121h83v164h120v-164h87v164h120v-164zM506 425l-46 46h-28l46 -46h28zM483 489l-13 -14l44 -44v27zM504 509l-14 -13l24 -24v28zM514 519l-3 -3l3 -2v5zM461 480l46 46h-69 l-46 -46h69zM375 215l-45 -46v-152l45 46v152zM298 176l-45 46h-28l45 -46h28zM230 277l-45 -46h182l-45 46h-92zM49 425l-1 1l-2 -1h3zM69 447l-14 -14l8 -8h28zM39 518v-86l43 43zM375 638l-45 46v-153l45 -45v152zM349 222l10 -10l10 10h-20zM375 464l-45 -46v-135 l45 -46v227zM431 666l-10 9l-14 -13l24 -24v28zM431 624l-31 31l-13 -14l44 -44v27zM431 555v28l-46 46v-28zM431 334l-46 46v-28l46 -46v28zM385 421v-28l46 -45v27zM394 496l-9 8v-17zM385 518l16 -16l13 14l-29 30v-28zM385 559l36 -36l10 10v8l-46 46v-28zM431 685 l-3 -3l3 -3v6zM337 691l43 -43l43 43h-86zM349 471l10 -10l10 10h-20zM352 454l-16 17h-28l30 -31zM331 433l-37 38h-28l46 -46h11zM320 287v128h-87v-128h87zM298 425l-45 46h-28l45 -46h28zM257 425l-46 46h-28l46 -46h28zM223 85l-45 46v-28l45 -46v28zM100 222l31 -31 l14 14l-17 17h-28zM142 222l10 -10l9 10h-19zM142 471l10 -10l9 10h-19zM223 666l-9 9l-14 -14l23 -23v28zM223 624l-30 31l-14 -14l44 -44v27zM223 555v28l-45 46v-28zM223 334l-45 46v-28l45 -46v28zM178 421v-28l45 -45v27zM178 463v-28l45 -46v28zM186 247l-8 8v-17z M178 269l15 -16l14 14l-29 30v-28zM178 310l36 -36l9 10v8l-45 46v-28zM186 496l-8 8v-17zM178 518l15 -16l14 14l-29 30v-28zM178 559l36 -36l9 10v8l-45 46v-28zM223 685l-2 -3l2 -3v6zM129 691l43 -43l43 43h-86zM168 486v152l-46 46v-153zM160 480l-46 46h-69l46 -46h69 zM145 454l-17 17h-28l31 -31zM168 237v227l-46 -46v-135zM160 231l-46 46h-69l46 -46h69zM39 183l43 43l-43 43v-86zM49 176l-1 2l-2 -2h3zM69 198l-14 -14l8 -8h28zM89 219l-14 -14l30 -29h11l8 8zM168 215l-46 -46v-152l46 46v152zM132 10l-1 2l-2 -2h3zM152 32l-14 -14 l8 -8h28zM172 53l-14 -14l29 -29h28zM178 89v-28l45 -45v27zM178 172v-28l45 -45v27zM178 186l45 -46v28l-45 46v-28zM352 205l-16 17h-28l30 -31zM340 10l-2 2l-1 -2h3zM359 32l-14 -14l8 -8h28zM380 53l-14 -14l29 -29h28zM385 89v-28l46 -45v27zM385 131v-28l46 -46v28z M385 172v-28l46 -45v27zM385 186l46 -46v28l-46 46v-28zM394 247l-9 8v-17zM385 269l16 -16l13 14l-29 30v-28zM385 310l36 -36l10 10v8l-46 46v-28zM431 389v28l-46 46v-28zM367 480l-45 46h-92l-45 -46h182zM75 454l30 -29h11l8 8l-35 35zM183 222l46 -46h28l-46 46h-28z M266 222l46 -46h11l8 8l-37 38h-28zM391 222l46 -46h27l-45 46h-28zM514 265v5l-3 -3zM514 251l-10 9l-14 -13l24 -24v28zM514 209l-31 31l-13 -14l44 -44v27zM506 176l-46 46h-28l46 -46h28zM461 231l46 46h-69l-46 -46h69zM391 471l46 -46h27l-45 46h-28z" />
<glyph unicode="$" horiz-adv-x="429" d="M150 411h175q31 0 52.5 -22t21.5 -53v-262q0 -31 -21.5 -52.5t-52.5 -21.5h-51v-124h-120v124h-50q-31 0 -52.5 21.5t-21.5 52.5v144l120 28v-126h129v170h-175q-31 0 -52.5 22t-21.5 53v261q0 31 21.5 52.5t52.5 21.5h50v125h120v-125h51q31 0 52.5 -21.5t21.5 -52.5 v-142l-120 -28v124h-129v-169zM345 350l44 -45v28l-30 31zM366 371l22 -23q-3 19 -14 31zM325 402h-178l-45 -46h235l30 30q-18 16 -42 16zM297 315l14 14l-17 16h-28zM327 345h-19l9 -9zM334 70v269l-46 -46v-177zM140 514v27l-45 46v-28zM95 629v-28l45 -46v28zM140 472 v28l-45 46v-28zM140 431v28l-45 45v-28zM140 408v9l-45 46v-28l36 -36zM110 378l14 14l-29 29v-28zM95 363l8 8l-8 9v-17zM102 635l45 -45h28l-46 45h-27zM143 635l46 -45h27l-45 45h-28zM185 635l45 -45h28l-46 45h-27zM226 635l46 -45h8l10 9l-36 36h-28zM297 606l14 14 l-16 15h-28zM326 635h-17l8 -8zM334 630l-46 -46v-111l46 46v111zM303 475l3 -3l23 5l-12 12zM324 496l16 -16l22 5l-24 25zM362 499l12 -11l6 1zM344 520l45 -24v4l-45 46v-26zM344 559l45 -45v27l-45 46v-28zM344 601l45 -46v28l-45 46v-28zM389 597v27l-30 31l-14 -14z M366 662l22 -23q-3 16 -15 30zM227 662l-8 8v-18zM234 669l14 14l-29 29v-28zM255 689l9 10v9l-45 45v-28zM264 721v28l-30 30l-14 -14zM255 800l-14 -14l23 -23v28zM264 804v6l-2 -3zM213 772l43 43h-86zM209 763l-45 46v-111l45 -47v112zM223 645h112l31 31q-18 15 -41 15 h-55zM39 626v-261q0 -25 16 -43l30 31v285l-30 30q-16 -18 -16 -42zM69 322l-7 -7q13 -10 27 -14zM75 329l30 -29h27l-43 43zM100 345l46 -45h28l-46 45h-28zM142 345l45 -45h28l-45 45h-28zM183 345l46 -45h28l-46 45h-28zM225 345l45 -45h11l9 8l-37 37h-28zM326 65 l-46 45h-133l-45 -45h224zM170 55h-28l30 -30l14 14zM202 55h-19l10 -9zM110 87l14 14l-29 29v-28zM95 171v-27l36 -36l9 9v9zM95 72l8 8l-8 9v-17zM96 184l44 -44v27l-30 31zM140 222v6l-2 -3zM140 181v28l-9 9l-14 -14zM89 190l41 41l-82 -19zM39 206v-132q0 -24 16 -42 l30 30v119zM69 32l-7 -7q10 -9 27 -14zM75 39l30 -29h27l-43 43zM100 55l46 -45h10l9 8l-37 37h-28zM209 49l-45 -46v-111l45 46v111zM172 -113l-2 -2h4zM179 -106l8 -9h28l-22 23zM200 -85l29 -30h28l-44 43zM219 -63l46 -46v28l-46 45v-27zM219 -22l46 -45v27l-46 46v-28z M219 20l46 -46v28l-46 45v-27zM225 55l46 -45h27l-45 45h-28zM312 10h13q9 0 13 1l-44 44h-28zM308 55l41 -41q12 6 17 10l-31 31h-27zM344 61l29 -30q7 8 11 17l-40 41v-28zM389 74v10l-45 46v-28l43 -44q2 5 2 16zM344 144l45 -46v28l-45 45v-27zM344 185l45 -45v27 l-45 46v-28zM344 227l45 -46v28l-45 45v-27zM344 268l45 -46v28l-45 46v-28zM344 310l45 -46v28l-45 45v-27zM62 675l30 -30h112l-47 46h-53q-24 0 -42 -16z" />
<glyph unicode="%" horiz-adv-x="785" d="M145 0l371 700h125l-372 -700h-124zM527 691l20 -42l67 42h-87zM226 60l314 582l-21 43l-353 -665zM181 10l-5 5l-7 -5h12zM201 32l-17 -12l11 -10h27zM228 50l-19 -13l27 -27h20zM243 72l-8 -15l30 -43l13 24zM258 99l-10 -18l34 -34l10 18zM272 126l-9 -18l34 -34l9 18 zM287 153l-10 -18l34 -34l10 18zM301 180l-9 -18l34 -34l9 18zM316 207l-10 -18l34 -34l10 18zM331 234l-10 -18l33 -34l10 18zM345 261l-10 -18l34 -34l9 18zM360 288l-10 -18l33 -34l10 19zM374 315l-10 -18l34 -34l9 19zM389 342l-10 -18l33 -33l10 18zM403 369l-10 -18 l33 -33l10 18zM418 396l-10 -18l33 -33l9 18zM432 423l-9 -19l32 -32l10 18zM447 449l-10 -18l33 -32l9 18zM461 476l-9 -18l32 -32l10 18zM476 503l-10 -18l32 -32l10 18zM490 530l-9 -18l32 -32l9 18zM505 557l-10 -18l32 -32l10 18zM519 584l-9 -18l32 -32l9 19zM534 611 l-10 -18l32 -32l10 19zM549 638l-10 -18l31 -31l10 18zM574 654l-17 -10l28 -28l9 18zM600 670l-18 -10l17 -17l10 18zM621 683l-13 -8l6 -5zM104 700h138q31 0 52.5 -21.5t21.5 -52.5v-220q0 -31 -21.5 -52.5t-52.5 -21.5h-138q-31 0 -52.5 21.5t-21.5 52.5v220 q0 31 21.5 52.5t52.5 21.5zM89 344l-20 20l-7 -6q13 -11 27 -14zM89 385l-13 -14l29 -29h28zM226 635l9 -8l8 8h-17zM228 620l-15 15h-28l29 -29zM207 599l-36 36h-28l46 -45h8zM196 453v127h-46v-127h46zM175 590l-45 45h-28l45 -45h28zM95 435l15 -16l14 14l-29 30v-28z M95 546v-28l46 -46v28zM95 587v-28l46 -45v27zM95 476l36 -36l10 10v8l-46 46v-28zM141 555v28l-46 46v-28zM103 413l-8 8v-17zM128 388h-27l45 -46h28zM170 388h-28l46 -46h27zM147 443l-45 -46h141l-46 46h-50zM283 357l-30 31h-28l41 -41q8 3 17 10zM206 584v-135l45 -46 v227zM307 417l-46 46v-28l44 -44q2 10 2 15v11zM261 504v-28l46 -45v27zM261 546v-28l46 -46v28zM261 587v-28l46 -45v27zM261 629v-28l46 -46v28zM276 655l-14 -14l45 -44v27zM290 669l-7 -7l22 -23q-3 18 -15 30zM242 691h-138q-24 0 -42 -16l30 -30h161l30 31 q-18 15 -41 15zM40 626v-220q0 -24 15 -42l30 30v244l-30 30q-15 -16 -15 -42zM184 388l45 -46h13q9 0 14 1l-45 45h-27zM261 393l29 -29q9 9 11 17l-40 40v-28zM543 368h138q31 0 52.5 -21.5t21.5 -51.5v-221q0 -30 -21.5 -52t-52.5 -22h-138q-31 0 -52.5 22t-21.5 52v221 q0 30 21.5 51.5t52.5 21.5zM528 12l-20 20l-7 -6q13 -11 27 -14zM528 53l-13 -14l29 -29h28zM665 303l9 -8l8 8h-17zM667 288l-15 15h-28l29 -29zM646 267l-36 36h-28l46 -45h9zM635 121v127h-46v-127h46zM614 258l-45 45h-28l45 -45h28zM534 103l15 -15l14 13l-29 30v-28z M534 214v-28l46 -46v28zM534 255v-28l46 -45v27zM534 144l36 -36l10 10v8l-46 46v-28zM580 223v28l-46 46v-28zM542 81l-8 8v-17zM567 56h-27l45 -46h28zM609 56h-28l46 -46h27zM586 111l-45 -46h141l-45 46h-51zM722 25l-30 31h-28l41 -41q8 3 17 10zM645 252v-135l45 -46 v227zM746 85l-46 46v-28l44 -44q2 10 2 15v11zM700 172v-28l46 -45v27zM700 214v-28l46 -46v28zM700 255v-28l46 -45v27zM700 297v-28l46 -46v28zM715 323l-14 -14l45 -44v27zM729 337l-7 -7l22 -23q-3 18 -15 30zM681 359h-138q-24 0 -42 -16l30 -30h161l30 31 q-18 15 -41 15zM479 295v-221q0 -24 15 -42l30 31v243l-30 30q-15 -16 -15 -41zM623 56l45 -46h13q3 0 7 0.5t7 0.5l-45 45h-27zM700 61l29 -29q8 8 11 17l-40 40v-28z" />
<glyph unicode="&#x26;" horiz-adv-x="471" d="M441 290h-84v-170h84v-120h-102q-28 0 -55 25q-23 -25 -56 -25h-124q-31 0 -52.5 21.5t-21.5 52.5v228q0 28 18 49q-18 21 -18 49v227q0 30 21.5 51.5t52.5 21.5h130v-120h-84v-169h87v57l120 28v-85h84v-121zM266 55l16 -16q6 10 8 16h-24zM89 11l-20 21l-7 -7 q13 -11 27 -14zM89 52l-14 -13l30 -30h27zM140 555v28l-45 46v-28zM292 430l-45 25v-48l45 -45v68zM424 300l-47 45h-28l47 -45h28zM401 365l-14 -14l45 -46v28zM422 385l-14 -14l24 -24v29zM432 395l-3 -3l3 -3v6zM309 356h69l47 46h-70zM292 339l-45 -46v-177l45 -46v269z M348 167l-46 46v-28l46 -46v28zM302 254v-27l46 -46v28zM302 296v-28l46 -46v28zM302 88v-16l9 8zM302 102l15 -15l14 14l-29 29v-28zM302 144l36 -36l10 9v9l-46 45v-27zM302 310l46 -46v28l-46 45v-27zM348 459l-10 9l-14 -14l24 -23v28zM348 417l-31 30l-13 -13l34 -35 l10 10v8zM302 393l15 -15l14 14l-29 29v-28zM302 363l9 8l-9 9v-17zM345 475l3 -3v6zM254 462l42 -22l41 41zM266 345l10 -9l10 9h-20zM269 329l-16 16h-28l30 -30zM248 308l-37 37h-28l46 -45h11zM237 120v170h-87v-170h87zM215 300l-45 45h-28l45 -45h28zM174 300l-46 45 h-28l46 -45h28zM95 102l15 -15l14 14l-29 29v-28zM140 291v1l-45 45v-27l45 -46v27zM140 167l-45 46v-28l45 -46v28zM95 254v-27l45 -46v28zM95 296v-28l45 -46v28zM95 144l36 -36l9 9v9l-45 45v-27zM140 431v28l-45 45v-28zM95 546v-28l45 -46v28zM95 559l45 -45v28l-45 45 v-28zM103 371l-8 9v-17zM95 393l15 -15l14 14l-29 29v-28zM95 435l36 -36l9 10v8l-45 46v-28zM103 80l-8 8v-16zM128 55h-28l46 -46h28zM170 55h-28l45 -46h28zM211 55h-28l46 -46q16 2 23 5zM147 110l-45 -45h182l-45 45h-92zM382 9l-46 46h-28l45 -46h29zM377 55h-28 l47 -46h28zM401 73l-14 -14l45 -44v28zM432 84l-10 10l-14 -14l24 -23v27zM429 101l3 -3v6zM309 65h69l47 45h-70zM308 345l45 -45h29l-46 45h-28zM284 356l-45 46h-92l-45 -46h182zM102 636l45 -46h28l-46 46h-27zM224 679v7l-3 -4zM224 665l-10 11l-14 -14l24 -24v27z M224 624l-31 31l-14 -14l45 -45v28zM216 590l-45 46h-28l46 -46h27zM170 645l45 46h-111q-24 0 -42 -16l30 -30h78zM39 302v-228q0 -24 16 -42l30 30v576l-30 30q-16 -18 -16 -41v-227q0 -26 19 -45l3 -4l-3 -4q-19 -19 -19 -45zM225 55l36 -36q9 5 15 12l-23 24h-28z M290 33q26 -24 49 -24h1l-42 42q-3 -9 -8 -18z" />
<glyph unicode="'" horiz-adv-x="180" d="M30 700h120v-89l-29 -86h-62l-29 86v89zM47 690l42 -43l43 43h-85zM105 535l-16 15l-16 -15h32zM132 591l-37 37v-28l30 -31zM110 654l-14 -14l40 -40l4 13v11zM130 674l-13 -13l23 -24v29zM140 684l-3 -3l3 -3v6zM40 683v-70l24 -74l21 20v79zM95 558l21 -20l6 21 l-27 28v-29z" />
<glyph unicode="(" horiz-adv-x="260" d="M89 -108l-21 20l-6 -6q11 -11 27 -14zM89 -67l-14 -14l29 -29h28zM140 676v27l-46 45v-27zM94 -18l15 -15l14 14l-29 29v-28zM94 462v-28l46 -45v27zM140 347v28l-46 46v-28zM94 503v-28l46 -45v28zM94 544v-28l46 -45v28zM94 585v-28l46 -45v28zM94 625v-27l46 -45v28z M94 707v-27l46 -45v27zM94 666v-27l46 -46v28zM140 306v27l-46 47v-28zM94 132v-27l46 -45v28zM140 19v28l-46 45v-28zM94 173v-28l46 -44v27zM94 214v-27l46 -46v28zM94 255v-27l46 -46v28zM94 296v-27l46 -45v27zM94 337v-27l46 -45v27zM94 23l36 -36l10 10v8l-46 46v-28z M103 -40l-9 9v-17zM127 -65h-27l45 -45h28zM169 -65h-28l44 -45h28zM191 -46l-13 -14l43 -44v28zM211 -26l-13 -14l23 -23v28zM221 -17l-3 -2l3 -3v5zM170 -55l44 45h-68l-45 -45h69zM101 755l45 -45h28l-45 45h-28zM221 799v5l-3 -2zM221 785l-10 10l-14 -14l24 -23v27z M221 744l-30 30l-13 -13l43 -44v27zM214 710l-44 45h-28l44 -45h28zM169 765l44 45h-110q-23 0 -41 -15l29 -30h78zM40 746v-792q0 -26 15 -42l30 30v816l-30 30q-15 -16 -15 -42zM30 -46v792q0 31 21.5 52.5t51.5 21.5h127v-120h-81v-700h81v-119h-127q-30 0 -51.5 21 t-21.5 52z" />
<glyph unicode=")" horiz-adv-x="260" d="M230 745v-791q0 -30 -21 -51.5t-51 -21.5h-128v119h82v700h-82v119h128q29 0 50.5 -21.5t21.5 -52.5zM167 747l-45 -45v-705l45 -45v795zM51 709l-2 2l-3 -2h5zM69 732l-14 -14l9 -9h28zM40 803v-87l43 44zM205 787l-7 -7l21 -21q-3 16 -14 28zM221 88l-46 45v-28l46 -45 v28zM175 174v-28l46 -45v28zM175 215v-28l46 -45v28zM175 256v-27l46 -46v28zM175 297v-27l46 -46v28zM175 338v-27l46 -46v28zM175 585v-29l46 -45v27zM221 470v27l-46 45v-27zM175 626v-28l46 -46v27zM175 667v-28l46 -45v27zM175 707v-28l46 -44v28zM221 456l-46 45v-27 l46 -45v27zM175 720l46 -44v27l-46 45v-28zM221 47l-46 45v-28l46 -45v28zM221 744l-30 29l-13 -14l43 -43v28zM142 754l9 -9l9 9h-18zM145 739l-16 15h-28l30 -29zM198 -95l-29 30h-28l40 -40q8 3 17 10zM175 -31v-27l30 -30q7 9 10 17zM175 10v-28l44 -43q2 10 2 15v11z M175 51v-28l46 -45v28zM170 764l29 30q-20 15 -41 15h-110l45 -45h77zM76 739l30 -30h9l9 9l-34 34zM160 -55l-45 45h-69l46 -45h68zM83 -60l-43 43v-87zM50 -110l-1 1l-1 -1h2zM69 -88l-14 -14l8 -8h28zM90 -68l-14 -13l28 -29h28zM100 -65l45 -45h13q5 0 13 2l-43 43h-28z M221 415l-46 45v-27l46 -45v27zM221 374l-46 45v-27l46 -45v27zM221 334l-46 45v-27l46 -45v27z" />
<glyph unicode="*" horiz-adv-x="435" d="M345 715l60 -103l-68 -39l68 -40l-60 -103l-68 39v-79h-119v79l-68 -39l-60 103l68 40l-68 39l60 103l68 -39v80h119v-80zM326 577l2 2l-33 33l-17 -11l24 -24h24zM319 508l-90 55l101 -96zM371 495l-19 19l-22 -6l31 -31zM356 469l-22 22l11 -42zM250 506l-30 60l1 -31z M222 479v-27l45 -46v28zM155 478l3 2l8 14l-27 27l-18 -9zM146 473l-31 31l-6 -21l20 -20zM148 527l24 -25l9 18l-16 16zM174 542l13 -14l11 17l-8 8zM198 558l5 -4l10 14zM150 606l30 -30l31 -2zM92 623l45 -46h28l-47 47l-7 5zM222 617l11 -11l8 18l-19 20v-27zM222 657 l25 -24l10 17l-35 35v-28zM220 579l8 18l-7 7zM222 521v-28l45 -46v28zM242 583l-18 -9l25 2zM251 588l10 -11h28l-20 20zM321 627l-17 -10l33 -33l17 10zM361 629l-27 26l-5 -18zM337 625l26 -26l23 13zM337 666l42 -42l10 -3l-29 49l-17 18zM319 637l17 62l-59 -35h-1 l-54 -87zM224 697l37 -38l6 11v11l-29 29zM259 731l-14 -14l22 -23v28zM267 740l-2 -2l2 -3v5zM218 703l43 44h-87zM213 695l-45 45v-71l47 -90zM159 664l-60 35l17 -62l97 -60zM106 637l-16 59l-44 -75zM59 614l20 -19l30 -18h15l-43 44zM109 568l-60 -35l62 -16l100 54z M90 449l16 59l-60 16zM120 458l-14 14l-7 -26zM215 566l-47 -90v-70l45 46zM220 400l-23 22l-14 -14l9 -8h28zM178 400l-2 2l-2 -2h4zM204 429l29 -29h28l-43 43zM276 481l60 -35l-1 2l-109 114zM363 517l13 -14l13 21zM324 517l62 16l-60 35l-102 3z" />
<glyph unicode="+" horiz-adv-x="428" d="M274 411h124v-120h-124v-124h-120v124h-124v120h124v124h120v-124zM339 301l-45 45h-28l46 -45h27zM335 346h-28l46 -45h28zM358 364l-13 -14l44 -44v28zM379 385l-14 -14l24 -23v27zM389 394l-3 -2l3 -3v5zM337 356l45 45h-111l-45 -45h111zM142 346l30 -30l14 14 l-16 16h-28zM184 346l9 -9l10 9h-19zM265 458l-31 30l-13 -14l44 -44v28zM228 371l-9 8v-16zM219 393l15 -15l14 14l-29 29v-28zM219 434l36 -35l10 9v9l-46 45v-28zM265 518l-24 -23l24 -23v46zM170 525l44 -44l44 44h-88zM210 361v111l-46 45v-110zM202 356l-46 45h-110 l45 -45h111zM40 307l43 43l-43 43v-86zM50 301l-2 2l-2 -2h4zM69 323l-14 -14l9 -8h27zM90 344l-14 -14l29 -29h28zM129 346h-28l45 -45h11l9 8zM210 339l-46 -45v-110l46 45v110zM174 177l-2 2l-2 -2h4zM193 199l-14 -14l9 -8h27zM214 220l-14 -14l29 -29h28zM219 256v-28 l46 -46v28zM219 297v-28l46 -45v27zM219 311l46 -46v28l-46 45v-27zM225 346l45 -45h28l-46 45h-27z" />
<glyph unicode="," horiz-adv-x="180" d="M30 0v119h120v-129q0 -23 -14 -42.5t-36 -27.5q-6 -2 -16 -3v83h-54zM50 9l-2 1l-2 -1h4zM40 102v-87l42 44zM46 109l42 -42l44 42h-86zM140 2l-52 50l-13 -13l64 -63q1 4 1 14v12zM110 73l-14 -14l44 -45v29zM131 94l-14 -14l23 -23v27zM140 103l-2 -2l2 -3v5zM55 17 l7 -8h29l-23 23zM97 -71q11 4 20 13l-22 21v-34h2zM95 -23l28 -29q9 10 12 17l-40 41v-29z" />
<glyph unicode="-" horiz-adv-x="304" d="M30 327h244v-120h-244v120zM264 305v5l-3 -3zM91 271h121l45 46h-212zM39 223l43 43l-43 43v-86zM49 216l-1 2l-2 -2h3zM69 239l-14 -14l8 -9h28zM89 259l-14 -14l29 -29h28zM128 262h-28l46 -46h28zM169 262h-27l45 -46h28zM211 262h-28l46 -46h27zM234 280l-14 -14 l44 -44v28zM255 301l-14 -14l23 -24v28z" />
<glyph unicode="." horiz-adv-x="180" d="M30 121h120v-121h-120v121zM140 86l-8 9l-14 -14l22 -22v27zM138 102l2 -2v4zM47 111l43 -44l44 44h-87zM39 17l44 44l-44 43v-87zM51 10l-2 2l-3 -2h5zM69 33l-14 -14l9 -9h28zM90 54l-14 -14l30 -30h28zM111 75l-14 -14l43 -44v28z" />
<glyph unicode="/" horiz-adv-x="331" d="M0 0l210 700h121l-209 -700h-122zM223 691l30 -42l57 42h-87zM72 62l175 579l-31 44l-201 -667zM31 10l-5 5l-6 -5h11zM50 33l-16 -12l11 -11h27zM76 53l-19 -14l29 -29h22zM87 78l-5 -17l34 -45l8 26zM97 110l-7 -21l37 -37l6 21zM106 142l-6 -21l37 -37l6 21zM116 174 l-6 -21l36 -37l7 21zM126 206l-7 -22l37 -36l6 21zM135 238l-6 -22l36 -36l7 21zM145 270l-7 -22l37 -36l6 21zM154 301l-6 -21l36 -36l7 21zM164 333l-6 -21l36 -36l6 21zM174 365l-7 -21l37 -36l6 21zM183 397l-6 -21l36 -37l6 22zM193 429l-6 -21l36 -37l6 22zM203 461 l-7 -22l36 -36l7 22zM212 493l-6 -22l36 -36l6 22zM222 524l-7 -21l36 -36l7 22zM231 556l-6 -21l36 -36l6 22zM241 588l-6 -21l35 -36l7 21zM251 620l-7 -21l36 -36l6 21zM256 639l-2 -8l36 -36l6 21l-30 30zM290 664l-16 -12l25 -25l7 21zM316 683l-18 -13l11 -11z" />
<glyph unicode="0" d="M104 700h180q30 0 52 -21.5t22 -52.5v-552q0 -30 -22 -52t-52 -22h-180q-31 0 -52.5 22t-21.5 52v552q0 31 21.5 52.5t52.5 21.5zM89 12l-20 20l-7 -6q13 -11 27 -14zM89 53l-14 -14l30 -29h27zM95 103l15 -16l14 14l-29 30v-28zM237 493v87h-87v-193zM287 472l-43 14 l-95 -115l-54 -130zM293 480v150l-46 -46v-89zM133 272l32 -32l13 15l-32 32zM152 294l32 -32l13 16l-32 32zM171 317l32 -32l13 15l-32 32zM190 340l32 -32l12 15l-32 32zM140 168l-45 46v-28l45 -46v28zM140 205l-40 17l40 -40v23zM108 242l-8 -10l30 -12zM95 518l45 -46 v28l-45 46v-28zM140 431v27l-45 46v-28zM140 389v28l-45 46v-28zM140 374v1l-45 46v-28l38 -38zM120 326l9 20l-34 34v-28zM108 297l8 20l-21 21v-28zM95 559l45 -45v27l-45 46v-28zM104 287l-9 10v-32zM95 144l36 -36l9 10v8l-45 46v-28zM114 249l32 -32l13 15l-32 32z M237 311l-87 -105v-85h87v190zM209 362l31 -31l8 20l-27 27zM227 385l25 -24l8 20l-20 19zM246 408l17 -17l8 19l-12 13zM265 430l10 -10l8 20l-5 6zM284 453l3 -3l6 13v1zM268 635l8 -8l9 8h-17zM269 620l-15 15h-28l29 -29zM248 599l-36 36h-27l45 -45h9zM217 590l-46 45 h-28l46 -45h28zM175 590l-46 45h-27l45 -45h28zM140 555v28l-45 46v-28zM103 81l-8 8v-17zM128 56h-28l46 -46h28zM170 56h-28l46 -46h27zM211 56h-28l46 -46h28zM147 111l-45 -46h183l-46 46h-92zM325 25l-31 31h-28l41 -41q9 2 18 10zM247 324v-207l46 -46v366zM348 85 l-46 46v-28l44 -44q2 10 2 15v11zM302 172v-28l46 -45v27zM302 214v-28l46 -46v28zM302 255v-28l46 -45v27zM302 297v-28l46 -46v28zM302 338v-28l46 -45v27zM302 380v-28l46 -46v28zM302 421v-28l46 -45v27zM302 463v-28l46 -46v28zM302 504v-28l46 -45v27zM302 546v-28 l46 -46v28zM302 587v-28l46 -45v27zM302 629v-28l46 -46v28zM318 655l-14 -14l44 -44v27zM332 669l-8 -7l23 -23q-5 18 -15 30zM284 691h-180q-24 0 -42 -16l30 -30h202l31 31q-18 15 -41 15zM39 626v-552q0 -23 16 -42l30 31v575l-30 30q-16 -18 -16 -42zM225 56l46 -46h13 q2 0 6.5 0.5t6.5 0.5l-44 45h-28zM302 61l30 -29q7 8 11 17l-41 40v-28z" />
<glyph unicode="1" horiz-adv-x="258" d="M43 565l-28 114l198 30v-709h-120v572zM81 580l-14 15l-10 -19zM81 622l-10 -19l22 -21h1l12 14zM90 627l23 -23l13 15l-13 12zM125 633l7 -7l9 10zM203 666l-12 12l-13 -15l25 -25v28zM203 624l-32 32l-13 -15l45 -45v28zM203 458l-45 46v-28l45 -46v28zM158 545v-28 l45 -45v28zM158 587v-28l45 -46v28zM158 628v-28l45 -45v28zM203 416l-45 46v-28l45 -44v26zM203 692l-6 -7l6 -6v13zM81 635l71 13l42 49l-161 -25zM148 629l-46 -52v-560l46 46v566zM112 10l-1 2l-2 -2h3zM131 32l-14 -14l9 -8h28zM152 53l-14 -14l29 -29h28zM158 89v-28 l45 -45v28zM158 131v-28l45 -46v28zM158 172v-27l45 -46v28zM158 214v-28l45 -46v28zM158 255v-27l45 -46v28zM158 297v-28l45 -46v28zM158 338v-27l45 -46v28zM158 380v-28l45 -46v28zM158 421v-27l45 -46v28zM74 628l-45 34l20 -80z" />
<glyph unicode="2" d="M284 291h-134v-170h87v84l121 -28v-177h-328v337q0 31 21.5 52.5t52.5 21.5h133v169h-87v-124l-120 28v142q0 31 21.5 52.5t52.5 21.5h180q30 0 52 -21.5t22 -52.5v-27v-234q0 -31 -22 -52.5t-52 -21.5zM257 300l-46 46h-28l46 -46h28zM215 300l-45 46h-28l46 -46h27z M225 346l46 -46h13q5 0 13 2l-44 44h-28zM293 630l-46 -46v-177l46 -46v269zM348 624l-30 31l-14 -14l44 -44v27zM348 375l-46 46v-28l44 -44q2 10 2 16v10zM302 463v-28l46 -46v28zM302 504v-28l46 -45v27zM302 546v-28l46 -46v28zM302 587v-28l46 -45v27zM302 629v-28 l46 -46v28zM268 635l8 -8l9 8h-17zM269 620l-15 15h-28l29 -29zM325 315l-31 31h-28l41 -41q12 5 18 10zM302 352l30 -30q7 8 11 17l-41 41v-28zM324 662l23 -23q-5 18 -15 30zM284 691h-180q-24 0 -42 -16l30 -30h202l31 31q-18 15 -41 15zM217 590l-46 45h-28l46 -45h28z M74 483l-13 13l-13 -7zM89 511l-19 -10l22 -22l38 -9zM95 546v-27l45 -46v27zM95 587v-28l45 -45v27zM95 601l45 -46v28l-45 46v-28zM85 638l-30 30q-16 -18 -16 -42v-130l46 24v118zM102 635l45 -45h28l-46 45h-27zM185 635l45 -45h9l9 9l-36 36h-27zM285 356l-46 46h-135 q-24 0 -43 -17l30 -29h194zM293 141l-46 46v-70l46 -46v70zM302 89v-28l46 -45v27zM302 131v-28l46 -46v28zM323 152l-18 -10l43 -43v27zM348 165l-16 -9l16 -16v25zM258 190l40 -41l41 22zM312 10h28l-46 46h-28zM298 10l-45 46h-28l46 -46h27zM257 10l-46 46h-28l46 -46 h28zM215 10l-45 46h-28l46 -46h27zM174 10l-46 46h-28l46 -46h28zM49 10l-1 2l-2 -2h3zM69 32l-14 -14l8 -8h28zM89 53l-14 -14l30 -29h27zM140 168l-45 46v-28l45 -46v28zM95 255v-28l45 -45v27zM95 297v-28l45 -46v28zM103 81l-8 8v-17zM95 103l15 -16l14 14l-29 30v-28z M95 144l36 -36l9 10v8l-45 46v-28zM95 310l45 -45v27l-45 46v-28zM85 348l-31 30q-15 -18 -15 -41v-320l46 46v285zM285 65l-46 46h-92l-45 -46h183zM100 346l46 -46h28l-46 46h-28z" />
<glyph unicode="3" horiz-adv-x="389" d="M358 626l1 -206q0 -35 -27 -57q27 -29 27 -60l-1 -229q0 -30 -21.5 -52t-52.5 -22h-180q-30 0 -52 22t-22 52v144l121 28v-125h87v170h-83v120h83v169h-87v-124l-121 28v142q0 31 22 52.5t52 21.5h180q31 0 52.5 -21.5t21.5 -52.5zM326 25l-31 31h-28l41 -41q6 2 18 10z M248 294v-177l45 -46v268zM175 300l-2 2l-2 -2h4zM194 323l-14 -14l8 -9h28zM165 393v-86l43 43zM293 630l-45 -46v-177l45 -46v269zM349 624l-31 31l-14 -14l45 -44v27zM349 417l-46 46v-28l41 -41q3 7 5 23zM303 504v-28l46 -46v28zM303 546v-28l46 -46v28zM303 587v-28 l46 -46v28zM303 629v-28l46 -46v28zM268 635l9 -8l8 8h-17zM270 620l-15 15h-28l29 -29zM277 336l9 10h-19zM270 330l-17 16h-27l30 -30zM349 85l-46 46v-28l44 -44q2 10 2 15v11zM303 172v-28l46 -45v27zM303 214v-28l46 -46v28zM303 255v-28l46 -45v27zM303 297v-28 l46 -46v28zM303 338v-28l46 -45v28zM318 365l-15 15v-22q1 0 5 2t5 2t2.5 1t2.5 2zM303 393l23 -23q5 5 13 15l-36 36v-28zM325 662l22 -23q-3 18 -15 30zM284 691h-180q-23 0 -41 -16l30 -30h202l31 31q-20 15 -42 15zM217 590l-45 45h-28l45 -45h28zM75 483l-13 13l-13 -7 zM90 511l-19 -10l22 -22l38 -9zM95 546v-27l46 -46v27zM95 587v-28l46 -45v27zM95 601l46 -46v28l-46 46v-28zM86 638l-30 30q-16 -18 -16 -42v-130l46 24v118zM102 635l46 -45h28l-46 45h-28zM185 635l46 -45h9l9 9l-36 36h-28zM240 401h-70l46 -45h69zM201 330l29 -30h11 l8 9l-34 35zM285 65l-45 46h-92l-46 -46h183zM90 12l-21 20l-6 -6q11 -11 27 -14zM90 53l-14 -14l29 -29h28zM95 103l16 -16l14 14l-30 30v-28zM141 209l-9 10l-14 -14l23 -23v27zM141 168l-30 30l-14 -14l44 -44v28zM95 144l37 -36l9 10v8l-46 46v-28zM138 226l3 -3v6z M49 213l41 -22l41 41zM104 81l-9 8v-17zM129 56h-28l46 -46h28zM170 56h-27l45 -46h28zM212 56h-28l46 -46h28zM86 182l-46 24v-132q0 -23 16 -42l30 31v119zM271 10h13q2 0 7 0.5t7 0.5l-45 45h-27zM303 61l29 -29q8 8 11 17l-40 40v-28zM306 349l43 -43q-1 27 -25 51 q-4 -2 -7 -4q-2 -1 -5.5 -2t-5.5 -2z" />
<glyph unicode="4" horiz-adv-x="449" d="M356 410h83v-120h-83v-290h-119v290h-207v382l120 28v-290h87v288h119v-288zM292 338l-46 -45v-276l46 45v276zM292 636l-46 45v-275l46 -46v276zM308 354h68l45 46h-67zM347 663l-10 10l-14 -14l24 -23v27zM347 622l-30 30l-14 -13l44 -45v28zM347 553v28l-46 45v-27z M301 392l16 -15l13 13l-29 30v-28zM301 361l9 9l-9 8v-17zM301 433l36 -36l10 10v8l-46 46v-28zM301 502v-27l46 -46v28zM301 544v-28l46 -46v28zM301 585v-28l46 -45v27zM347 683l-3 -3l3 -3v6zM253 688l43 -43l43 43h-86zM266 345l9 -10l10 10h-19zM268 328l-16 17h-28 l31 -30zM256 10l-1 2l-2 -2h3zM275 32l-14 -14l9 -8h27zM296 53l-14 -14l29 -29h28zM301 89v-28l46 -45v27zM301 130v-28l46 -45v28zM301 172v-28l46 -46v28zM301 213v-28l46 -45v27zM301 254v-28l46 -45v28zM301 296v-28l46 -46v28zM301 337v-28l46 -45v27zM307 345l45 -45 h29l-45 45h-29zM377 345h-27l45 -45h28zM399 364l-14 -13l44 -45v28zM420 385l-14 -14l23 -23v27zM429 395l-2 -3l2 -3v6zM284 354l-46 46h-91l-46 -46h183zM140 663l-10 10l-13 -14l23 -23v27zM140 622l-30 30l-15 -15l45 -43v28zM140 457l-45 45v-27l45 -46v28zM95 544 v-28l45 -46v28zM95 585v-28l45 -45v27zM95 626v-27l45 -46v28zM103 370l-8 8v-17zM95 392l15 -15l14 13l-29 30v-28zM95 433l36 -36l9 10v8l-45 46v-28zM137 680l3 -3v6zM48 667l41 -22l41 41zM85 352v284l-46 24v-354zM49 299l-1 2l-2 -2h3zM69 322l-14 -14l8 -9h28z M89 342l-14 -14l29 -29h28zM100 345l46 -46h27l-45 46h-28zM169 345h-27l45 -46h28zM183 345l45 -46h12l8 9l-37 37h-28z" />
<glyph unicode="5" d="M150 453h134q30 0 52 -22t22 -52v-305q0 -30 -22 -52t-52 -22h-180q-31 0 -52.5 22t-21.5 52v144l120 28v-125h87v211h-133q-31 0 -52.5 21.5t-21.5 52.5v294h328v-120h-208v-127zM325 25l-31 31h-28l41 -41q9 2 18 10zM247 335v-218l46 -46v310zM266 388l10 -10l10 10 h-20zM269 371l-16 17h-28l30 -31zM348 85l-46 46v-28l44 -44q2 10 2 15v11zM302 172v-28l46 -45v27zM302 214v-28l46 -46v28zM302 255v-28l46 -45v27zM302 297v-28l46 -46v28zM302 338v-28l46 -45v27zM302 380v-28l46 -46v28zM318 406l-14 -14l44 -44v27zM332 421l-8 -8 l23 -23q-3 17 -15 31zM284 443h-137l-45 -46h193l31 30q-19 16 -42 16zM89 344l-20 20l-7 -6q13 -11 27 -14zM89 385l-14 -14l30 -29h27zM217 590l-46 45h-28l46 -45h28zM212 635h-27l45 -45h28zM254 635h-28l46 -45h28zM295 635h-27l45 -45h28zM318 655l-14 -14l44 -44v27z M348 685l-24 -23l24 -24v47zM92 645h202l46 46h-294zM140 555v28l-45 46v-28zM95 435l15 -16l14 14l-29 30v-28zM95 518l45 -46v28l-45 46v-28zM95 559l45 -45v27l-45 46v-28zM95 476l36 -36l9 10v8l-45 46v-28zM103 413l-8 8v-17zM128 388h-28l46 -46h28zM170 388h-28 l46 -46h27zM102 635l45 -45h28l-46 45h-27zM85 638l-46 46v-278q0 -23 16 -42l30 30v244zM183 388l46 -46h11l8 8l-37 38h-28zM285 65l-46 46h-92l-45 -46h183zM89 12l-20 20l-7 -6q13 -11 27 -14zM89 53l-14 -14l30 -29h27zM95 103l15 -16l14 14l-29 30v-28zM140 209l-9 10 l-14 -14l23 -23v27zM140 168l-30 30l-14 -14l44 -44v28zM95 144l36 -36l9 10v8l-45 46v-28zM138 226l2 -3v6zM48 213l41 -22l41 41zM103 81l-8 8v-17zM128 56h-28l46 -46h28zM170 56h-28l46 -46h27zM211 56h-28l46 -46h28zM85 182l-46 24v-132q0 -23 16 -42l30 31v119z M225 56l46 -46h13q2 0 6.5 0.5t6.5 0.5l-44 45h-28zM302 61l30 -29q7 8 11 17l-41 40v-28z" />
<glyph unicode="6" d="M150 411h134q30 0 52 -21.5t22 -52.5v-263q0 -30 -22 -52t-52 -22h-180q-31 0 -52.5 22t-21.5 52v552q0 31 21.5 52.5t52.5 21.5h180q30 0 52 -21.5t22 -52.5v-27v-115l-121 -28v124h-87v-169zM89 12l-20 20l-7 -6q13 -11 27 -14zM89 53l-14 -14l30 -29h27zM140 555v28 l-45 46v-28zM266 346l10 -10l10 10h-20zM269 330l-16 16h-28l30 -30zM248 309l-37 37h-28l46 -46h11zM237 121v170h-87v-170h87zM215 300l-45 46h-28l46 -46h27zM174 300l-46 46h-28l46 -46h28zM95 103l15 -16l14 14l-29 30v-28zM95 546v-28l45 -46v28zM140 431v27l-45 46 v-28zM95 587v-28l45 -45v27zM140 265v27l-45 46v-28zM140 168l-45 46v-28l45 -46v28zM95 255v-28l45 -45v27zM95 297v-28l45 -46v28zM95 144l36 -36l9 10v8l-45 46v-28zM103 371l-8 9v-17zM95 393l15 -15l14 14l-29 29v-28zM95 435l36 -36l9 9v9l-45 46v-28zM103 81l-8 8 v-17zM128 56h-28l46 -46h28zM170 56h-28l46 -46h27zM211 56h-28l46 -46h28zM147 111l-45 -46h183l-46 46h-92zM325 25l-31 31h-28l41 -41q9 2 18 10zM247 294v-177l46 -46v268zM348 85l-46 46v-28l44 -44q2 10 2 15v11zM302 172v-28l46 -45v27zM302 214v-28l46 -46v28z M302 255v-28l46 -45v27zM302 297v-28l46 -46v28zM302 338v-28l46 -45v27zM318 364l-14 -14l44 -44v28zM332 379l-8 -8l23 -22q-3 18 -15 30zM284 401h-137l-45 -45h193l31 30q-18 15 -42 15zM102 635l45 -45h28l-46 45h-27zM217 590l-46 45h-28l46 -45h28zM185 635l45 -45h9 l9 9l-36 36h-27zM348 624l-30 31l-14 -14l44 -44v2v25zM293 630l-46 -46v-111l46 46v111zM276 489l-14 -14l3 -3l23 5zM297 509l-14 -13l16 -16l22 5zM339 489l-18 10l11 -11zM302 546v-26l46 -24v4zM302 587v-28l46 -45v27zM302 629v-28l46 -46v28zM268 635l8 -8l9 8h-17z M269 620l-15 15h-28l29 -29zM324 662l23 -23q-5 18 -15 30zM284 691h-180q-24 0 -42 -16l30 -30h202l31 31q-18 15 -41 15zM39 626v-552q0 -23 16 -42l30 31v575l-30 30q-16 -18 -16 -42zM225 56l46 -46h13q2 0 6.5 0.5t6.5 0.5l-44 45h-28zM302 61l30 -29q7 8 11 17l-41 40 v-28z" />
<glyph unicode="7" horiz-adv-x="359" d="M43 580l-23 120h319l-122 -700h-122l103 580h-155zM287 649l28 -28l4 24l-17 17zM270 623l39 -38l4 24l-33 34l-7 -6zM264 589l39 -39l4 24l-39 39zM252 519l39 -40l4 24l-39 39zM245 483l39 -39l5 24l-40 39zM239 448l39 -39l4 23l-39 40zM233 413l39 -40l4 24l-39 39z M220 342l40 -39l4 23l-40 40zM214 307l40 -40l4 24l-40 40zM208 272l40 -40l4 24l-40 40zM195 201l40 -40l4 24l-40 40zM189 166l40 -40l4 24l-40 40zM183 131l40 -40l4 23l-40 41zM176 96l41 -41l4 24l-40 40zM170 60l40 -45l5 29l-41 40zM124 10l-5 5l-5 -5h10zM141 34 l-14 -13l11 -11h27zM163 53l-14 -13l30 -30h22zM176 635l37 -36l15 13l-24 23h-28zM34 681l15 -82l26 41zM84 590l-18 18l-11 -18h29zM82 633l-11 -17l26 -26h28zM121 635h-28l46 -45h28zM38 691l46 -46h183l53 46h-282zM218 635l17 -17l20 17h-37zM206 260l-5 -23l40 -40 l4 23zM231 401l-5 -23l40 -40l4 24zM262 577l-4 -23l39 -39l4 23zM326 683l-17 -15l12 -12zM135 635l45 -45h22l3 2l-42 43h-28zM261 627l-53 -45l-100 -564l53 45z" />
<glyph unicode="8" horiz-adv-x="389" d="M359 626v-206q0 -34 -26 -57q26 -30 26 -60v-229q0 -30 -21.5 -52t-52.5 -22h-181q-31 0 -52.5 22t-21.5 52v229q0 31 26 60q-26 23 -26 57v206q0 31 21.5 52.5t52.5 21.5h181q31 0 52.5 -21.5t21.5 -52.5zM318 365l-14 15v-21q6 1 14 6zM91 11l-21 21l-7 -7 q11 -9 28 -14zM91 53l-14 -14l29 -29h28zM349 624l-30 31l-14 -14l44 -44v27zM230 300h11l9 9l-38 37h-27zM96 103l15 -16l14 14l-29 30v-28zM239 411v169h-88v-169h88zM286 356l-46 45h-91l-46 -45h183zM143 346l46 -46h28l-46 46h-28zM142 265v27l-46 46v-28zM142 168 l-46 46v-28l46 -46v28zM96 255v-28l46 -45v27zM96 297v-28l46 -46v28zM96 518l46 -46v28l-46 46v-28zM142 431v27l-46 46v-28zM142 408v9l-46 46v-28l36 -36zM111 378l14 14l-29 29v-28zM96 559l46 -45v27l-46 46v-28zM105 371l-9 9v-17zM96 144l36 -36l10 10v8l-46 46v-28z M102 346l45 -46h28l-45 46h-28zM239 121v170h-88v-170h88zM226 346l31 -30l13 14l-16 16h-28zM268 346l9 -10l10 10h-19zM248 584v-177l46 -46v269zM349 458l-45 46v-28l45 -45v27zM304 546v-28l45 -46v28zM304 587v-28l45 -45v27zM304 629v-28l45 -46v28zM269 635l8 -8l9 8 h-17zM270 620l-15 15h-28l30 -29zM250 599l-36 36h-28l46 -45h8zM218 590l-46 45h-28l46 -45h28zM176 590l-45 45h-28l46 -45h27zM142 555v28l-46 46v-28zM105 81l-9 8v-17zM130 56h-28l45 -46h28zM171 56h-28l46 -46h28zM212 56h-27l45 -46h28zM149 111l-46 -46h183l-46 46 h-91zM326 25l-31 31h-27l41 -41q8 3 17 10zM248 294v-177l46 -46v268zM349 85l-45 46v-28l43 -44q2 5 2 15v11zM304 172v-28l45 -45v27zM304 214v-28l45 -46v28zM304 255v-28l45 -45v27zM304 297v-28l45 -46v28zM304 310l45 -45v27l-45 46v-28zM349 417l-45 46v-28l40 -41 q5 12 5 23zM326 662l22 -23q-3 16 -15 30zM285 691h-181q-23 0 -41 -15l30 -31h202l31 31q-18 15 -41 15zM40 303v-229q0 -24 16 -42l30 31v575l-30 31q-16 -19 -16 -43v-206q0 -32 24 -51l6 -4l-3 -4q-27 -28 -27 -58zM226 56l46 -46h13q2 0 6.5 0.5t6.5 0.5l-44 45h-28z M304 61l29 -29q5 5 11 17l-40 40v-28zM306 349l43 -43q-1 27 -24 52v-1v1q-9 -6 -19 -9zM326 371h1q7 6 12 14l-35 36v-28z" />
<glyph unicode="9" d="M358 626v-552q0 -30 -22 -52t-52 -22h-180q-31 0 -52.5 22t-21.5 52v141l120 19v-113h87v170h-133q-31 0 -52.5 21.5t-21.5 52.5v261q0 31 21.5 52.5t52.5 21.5h180q30 0 52 -21.5t22 -52.5zM325 25l-31 31h-28l41 -41q9 2 18 10zM247 294v-177l46 -46v269zM89 302 l-20 21l-7 -7q13 -11 27 -14zM89 344l-14 -14l30 -29l-1 -1h28zM225 346l30 -30l14 14l-16 16h-28zM147 401l-45 -45h183l-46 45h-92zM95 435l36 -36l9 9v9l-45 46v-28zM95 518l45 -46v28l-45 46v-28zM140 431v27l-45 46v-28zM95 559l45 -45v27l-45 46v-28zM124 392l-29 29 v-28l15 -15zM237 411v169h-87v-169h87zM266 346l10 -9l9 9h-19zM247 584v-177l46 -46v269zM268 635l8 -8l9 8h-17zM269 620l-15 15h-28l29 -29zM248 599l-36 36h-27l45 -45h9zM217 590l-46 45h-28l46 -45h28zM175 590l-46 45h-27l45 -45h28zM140 555v28l-45 46v-28zM103 371 l-8 9v-17zM128 346h-28l46 -46h28zM170 346h-28l46 -46h27zM211 346h-28l46 -46h10l9 9zM348 85l-46 46v-28l44 -44q2 10 2 15v11zM302 172v-28l46 -45v27zM302 214v-28l46 -46v28zM302 255v-28l46 -45v27zM302 297v-28l46 -46v28zM302 338v-28l46 -45v27zM302 380v-28 l46 -46v28zM302 421v-28l46 -45v27zM302 463v-28l46 -46v28zM302 504v-28l46 -45v27zM302 546v-28l46 -46v28zM302 587v-28l46 -45v27zM302 629v-28l46 -46v28zM318 655l-14 -14l44 -44v27zM332 669l-8 -7l23 -23q-5 18 -15 30zM284 691h-180q-24 0 -42 -16l30 -30h202 l31 31q-18 15 -41 15zM39 626v-261q0 -24 16 -42l30 30v285l-30 30q-16 -18 -16 -42zM285 65l-46 46h-92l-45 -46h183zM89 12l-20 20l-7 -6q13 -11 27 -14zM89 53l-14 -14l30 -29h27zM95 103l15 -16l14 14l-29 30v-28zM140 168l-27 28l-15 -13l42 -43v28zM95 144l36 -36 l9 10v8l-45 46v-28zM140 218l-20 -16l20 -20v36zM50 209l39 -20l40 32zM103 81l-8 8v-17zM128 56h-28l46 -46h28zM170 56h-28l46 -46h27zM211 56h-28l46 -46h28zM85 180l-46 23v-129q0 -23 16 -42l30 31v117zM225 56l46 -46h13q2 0 6.5 0.5t6.5 0.5l-44 45h-28zM302 61 l30 -29q7 8 11 17l-41 40v-28z" />
<glyph unicode=":" horiz-adv-x="180" d="M30 121h120v-121h-120v121zM140 86l-8 9l-14 -14l22 -22v27zM138 102l2 -2v4zM47 111l43 -44l44 44h-87zM39 17l44 44l-44 43v-87zM51 10l-2 2l-3 -2h5zM69 33l-14 -14l9 -9h28zM90 54l-14 -14l30 -30h28zM111 75l-14 -14l43 -44v28zM30 400h120v-121h-120v121zM140 365 l-8 9l-14 -14l22 -22v27zM138 381l2 -2v4zM47 390l43 -44l44 44h-87zM39 296l44 44l-44 43v-87zM51 289l-2 2l-3 -2h5zM69 312l-14 -14l9 -9h28zM90 333l-14 -14l30 -30h28zM111 354l-14 -14l43 -44v28z" />
<glyph unicode=";" horiz-adv-x="180" d="M30 400h120v-121h-120v121zM140 365l-8 9l-14 -14l22 -22v27zM138 381l2 -2v4zM47 390l43 -44l44 44h-87zM39 296l44 44l-44 43v-87zM51 289l-2 2l-3 -2h5zM69 312l-14 -14l9 -9h28zM90 333l-14 -14l30 -30h28zM111 354l-14 -14l43 -44v28zM30 0v119h120v-129 q0 -23 -14 -42.5t-36 -27.5q-6 -2 -16 -3v83h-54zM50 9l-2 1l-2 -1h4zM40 102v-87l42 44zM46 109l42 -42l44 42h-86zM140 2l-52 50l-13 -13l64 -63q1 4 1 14v12zM110 73l-14 -14l44 -45v29zM131 94l-14 -14l23 -23v27zM140 103l-2 -2l2 -3v5zM55 17l7 -8h29l-23 23zM97 -71 q11 4 20 13l-22 21v-34h2zM95 -23l28 -29q9 10 12 17l-40 41v-29z" />
<glyph unicode="&#x3c;" horiz-adv-x="360" d="M201 368l129 -129l-86 -86l-214 215l213 213l86 -86zM232 412l-33 32l-14 -14l33 -32zM274 490h-28l33 -32l13 15zM312 490h-23l11 -10zM248 563v-62h62zM114 372l125 125v66l-190 -191h65zM239 237l-125 126h-28l153 -153v27zM147 372l-10 9l-9 -9h19zM144 389l16 -17 h28l-31 30zM239 196l-168 167h-22l190 -190v23zM257 178l-9 7v-14zM248 228v-27l16 -16l13 15zM284 234h-27l27 -28l14 14zM312 234h-14l7 -6zM246 244h65l-119 119h-64zM164 409l34 -33l13 15l-33 33zM252 432l-33 32l-14 -14l33 -32zM272 452l-33 32l-14 -14l33 -32z" />
<glyph unicode="=" d="M30 501h328v-120h-328v120zM348 479v6l-3 -3zM91 446h205l45 46h-296zM39 398l43 43l-43 43v-86zM49 391l-1 2l-2 -2h3zM69 413l-14 -14l8 -8h28zM89 434l-14 -14l29 -29h28zM128 437h-28l46 -46h28zM169 437h-27l45 -46h29zM212 437h-29l47 -46h27zM253 437h-28l46 -46 h28zM295 437h-28l45 -46h28zM318 455l-14 -14l44 -44v27zM338 475l-13 -13l23 -24v28zM30 321h328v-120h-328v120zM348 299v6l-3 -3zM91 266h205l45 46h-296zM39 218l43 43l-43 43v-86zM49 211l-1 2l-2 -2h3zM69 233l-14 -14l8 -8h28zM89 254l-14 -14l29 -29h28zM128 257 h-28l46 -46h28zM169 257h-27l45 -46h29zM212 257h-29l47 -46h27zM253 257h-28l46 -46h28zM295 257h-28l45 -46h28zM318 275l-14 -14l44 -44v27zM338 295l-13 -13l23 -24v28z" />
<glyph unicode="&#x3e;" horiz-adv-x="360" d="M31 495l85 86l214 -213l-214 -215l-86 87l128 128zM111 212v23h-23zM111 199l-37 36h-25l62 -64v28zM129 182l-8 8v-16zM121 231v-28l15 -14l14 13zM178 296l-13 -14l32 -33l14 14zM199 316l-14 -13l33 -33l14 14zM220 337l-14 -14l33 -32l14 14zM242 359l-15 -15l33 -32 l14 13zM86 491l118 -118h27l-118 118h-27zM121 498l123 -125h67l-190 189v-64zM50 501h61v61zM279 363h-28l30 -31l14 14zM72 491h-23l118 -118h23zM233 363h-66l-118 -119h64zM158 276l-13 -14l32 -33l14 14zM138 256l-13 -14l32 -33l14 14zM311 363h-19l9 -10z" />
<glyph unicode="?" d="M113 120h120v-120h-120v120zM223 86l-8 9l-14 -13l22 -23v27zM221 102l2 -2v4zM130 111l43 -44l44 44h-87zM123 17l43 44l-43 43v-87zM134 10l-2 2l-2 -2h4zM152 33l-14 -14l9 -9h28zM173 54l-14 -14l30 -30h28zM194 75l-14 -14l43 -44v28zM113 168v160v9q0 31 21.5 52.5 t52.5 21.5h50v169h-87v-125l-120 29v142q0 31 21.5 52.5t52.5 21.5h180q30 0 52 -21.5t22 -52.5v-261q0 -31 -22 -52.5t-52 -21.5h-51v-123h-120zM257 301l-46 45h-28l46 -45h28zM225 346l45 -45h14q9 0 13 1l-44 44h-28zM293 630l-46 -46v-177l46 -46v269zM348 624l-31 30 l-13 -13l44 -45v28zM348 375l-46 46v-28l44 -43q2 8 2 15v10zM302 462v-27l46 -46v28zM302 504v-28l46 -45v27zM302 545v-27l46 -46v28zM302 587v-28l46 -46v28zM302 628v-28l46 -45v28zM268 635l8 -8l8 8h-16zM269 620l-15 15h-28l29 -29zM325 315l-31 31h-28l42 -41 q12 6 17 10zM302 352l30 -30q7 8 11 17l-41 40v-27zM324 661l22 -22q-3 18 -14 30zM284 690h-180q-24 0 -42 -15l30 -30h202l31 31q-17 14 -41 14zM217 589l-46 46h-28l46 -46h28zM74 483l-13 13l-12 -7zM89 511l-19 -10l22 -22l38 -9zM95 545v-26l46 -46v27zM95 587v-28 l46 -46v28zM95 600l46 -45v28l-46 45v-28zM85 638l-30 30q-15 -16 -15 -42v-131l45 25v118zM102 635l45 -46h28l-45 46h-28zM185 635l45 -46h9l9 10l-36 36h-27zM240 401h-53q-23 0 -43 -15l30 -30h110zM178 255v-28l45 -45v27zM178 310l45 -45v27l-45 46v-28zM178 269 l45 -46v28l-45 45v-27zM123 184l45 46v118l-31 31q-14 -19 -14 -42v-25v-128zM132 178l-1 1l-1 -1h2zM152 200l-14 -14l8 -8h28zM172 220l-13 -13l29 -29h27z" />
<glyph unicode="@" horiz-adv-x="679" d="M649 626v-386q0 -24 -13.5 -43t-34.5 -27l-3 -1q-10 -3 -23 -3h-111q-28 0 -55 25q-12 -12 -20 -16l-3 -2q-16 -7 -29 -7h-90q-29 1 -50 22t-21 51v221q0 30 21.5 52t52.5 22h138q31 0 52.5 -22t21.5 -52v-174h46v294h-378v-459h497v-121h-543q-31 0 -52.5 22t-21.5 52 v552q0 31 21.5 52.5t52.5 21.5h471q30 0 52 -21.5t22 -52.5zM558 221l41 -41q12 6 17 11l-30 30h-28zM584 630l-46 -46v-302l46 -45v393zM639 624l-30 31l-14 -14l44 -44v27zM639 251l-46 46v-28l44 -44q2 10 2 15v11zM593 338v-28l46 -45v27zM593 380v-28l46 -46v28z M593 421v-28l46 -45v27zM593 463v-28l46 -46v28zM593 504v-28l46 -45v27zM593 546v-28l46 -46v28zM593 587v-28l46 -45v27zM593 629v-28l46 -46v28zM559 635l8 -8l9 8h-17zM560 620l-15 15h-28l29 -29zM593 255v-28l30 -30q6 6 11 18zM615 662l23 -23q-4 18 -15 30zM575 691 h-471q-24 0 -42 -16l30 -30h493l31 31q-18 15 -41 15zM216 590l-45 45h-28l46 -45h27zM212 635h-28l46 -45h28zM254 635h-28l46 -45h27zM295 635h-28l46 -45h28zM337 635h-28l46 -45h28zM379 635h-28l46 -45h28zM420 635h-27l45 -45h28zM462 635h-28l46 -45h28zM638 100v3 l-2 -2zM638 86l-9 9l-14 -14l23 -22v27zM638 45l-29 29l-14 -14l43 -43v28zM631 10l-46 46h-28l46 -46h28zM589 10l-45 46h-28l46 -46h27zM548 10l-46 46h-28l46 -46h28zM506 10l-45 46h-28l46 -46h27zM465 10l-46 46h-28l46 -46h28zM423 10l-45 46h-28l45 -46h28zM382 10 l-46 46h-28l46 -46h28zM340 10l-46 46h-28l46 -46h28zM298 10l-45 46h-28l45 -46h28zM257 10l-46 46h-28l46 -46h28zM215 10l-45 46h-28l46 -46h27zM174 10l-46 46h-28l46 -46h28zM89 12l-20 20l-3.5 -3.5t-3.5 -2.5q13 -11 27 -14zM75 39l30 -29h27l-43 43q-2 -2 -4.5 -5 t-5 -5t-4.5 -4zM140 168l-45 46v-28l45 -46v28zM95 255v-28l45 -45v27zM95 297v-28l45 -46v28zM95 338v-28l45 -45v27zM95 380v-28l45 -46v28zM95 421v-28l45 -45v27zM95 463v-28l45 -46v28zM95 504v-28l45 -45v27zM95 546v-28l45 -46v28zM95 587v-28l45 -45v27zM103 81 l-8 8v-17zM95 103l15 -15l14 13l-29 30v-28zM95 144l36 -36l9 10v8l-45 46v-28zM95 601l45 -46v28l-45 46v-28zM39 626v-552q0 -23 16 -42l30 31v575l-30 30q-16 -18 -16 -42zM586 65l46 46h-485q-1 -1 -17 -17.5t-28 -28.5h484zM102 635l45 -45h28l-46 45h-27zM476 635 l45 -45h9l10 9l-37 36h-27zM576 231l-45 45h-51l-46 -45h142zM549 175l-46 46h-28l46 -46h28zM434 221l45 -46h28l-45 46h-28zM392 221l16 -15q4 5 7 15h-23zM378 180l-41 41h-28l46 -46q11 0 23 5zM256 177l-21 21l-7 -7q12 -11 28 -14zM242 205l29 -30h28l-43 44zM473 459 l-30 29l-14 -13l44 -44v28zM417 463l-45 -46v-135l45 -46v227zM427 394l46 -46v28l-46 45v-27zM473 334l-46 46v-28l46 -46v28zM427 435l46 -46v28l-46 46v-28zM436 246l-9 9v-18zM427 269l16 -16l14 14l-30 30v-28zM427 311l37 -37l9 9v10l-46 45v-27zM394 469l7 -8l8 8 h-15zM395 454l-15 15h-29l29 -29zM373 433l-35 36h-28l45 -46h9zM362 286v127h-46v-127h46zM341 423l-45 46h-28l45 -46h28zM261 269l15 -16l14 14l-29 29v-27zM306 333l-45 46v-28l45 -46v28zM261 393l45 -46v28l-45 45v-27zM261 310l36 -36l9 9v9l-45 45v-27zM306 388v28 l-45 46v-28zM270 246l-9 9v-17zM267 221l46 -46h28l-46 46h-28zM313 276l-46 -45h142l-45 45h-51zM450 495l21 -21q-3 15 -14 28zM408 524h-138q-24 0 -42 -16l30 -30h161l31 31q-20 15 -42 15zM205 460v-221q0 -23 16 -41l30 30v243l-30 30q-16 -18 -16 -41zM351 221 l36 -36q9 5 15 13l-23 23h-28zM415 199q26 -24 49 -24h2l-42 42q-3 -9 -9 -18zM562 175h13q4 0 14 2l-44 44h-28z" />
<glyph unicode="A" d="M358 626v-626h-121v208h-87v-208h-120v626q0 31 21.5 52.5t52.5 21.5h180q30 0 52 -21.5t22 -52.5zM293 256l-46 -45v-194l46 46v193zM215 217l-45 46h-28l46 -46h27zM147 318l-45 -45h183l-46 45h-92zM49 10l-1 2l-2 -2h3zM69 32l-14 -14l8 -8h28zM89 53l-14 -14l30 -29 h27zM266 263l10 -10l10 10h-20zM293 630l-46 -46v-260l46 -46v352zM268 635l8 -8l9 8h-17zM269 620l-15 15h-28l29 -29zM248 599l-36 36h-27l45 -45h9zM237 328v252h-87v-252h87zM217 590l-46 45h-28l46 -45h28zM175 590l-46 45h-27l45 -45h28zM140 85l-45 46v-28l45 -46v28 zM95 463v-28l45 -46v28zM140 348v27l-45 46v-28zM95 504v-28l45 -45v27zM95 546v-28l45 -46v28zM95 587v-28l45 -45v27zM103 288l-8 9v-17zM95 310l15 -15l14 14l-29 29v-28zM95 352l36 -36l9 9v9l-45 46v-28zM140 555v28l-45 46v-28zM95 89v-28l45 -45v27zM95 172v-28 l45 -45v27zM95 214v-28l45 -46v28zM95 227l45 -45v27l-45 46v-28zM269 247l-16 16h-28l30 -30zM257 10l-2 2l-1 -2h3zM276 32l-14 -14l9 -8h27zM297 53l-14 -14l29 -29h28zM302 89v-28l46 -45v27zM302 131v-28l46 -46v28zM302 172v-28l46 -45v27zM302 214v-28l46 -46v28z M302 255v-28l46 -45v27zM302 297v-28l46 -46v28zM302 338v-28l46 -45v27zM302 380v-28l46 -46v28zM302 421v-28l46 -45v27zM302 463v-28l46 -46v28zM302 504v-28l46 -45v27zM302 546v-28l46 -46v28zM302 587v-28l46 -45v27zM302 629v-28l46 -46v28zM318 655l-14 -14l44 -44 v27zM332 669l-8 -7l23 -23q-5 18 -15 30zM284 691h-180q-24 0 -42 -16l30 -30h202l31 31q-18 15 -41 15zM85 638l-30 30q-16 -18 -16 -42v-609l46 46v575zM100 263l46 -46h28l-46 46h-28zM183 263l46 -46h9l10 9l-37 37h-28z" />
<glyph unicode="B" d="M358 487v-67q0 -35 -27 -57q27 -29 27 -60v-49v-180q0 -30 -22 -52t-52 -22h-254v700h254q30 0 52 -21.5t22 -52.5v-139zM85 63v575l-46 46v-667zM348 624l-30 31l-14 -14l44 -44v27zM229 300h11l8 9l-37 37h-28zM237 411v169h-87v-169h87zM285 356l-46 45h-92l-45 -45 h182h1zM142 346l46 -46h27l-45 46h-28zM140 265v27l-45 46v-28zM140 168l-45 46v-28l45 -46v28zM95 255v-28l45 -45v27zM95 297v-28l45 -46v28zM95 518l45 -46v28l-45 46v-28zM140 431v27l-45 46v-28zM140 408v9l-45 46v-28l36 -36zM110 378l14 14l-29 29v-28zM95 559 l45 -45v27l-45 46v-28zM103 371l-8 9v-17zM103 81l-8 8v-17zM95 103l15 -16l14 14l-29 30v-28zM95 144l36 -36l9 10v8l-45 46v-28zM100 346l46 -46h28l-46 46h-28zM237 121v170h-87v-170h87zM225 346l30 -30l14 14l-16 16h-28zM266 346l10 -10l10 10h-2h-18zM247 584v-177 l46 -46v269zM348 458l-46 46v-28l46 -45v27zM302 546v-28l46 -46v15v13zM302 587v-28l46 -45v27zM302 629v-28l46 -46v28zM268 635l8 -8l9 8h-17zM269 620l-15 15h-28l29 -29zM248 599l-36 36h-27l45 -45h9zM217 590l-46 45h-28l46 -45h28zM175 590l-46 45h-27l45 -45h28z M140 555v28l-45 46v-28zM49 10l-1 2l-2 -2h3zM69 32l-14 -14l8 -8h28zM89 53l-14 -14l30 -29h27zM128 56h-28l46 -46h28zM170 56h-28l46 -46h27zM211 56h-28l46 -46h28zM147 111l-45 -46h183l-46 46h-92zM325 25l-31 31h-28l41 -41q9 2 18 10zM247 294v-177l46 -46v268z M348 85l-46 46v-28l44 -44q2 10 2 15v11zM302 172v-28l46 -45v27zM302 214v-28l46 -46v28zM302 255v-28l46 -45v27zM302 297v-28l46 -46v28zM302 310l46 -45v27l-46 46v-28zM317 365l-15 15v-22q2 1 5.5 2.5t4.5 1.5t2.5 1t2.5 2zM348 417l-46 46v-28l41 -41q3 7 5 23z M324 662l23 -23q-5 18 -15 30zM294 645l31 31q-18 15 -41 15h-238l46 -46h202zM225 56l46 -46h13q2 0 6.5 0.5t6.5 0.5l-44 45h-28zM302 61l30 -29q7 8 11 17l-41 40v-28zM305 349l43 -43q-1 27 -24 51q-4 -1 -8 -4q-1 0 -5 -1.5t-6 -2.5zM302 393l23 -23q10 10 13 15 l-36 36v-28z" />
<glyph unicode="C" d="M237 121v137l121 28v-212q0 -30 -22 -52t-52 -22h-180q-31 0 -52.5 22t-21.5 52v552q0 31 21.5 52.5t52.5 21.5h180q30 0 52 -21.5t22 -52.5v-27v-115l-121 -28v124h-87v-459h87zM325 25l-31 31h-28l41 -41q9 2 18 10zM247 246v-129l46 -46v151zM256 252l41 -21l40 40z M348 85l-46 46v-28l44 -44q2 10 2 15v11zM302 172v-28l46 -45v27zM302 214v-28l46 -46v28zM319 239l-14 -14l43 -43v27zM339 260l-14 -14l23 -23v28zM348 268l-2 -2l2 -1v3zM285 65l-46 46h-92l-45 -46h183zM89 12l-20 20l-7 -6q13 -11 27 -14zM89 53l-14 -14l30 -29h27z M140 555v28l-45 46v-28zM95 103l15 -16l14 14l-29 30v-28zM95 255v-28l45 -45v27zM140 140v28l-45 46v-28zM95 297v-28l45 -46v28zM95 338v-28l45 -45v27zM95 380v-28l45 -46v28zM95 421v-28l45 -45v27zM95 463v-28l45 -46v28zM95 504v-28l45 -45v27zM95 546v-28l45 -46v28z M95 587v-28l45 -45v27zM95 144l36 -36l9 10v8l-45 46v-28zM103 81l-8 8v-17zM128 56h-28l46 -46h28zM170 56h-28l46 -46h27zM211 56h-28l46 -46h28zM102 635l45 -45h28l-46 45h-27zM217 590l-46 45h-28l46 -45h28zM185 635l45 -45h9l9 9l-36 36h-27zM348 624l-30 31l-14 -14 l44 -44v2v25zM293 630l-46 -46v-111l46 46v111zM276 489l-14 -14l3 -3l23 5zM297 509l-14 -13l16 -16l22 5zM339 489l-18 10l11 -11zM302 546v-26l46 -24v4zM302 587v-28l46 -45v27zM302 629v-28l46 -46v28zM268 635l8 -8l9 8h-17zM269 620l-15 15h-28l29 -29zM324 662 l23 -23q-5 18 -15 30zM284 691h-180q-24 0 -42 -16l30 -30h202l31 31q-18 15 -41 15zM39 626v-552q0 -23 16 -42l30 31v575l-30 30q-16 -18 -16 -42zM225 56l46 -46h13q2 0 6.5 0.5t6.5 0.5l-44 45h-28zM302 61l30 -29q7 8 11 17l-41 40v-28z" />
<glyph unicode="D" d="M30 700h254q30 0 52 -21.5t22 -52.5v-552q0 -30 -22 -52t-52 -22h-254v700zM85 63v575l-46 46v-667zM268 635l8 -8l9 8h-17zM269 620l-15 15h-28l29 -29zM248 599l-36 36h-27l45 -45h9zM237 121v459h-87v-459h87zM217 590l-46 45h-28l46 -45h28zM175 590l-46 45h-27 l45 -45h28zM95 255v-28l45 -45v27zM140 140v28l-45 46v-28zM95 297v-28l45 -46v28zM95 338v-28l45 -45v27zM95 380v-28l45 -46v28zM95 421v-28l45 -45v27zM95 463v-28l45 -46v28zM95 504v-28l45 -45v27zM95 546v-28l45 -46v28zM95 587v-28l45 -45v27zM103 81l-8 8v-17z M95 103l15 -16l14 14l-29 30v-28zM95 144l36 -36l9 10v8l-45 46v-28zM140 555v28l-45 46v-28zM49 10l-1 2l-2 -2h3zM69 32l-14 -14l8 -8h28zM89 53l-14 -14l30 -29h27zM128 56h-28l46 -46h28zM170 56h-28l46 -46h27zM211 56h-28l46 -46h28zM147 111l-45 -46h183l-46 46h-92z M325 25l-31 31h-28l41 -41q9 2 18 10zM247 584v-467l46 -46v559zM348 85l-46 46v-28l44 -44q2 10 2 15v11zM302 172v-28l46 -45v27zM302 214v-28l46 -46v28zM302 255v-28l46 -45v27zM302 297v-28l46 -46v28zM302 338v-28l46 -45v27zM302 380v-28l46 -46v28zM302 421v-28 l46 -45v27zM302 463v-28l46 -46v28zM302 504v-28l46 -45v27zM302 546v-28l46 -46v28zM302 587v-28l46 -45v27zM302 629v-28l46 -46v28zM318 655l-14 -14l44 -44v27zM332 669l-8 -7l23 -23q-5 18 -15 30zM294 645l31 31q-18 15 -41 15h-238l46 -46h202zM225 56l46 -46h13 q2 0 6.5 0.5t6.5 0.5l-44 45h-28zM302 61l30 -29q7 8 11 17l-41 40v-28z" />
<glyph unicode="E" d="M150 121h208v-121h-328v700h328v-120h-208v-169h166v-120h-166v-170zM85 638l-46 46v-667l46 46v575zM217 590l-46 45h-28l46 -45h28zM212 635h-27l45 -45h28zM254 635h-28l46 -45h28zM295 635h-27l45 -45h28zM318 655l-14 -14l44 -44v27zM338 675l-14 -13l24 -24v28z M348 685l-3 -3l3 -3v6zM92 645h202l46 46h-294zM140 168l-45 46v-28l45 -46v28zM95 255v-28l45 -45v27zM95 297v-28l45 -46v28zM140 458l-45 46v-28l45 -45v27zM95 546v-28l45 -46v28zM95 587v-28l45 -45v27zM103 81l-8 8v-17zM95 103l15 -16l14 14l-29 30v-28zM95 144 l36 -36l9 10v8l-45 46v-28zM140 265v27l-45 46v-28zM103 371l-8 9v-17zM95 393l15 -15l14 14l-29 29v-28zM95 435l36 -36l9 9v9l-45 46v-28zM95 601l45 -46v28l-45 46v-28zM49 10l-1 2l-2 -2h3zM69 32l-14 -14l8 -8h28zM89 53l-14 -14l30 -29h27zM128 56h-28l46 -46h28z M170 56h-28l46 -46h27zM211 56h-28l46 -46h28zM253 56h-28l46 -46h27zM294 56h-28l46 -46h28zM317 74l-13 -14l44 -44v27zM338 95l-14 -14l24 -24v28zM348 99v5l-3 -3zM295 65l46 46h-194l-45 -46h193zM100 346l46 -46h28l-46 46h-28zM304 392l2 -3v6zM306 375l-9 10 l-14 -14l23 -23v27zM306 334l-30 30l-14 -14l44 -44v28zM298 300l-45 46h-28l46 -46h27zM257 300l-46 46h-28l46 -46h28zM215 300l-45 46h-28l46 -46h27zM254 356l45 45h-152l-45 -45h152zM102 635l45 -45h28l-46 45h-27z" />
<glyph unicode="F" d="M358 700v-120h-208v-169h166v-120h-166v-291h-120v700h328zM39 684v-667l46 46v575zM140 458l-45 46v-28l45 -45v27zM95 546v-28l45 -46v28zM95 587v-28l45 -45v27zM49 10l-1 2l-2 -2h3zM69 32l-14 -14l8 -8h28zM89 53l-14 -14l30 -29h27zM95 89v-28l45 -45v28zM95 131 v-28l45 -46v28zM95 172v-28l45 -45v27zM95 214v-28l45 -46v28zM95 255v-28l45 -45v27zM95 297v-28l45 -46v28zM140 265v27l-45 46v-28zM103 371l-8 9v-17zM95 393l15 -15l14 14l-29 29v-28zM95 435l36 -36l9 9v9l-45 46v-28zM95 601l45 -46v28l-45 46v-28zM340 691h-294 l46 -46h202zM258 590l-46 45h-27l45 -45h28zM254 635h-28l46 -45h28zM295 635h-27l45 -45h28zM318 655l-14 -14l44 -44v27zM338 675l-14 -13l24 -24v28zM348 685l-3 -3l3 -3v6zM217 590l-46 45h-28l46 -45h28zM100 346l46 -46h28l-46 46h-28zM304 392l2 -3v6zM306 375l-9 10 l-14 -14l23 -23v27zM306 334l-30 30l-14 -14l44 -44v28zM298 300l-45 46h-28l46 -46h27zM257 300l-46 46h-28l46 -46h28zM215 300l-45 46h-28l46 -46h27zM254 356l45 45h-152l-45 -45h152zM102 635l45 -45h28l-46 45h-27z" />
<glyph unicode="G" d="M195 370h89q30 0 52 -22t22 -52v-222q0 -30 -22 -52t-52 -22h-180q-31 0 -52.5 22t-21.5 52v552q0 31 21.5 52.5t52.5 21.5h180q30 0 52 -21.5t22 -52.5v-27v-115l-121 -28v124h-87v-459h87v128h-65zM325 25l-31 31h-28l41 -41q9 2 18 10zM247 252v-135l46 -46v227z M215 259l-12 12l-11 -12h23zM202 352l-17 -85l43 42zM253 305h-16l-6 -7l24 -24l14 14zM266 305l10 -10l10 10h-20zM348 85l-46 46v-28l44 -44q2 10 2 15v11zM302 172v-28l46 -45v27zM302 214v-28l46 -46v28zM302 255v-28l46 -45v27zM302 297v-28l46 -46v28zM318 323 l-14 -14l44 -44v27zM332 338l-8 -8l23 -23q-3 17 -15 31zM295 314l31 30q-19 16 -42 16h-76l29 -46h58zM210 278l19 -19h11l8 8l-24 25zM285 65l-46 46h-92l-45 -46h183zM89 12l-20 20l-7 -6q13 -11 27 -14zM89 53l-14 -14l30 -29h27zM140 555v28l-45 46v-28zM95 103l15 -16 l14 14l-29 30v-28zM95 255v-28l45 -45v27zM140 140v28l-45 46v-28zM95 297v-28l45 -46v28zM95 338v-28l45 -45v27zM95 380v-28l45 -46v28zM95 421v-28l45 -45v27zM95 463v-28l45 -46v28zM95 504v-28l45 -45v27zM95 546v-28l45 -46v28zM95 587v-28l45 -45v27zM95 144l36 -36 l9 10v8l-45 46v-28zM103 81l-8 8v-17zM128 56h-28l46 -46h28zM170 56h-28l46 -46h27zM211 56h-28l46 -46h28zM102 635l45 -45h28l-46 45h-27zM217 590l-46 45h-28l46 -45h28zM185 635l45 -45h9l9 9l-36 36h-27zM348 624l-30 31l-14 -14l44 -44v2v25zM293 630l-46 -46v-111 l46 46v111zM276 489l-14 -14l3 -3l23 5zM297 509l-14 -13l16 -16l22 5zM339 489l-18 10l11 -11zM302 546v-26l46 -24v4zM302 587v-28l46 -45v27zM302 629v-28l46 -46v28zM268 635l8 -8l9 8h-17zM269 620l-15 15h-28l29 -29zM324 662l23 -23q-5 18 -15 30zM284 691h-180 q-24 0 -42 -16l30 -30h202l31 31q-18 15 -41 15zM39 626v-552q0 -23 16 -42l30 31v575l-30 30q-16 -18 -16 -42zM225 56l46 -46h13q2 0 6.5 0.5t6.5 0.5l-44 45h-28zM302 61l30 -29q7 8 11 17l-41 40v-28z" />
<glyph unicode="H" d="M237 700h121v-700h-121v291h-87v-291h-120v700h120v-289h87v289zM293 339l-46 -45v-277l46 46v276zM293 638l-46 46v-277l46 -46v277zM254 691l43 -43l43 43h-86zM266 346l10 -10l10 10h-20zM269 330l-16 16h-28l30 -30zM257 10l-2 2l-1 -2h3zM276 32l-14 -14l9 -8h27z M297 53l-14 -14l29 -29h28zM302 89v-28l46 -45v28zM302 131v-28l46 -46v28zM302 172v-28l46 -45v27zM302 214v-28l46 -46v28zM302 255v-28l46 -45v27zM302 297v-28l46 -46v28zM302 338v-28l46 -45v27zM302 380v-28l46 -46v28zM302 421v-28l46 -45v27zM302 463v-28l46 -46v28 zM302 504v-28l46 -45v27zM302 546v-28l46 -46v28zM302 587v-28l46 -45v27zM302 629v-28l46 -46v28zM318 655l-14 -14l44 -44v27zM338 675l-14 -13l24 -24v28zM348 685l-3 -3l3 -2v5zM285 356l-46 45h-92l-45 -45h183zM215 300l-45 46h-28l46 -46h27zM140 666l-9 9l-14 -14 l23 -23v28zM140 624l-30 31l-14 -14l44 -44v27zM140 555v28l-45 46v-28zM140 458l-45 46v-28l45 -45v27zM95 546v-28l45 -46v28zM95 587v-28l45 -45v27zM140 85l-45 46v-28l45 -46v28zM103 371l-8 9v-17zM95 393l15 -15l14 14l-29 29v-28zM95 435l36 -36l9 9v9l-45 46v-28z M140 685l-2 -3l2 -2v5zM46 691l43 -43l44 43h-87zM85 63v575l-46 46v-667zM49 10l-1 2l-2 -2h3zM69 32l-14 -14l8 -8h28zM89 53l-14 -14l30 -29h27zM95 89v-28l45 -45v28zM95 172v-28l45 -45v27zM95 214v-28l45 -46v28zM95 255v-28l45 -45v27zM95 297v-28l45 -46v28zM95 310 l45 -45v27l-45 46v-28zM101 346l45 -46h28l-46 46h-27zM183 346l46 -46h12l7 9l-37 37h-28z" />
<glyph unicode="I" horiz-adv-x="180" d="M30 0v700h120v-700h-120zM47 691l43 -43l43 43h-86zM141 85l-46 46v-28l46 -46v28zM141 292l-46 46v-28l46 -45v27zM85 63v575l-45 46v-667zM50 10l-2 2l-1 -2h3zM69 32l-14 -14l8 -8h28zM90 53l-14 -14l29 -29h28zM95 89v-28l46 -45v27zM95 172v-28l46 -45v27zM95 214 v-28l46 -46v28zM95 255v-28l46 -45v27zM95 297v-28l46 -46v28zM95 380v-28l46 -46v28zM95 421v-28l46 -45v27zM95 463v-28l46 -46v28zM95 504v-28l46 -45v27zM95 546v-28l46 -46v28zM95 587v-28l46 -45v27zM95 629v-28l46 -46v28zM110 655l-14 -14l45 -44v27zM131 675 l-14 -14l24 -23v28zM141 685l-3 -3l3 -3v6z" />
<glyph unicode="J" horiz-adv-x="389" d="M238 121v579h121v-625q0 -31 -21.5 -53t-52.5 -22h-181q-31 0 -52.5 22t-21.5 53v144l121 29v-127h87zM326 25l-31 31h-28l42 -41q8 3 17 10zM248 687v-570l46 -46v570zM349 85l-45 46v-28l44 -44q1 5 1 16v10zM304 173v-28l45 -46v28zM304 215v-28l45 -46v28zM304 256 v-28l45 -46v28zM304 298v-28l45 -46v28zM304 340v-28l45 -46v28zM304 381v-28l45 -46v28zM304 423v-28l45 -46v28zM304 465v-28l45 -46v28zM304 506v-28l45 -45v27zM304 548v-28l45 -46v28zM304 590v-28l45 -46v28zM304 631v-28l45 -45v28zM319 658l-14 -14l44 -45v28z M340 679l-14 -14l23 -24v28zM349 688l-2 -3l2 -2v5zM298 651l40 40h-80zM286 66l-46 46h-92l-46 -46h184zM90 12l-21 20l-7 -6q13 -11 28 -14zM90 53l-14 -14l29 -29h28zM95 103l15 -15l14 14l-29 29v-28zM141 210l-10 10l-14 -14l24 -24v28zM141 169l-31 30l-13 -14l44 -44 v28zM95 145l36 -36l10 9v9l-46 46v-28zM138 227l3 -3v6zM48 214l41 -22l41 41zM104 81l-9 9v-17zM129 56h-28l46 -46h28zM170 56h-28l46 -46h28zM212 56h-28l46 -46h28zM85 183l-45 24v-132q0 -25 15 -42l30 30v120zM226 56l46 -46h13q2 0 6.5 0.5t6.5 0.5l-44 45h-28z M304 62l29 -30q5 5 11 17l-40 41v-28z" />
<glyph unicode="K" horiz-adv-x="403" d="M373 700l-112 -349l112 -351h-121l-1 4l-90 287h-11v-291h-120v700h120v-289h9l92 289h122zM283 108l15 -45l60 -46l-8 24zM146 300h14l5 9l-36 36h-28zM219 393l34 -34l7 21l-34 34zM236 445l-7 -21l34 -34l7 21zM246 477l-7 -21l35 -34l6 21zM256 508l-6 -21l34 -34 l6 21zM266 540l-6 -21l34 -35l6 22zM276 571l-6 -21l34 -34l7 21zM287 602l-7 -21l34 -34l7 21zM297 634l-7 -21l34 -34l7 21zM319 653l-16 -12l31 -31l7 21zM342 671l-16 -12l18 -18l7 22zM358 683l-8 -6l4 -4zM264 690l31 -43l56 43h-87zM199 360l89 280l-32 45l-88 -279z M191 355l-32 46h-12l-46 -46h90zM140 666l-9 9l-14 -14l23 -23v28zM140 624l-30 30l-14 -14l44 -44v28zM140 555v28l-45 45v-28zM95 435l36 -37l9 10v9l-45 45v-27zM103 371l-8 8v-17zM95 393l15 -15l14 14l-29 29v-28zM95 504v-28l45 -46v28zM95 545v-28l45 -45v28zM95 587 v-28l45 -46v28zM140 85l-45 45v-27l45 -46v28zM140 685l-2 -3l2 -3v6zM46 690l43 -43l44 43h-87zM85 62v576l-46 46v-667zM49 10l-1 1l-2 -1h3zM69 32l-14 -14l8 -8h28zM89 53l-14 -14l30 -29h27zM95 89v-28l45 -45v27zM95 172v-28l45 -45v27zM95 213v-27l45 -46v28zM95 255 v-28l45 -46v28zM95 296v-27l45 -46v28zM95 338v-28l45 -46v28zM143 345l28 -28l11 17l-12 11h-27zM184 345l3 -3l3 3h-6zM272 285l-66 66v-1l12 -39l67 -67zM304 183l-13 41l-66 67l13 -41zM324 123l-13 40l-67 67l13 -41zM343 62l-13 40l-66 67l13 -41zM209 362l56 -57 l-13 41l-36 37zM198 341l-29 -45l89 -281l30 45zM298 10l-19 19l-13 -19h32zM284 37l28 -27h39l-56 43z" />
<glyph unicode="L" horiz-adv-x="347" d="M150 121h167v-121h-287v700h120v-579zM140 666l-9 9l-14 -13l23 -24v28zM140 624l-30 31l-14 -14l44 -44v27zM140 555v28l-45 46v-28zM140 168l-45 46v-28l45 -46v28zM95 255v-28l45 -45v27zM95 297v-28l45 -46v28zM95 338v-28l45 -45v27zM95 380v-28l45 -46v28zM95 421 v-28l45 -45v27zM95 463v-28l45 -46v28zM95 504v-28l45 -45v27zM95 546v-28l45 -46v28zM95 587v-28l45 -45v27zM103 81l-8 8v-17zM95 103l15 -16l14 14l-29 30v-28zM95 144l36 -36l9 10v8l-45 46v-28zM138 682l2 -2v5zM46 691l43 -43l43 43h-86zM85 63v575l-46 46v-667z M49 10l-1 2l-2 -2h3zM69 32l-14 -14l8 -8h28zM89 53l-14 -14l30 -29h27zM128 56h-28l46 -46h28zM170 56h-28l46 -46h27zM211 56h-28l46 -46h28zM253 56h-28l46 -46h28zM276 74l-13 -14l44 -44v27zM297 95l-14 -14l24 -24v28zM307 99v5l-3 -3zM254 65l46 46h-153l-45 -46h152 z" />
<glyph unicode="M" horiz-adv-x="512" d="M256 362l107 338h119v-700h-120v344l-48 -178h-117l-47 178v-344h-120v700h119zM265 176l-26 26l-14 -14l12 -12h28zM223 176l-5 5l-5 -5h10zM100 644l4 -12h1l81 -81l-13 41l-63 63zM140 85l-45 46v-28l45 -46v28zM140 292l-45 46v-28l45 -45v27zM98 597l-3 17v-13z M131 675l-14 -14l50 -49l-13 40zM143 687l-5 -5l9 -10zM46 691l43 -43l44 43h-87zM85 63v575l-46 46v-667zM49 10l-1 2l-2 -2h3zM69 32l-14 -14l8 -8h28zM89 53l-14 -14l30 -29h27zM95 89v-28l45 -45v27zM95 172v-28l45 -45v27zM95 214v-28l45 -46v28zM95 255v-28l45 -45v27 zM95 297v-28l45 -46v28zM95 380v-28l45 -46v28zM95 421v-28l45 -45v28zM95 463v-28l43 -44l-6 35zM95 504v-28l33 -33l-6 34zM95 546v-28l23 -24l-7 35zM95 587v-28l13 -13l-7 34zM205 490l-13 41l-80 80l16 -44zM224 430l-13 40l-75 76l16 -44zM244 369l-13 41l-71 70 l16 -44zM251 345l-1 4l-66 66l16 -44l51 -51v25zM251 278v28l-43 43l16 -44zM251 232v33l-19 19zM275 242l-8 -20l41 -42l6 22zM286 273l-8 -21l39 -39l6 22zM297 303l-8 -20l37 -37l5 22zM308 334l-8 -21l34 -34l6 22zM319 364l-8 -20l32 -32l6 21zM330 395l-8 -21l30 -30 l6 22zM341 425l-8 -20l27 -28l5 23zM378 691l43 -43l43 43h-86zM399 588l2 -3l4 20zM399 574l-4 4l-7 -21l7 -7zM392 539l-7 8l-8 -20l11 -11zM386 504l-12 13l-8 -21l15 -15zM379 469l-16 17l-8 -20l19 -20zM372 435l-20 21l-8 -21l23 -23zM417 614l-46 -233v-364l46 46 v551zM381 10l-1 2l-2 -2h3zM400 32l-13 -14l8 -8h28zM421 53l-14 -14l29 -29h28zM427 89v-28l45 -45v27zM427 131v-28l45 -46v28zM427 172v-28l45 -45v27zM427 214v-28l45 -46v28zM427 255v-28l45 -45v27zM427 297v-28l45 -46v28zM427 338v-28l45 -45v27zM427 380v-28 l45 -46v28zM427 421v-28l45 -45v27zM427 463v-28l45 -46v28zM427 504v-28l45 -45v27zM427 546v-28l45 -46v28zM427 587v-28l45 -45v27zM427 629v-28l45 -46v28zM442 655l-14 -14l44 -44v27zM463 675l-14 -13l23 -24v28zM472 685l-2 -3l2 -3v6zM410 646l-41 40l-108 -341 v-113zM109 591l41 -209l54 -202l41 41zM256 219l-10 -10l32 -33h21l-42 43h-1z" />
<glyph unicode="N" d="M237 700h121v-700h-120l-88 306v-306h-120v700h119l88 -287v287zM257 10l-2 2l-1 -2h3zM276 32l-14 -14l9 -8h27zM297 53l-14 -14l29 -29h28zM254 691l43 -43l43 43h-86zM293 114v524l-46 46v-303zM191 380l56 -56l-6 34l-63 63zM255 274l-5 34l-52 52l13 -41zM264 224 l-6 34l-41 40l14 -41zM273 174l-6 34l-30 29l13 -41zM281 124l-6 33l-18 19l13 -41zM289 76l-5 31l-7 8zM302 89v-28l46 -45v27zM302 131v-28l46 -46v28zM302 172v-28l46 -45v27zM302 214v-28l46 -46v28zM302 255v-28l46 -45v27zM302 297v-28l46 -46v28zM302 338v-28l46 -45 v27zM302 380v-28l46 -46v28zM302 421v-28l46 -45v27zM302 463v-28l46 -46v28zM302 504v-28l46 -45v27zM302 546v-28l46 -46v28zM302 587v-28l46 -45v27zM302 629v-28l46 -46v28zM318 655l-14 -14l44 -44v27zM338 675l-14 -13l24 -24v28zM348 685l-3 -3l3 -3v6zM238 374l-1 5 l-10 34l-69 69l13 -41zM153 653l-22 22l-14 -14l49 -48zM143 687l-5 -5l9 -9zM46 691l43 -43l44 43h-87zM140 85l-45 46v-28l45 -46v28zM140 292l-45 46v-28l45 -45v27zM85 63v575l-46 46v-667zM49 10l-1 2l-2 -2h3zM69 32l-14 -14l8 -8h28zM89 53l-14 -14l30 -29h27zM95 89 v-28l45 -45v27zM95 172v-28l45 -45v27zM95 214v-28l45 -46v28zM95 255v-28l45 -45v27zM95 297v-28l45 -46v28zM95 380v-28l45 -46v28zM95 421v-28l44 -44l-6 34zM95 463v-28l35 -36l-5 34zM95 504v-28l27 -27l-6 34zM95 546v-28l19 -19l-6 33zM95 587v-28l10 -10l-6 33z M95 610v-9l2 -2zM172 593l-62 62l-6 -6l8 -24l72 -72zM203 493l-13 40l-72 72l14 -41zM221 433l-12 40l-71 71l13 -41zM102 623l48 -283l94 -326l42 42z" />
<glyph unicode="O" d="M104 700h180q30 0 52 -21.5t22 -52.5v-552q0 -30 -22 -52t-52 -22h-180q-31 0 -52.5 22t-21.5 52v552q0 31 21.5 52.5t52.5 21.5zM89 12l-20 20l-7 -6q13 -11 27 -14zM89 53l-14 -14l30 -29h27zM268 635l8 -8l9 8h-17zM269 620l-15 15h-28l29 -29zM248 599l-36 36h-27 l45 -45h9zM237 121v459h-87v-459h87zM217 590l-46 45h-28l46 -45h28zM175 590l-46 45h-27l45 -45h28zM95 103l15 -16l14 14l-29 30v-28zM95 255v-28l45 -45v27zM140 140v28l-45 46v-28zM95 297v-28l45 -46v28zM95 338v-28l45 -45v27zM95 380v-28l45 -46v28zM95 421v-28 l45 -45v27zM95 463v-28l45 -46v28zM95 504v-28l45 -45v27zM95 546v-28l45 -46v28zM95 587v-28l45 -45v27zM95 144l36 -36l9 10v8l-45 46v-28zM140 555v28l-45 46v-28zM103 81l-8 8v-17zM128 56h-28l46 -46h28zM170 56h-28l46 -46h27zM211 56h-28l46 -46h28zM147 111l-45 -46 h183l-46 46h-92zM325 25l-31 31h-28l41 -41q9 2 18 10zM247 584v-467l46 -46v559zM348 85l-46 46v-28l44 -44q2 10 2 15v11zM302 172v-28l46 -45v27zM302 214v-28l46 -46v28zM302 255v-28l46 -45v27zM302 297v-28l46 -46v28zM302 338v-28l46 -45v27zM302 380v-28l46 -46v28z M302 421v-28l46 -45v27zM302 463v-28l46 -46v28zM302 504v-28l46 -45v27zM302 546v-28l46 -46v28zM302 587v-28l46 -45v27zM302 629v-28l46 -46v28zM318 655l-14 -14l44 -44v27zM332 669l-8 -7l23 -23q-5 18 -15 30zM284 691h-180q-24 0 -42 -16l30 -30h202l31 31 q-18 15 -41 15zM39 626v-552q0 -23 16 -42l30 31v575l-30 30q-16 -18 -16 -42zM225 56l46 -46h13q2 0 6.5 0.5t6.5 0.5l-44 45h-28zM302 61l30 -29q7 8 11 17l-41 40v-28z" />
<glyph unicode="P" d="M358 626v-261q0 -31 -22 -52.5t-52 -21.5h-134v-291h-120v700h254q30 0 52 -21.5t22 -52.5zM266 346l41 -41q12 5 18 10l-31 31h-28zM215 300l-45 46h-28l46 -46h27zM211 346h-28l46 -46h28zM102 356h183l-46 45h-92zM85 638l-46 46v-667l46 46v575zM268 635l8 -8l9 8 h-17zM269 620l-15 15h-28l29 -29zM248 599l-36 36h-27l45 -45h9zM237 411v169h-87v-169h87zM217 590l-46 45h-28l46 -45h28zM175 590l-46 45h-27l45 -45h28zM140 99v27l-45 46v-28zM95 546v-28l45 -46v28zM140 431v27l-45 46v-28zM95 587v-28l45 -45v27zM140 85l-45 46v-28 l45 -46v28zM103 371l-8 9v-17zM95 393l15 -15l14 14l-29 29v-28zM95 435l36 -36l9 9v9l-45 46v-28zM140 555v28l-45 46v-28zM49 10l-1 2l-2 -2h3zM69 32l-14 -14l8 -8h28zM89 53l-14 -14l30 -29h27zM95 89v-28l45 -45v27zM95 214v-28l45 -46v28zM95 255v-28l45 -45v27z M95 297v-28l45 -46v28zM140 265v27l-45 46v-28zM247 584v-177l46 -46v269zM348 375l-46 46v-28l44 -44q2 10 2 16v10zM302 463v-28l46 -46v28zM302 504v-28l46 -45v27zM302 546v-28l46 -46v28zM302 587v-28l46 -45v27zM302 629v-28l46 -46v28zM318 655l-14 -14l44 -44v27z M332 669l-8 -7l23 -23q-5 18 -15 30zM294 645l31 31q-18 15 -41 15h-238l46 -46h202zM100 346l46 -46h28l-46 46h-28zM225 346l46 -46h13q5 0 13 2l-44 44h-28zM302 352l30 -30q7 8 11 17l-41 41v-28z" />
<glyph unicode="Q" horiz-adv-x="390" d="M103 700h181q31 0 53 -21.5t22 -51.5v-553q0 -31 -22 -52.5t-53 -21.5h-10v-84h-120v84h-51q-30 0 -51.5 21.5t-21.5 52.5v553q0 30 21.5 51.5t51.5 21.5zM89 11l-20 22l-8 -7q12 -12 28 -15zM89 53l-13 -13l29 -31h27zM267 636l9 -8l8 8h-17zM270 620l-16 16h-28l29 -30 zM248 599l-36 37h-27l46 -47h8zM237 120v460h-87v-460h87zM217 589l-46 47h-28l46 -47h28zM176 589l-46 47h-29l47 -47h28zM94 103l16 -16l14 14l-30 29v-27zM94 254v-26l47 -47v28zM141 140v28l-47 45v-28zM94 297v-28l47 -46v28zM94 338v-28l47 -46v28zM94 379v-27l47 -46 v27zM94 421v-28l47 -46v28zM94 463v-28l47 -47v29zM94 504v-28l47 -45v27zM94 545v-27l47 -46v27zM94 587v-28l47 -46v28zM94 144l37 -37l10 11v9l-47 44v-27zM141 554v28l-47 47v-29zM102 81l-8 8v-17zM129 55h-29l47 -46h11l8 9zM184 55l10 -10l9 10h-19zM187 40l-17 15 h-28l30 -30zM209 49l-45 -47v-69l45 45v71zM176 -74l-4 3l-2 -3h6zM194 -51l-15 -14l9 -9h29zM213 -30l-12 -15l28 -29h29zM219 7v-29l45 -45v28zM219 20l45 -46v28l-45 47v-29zM148 110l-47 -45h183l-45 45h-91zM326 25l-32 30h-28l41 -40q11 3 19 10zM247 583v-466l46 -46 v559zM349 86l-47 44v-27l45 -45q0 2 1 7.5t1 8.5v12zM302 171v-27l47 -46v29zM302 213v-28l47 -45v28zM302 254v-26l47 -47v28zM302 297v-28l47 -46v28zM302 338v-28l47 -46v28zM302 379v-27l47 -46v27zM302 421v-28l47 -46v28zM302 463v-28l47 -47v29zM302 504v-28l47 -45 v27zM302 545v-27l47 -46v27zM302 587v-28l47 -46v28zM302 629v-29l47 -46v28zM318 654l-15 -13l46 -45v28zM333 669l-8 -8l22 -21q-2 14 -14 29zM284 690h-181q-19 0 -42 -14l31 -31h202l32 31q-21 14 -42 14zM40 627v-553q0 -22 14 -41l31 29v576l-31 31q-14 -19 -14 -42z M225 55l46 -46h13q6 0 12 2l-44 44h-27zM302 62l31 -30q9 12 11 17l-42 40v-27z" />
<glyph unicode="R" horiz-adv-x="395" d="M365 0h-120l-49 291h-46v-291h-120v700h254q30 0 51.5 -21.5t21.5 -52.5v-262q0 -47 -42 -66zM188 300h10l8 10l-36 36h-28zM39 683v-666l46 45v576zM348 624l-31 30l-13 -14l44 -44v28zM306 298l-55 46l5 -30l56 -56zM264 346l47 -40q10 6 14 9l-31 31h-28h-2zM292 629 l-45 -45v-177l45 -46v268zM348 375l-46 46v-28l44 -44q2 10 2 15v11zM302 462v-28l46 -45v28zM302 504v-28l46 -46v28zM302 545v-28l46 -45v28zM302 587v-28l46 -46v28zM302 628v-28l46 -45v27zM268 635l8 -9l8 9h-16zM269 620l-15 15h-28l29 -29zM248 599l-36 36h-27 l45 -46h9zM237 411v169h-87v-169h87zM217 589l-46 46h-28l46 -46h28zM175 589l-46 46h-27l45 -46h28zM95 545v-28l45 -45v28zM140 430v28l-45 46v-28zM95 587v-28l45 -46v28zM140 85l-45 45v-27l45 -46v28zM95 172v-28l45 -46v28zM103 371l-8 8v-17zM95 393l15 -15l14 14 l-29 29v-28zM95 434l36 -36l9 10v9l-45 45v-28zM140 555v27l-45 46v-28zM49 10l-1 2l-2 -2h3zM69 32l-14 -14l8 -8h28zM89 53l-14 -14l30 -29h27zM95 89v-28l45 -45v27zM95 213v-27l45 -46v28zM95 255v-28l45 -46v28zM95 296v-27l45 -46v28zM140 264v28l-45 46v-28zM239 401 h-92l-45 -45h182zM183 346l29 -28l12 15l-13 13h-28zM225 346l5 -5l4 5h-9zM321 209l-6 33l-56 56l6 -34zM329 159l-6 33l-55 56l6 -34zM337 109l-5 33l-55 55l5 -33zM346 59l-6 34l-55 54l6 -33zM353 16l-5 27l-54 54l6 -34zM345 10l-48 43l-13 -15l28 -28h33zM302 352 l30 -30q7 9 10 17l-40 40v-27zM324 661l22 -22q-3 16 -14 30zM294 645l31 30q-17 15 -41 15h-238l46 -45h202zM100 346l46 -46h28l-46 46h-28zM242 341l-36 -47l46 -278l39 44zM265 16l5 -6h28l-20 21z" />
<glyph unicode="S" d="M150 411h134q30 0 52 -21.5t22 -52.5v-263q0 -30 -22 -52t-52 -22h-180q-31 0 -52.5 22t-21.5 52v144l120 28v-125h87v170h-133q-31 0 -52.5 21.5t-21.5 52.5v261q0 31 21.5 52.5t52.5 21.5h180q30 0 52 -21.5t22 -52.5v-142l-121 -28v124h-87v-169zM325 25l-31 31h-28 l41 -41q9 2 18 10zM247 294v-177l46 -46v268zM266 346l10 -10l10 10h-20zM269 330l-16 16h-28l30 -30zM348 85l-46 46v-28l44 -44q2 10 2 15v11zM302 172v-28l46 -45v27zM302 214v-28l46 -46v28zM302 255v-28l46 -45v27zM302 297v-28l46 -46v28zM302 338v-28l46 -45v27z M318 364l-14 -14l44 -44v28zM332 379l-8 -8l23 -22q-3 18 -15 30zM284 401h-137l-45 -45h193l31 30q-18 15 -42 15zM89 302l-20 21l-7 -7q13 -11 27 -14zM89 344l-14 -14l30 -30h27zM140 555v28l-45 46v-28zM95 393l15 -15l14 14l-29 29v-28zM95 546v-28l45 -46v28zM140 431 v27l-45 46v-28zM95 587v-28l45 -45v27zM95 435l36 -36l9 9v9l-45 46v-28zM103 371l-8 9v-17zM128 346h-28l46 -46h28zM170 346h-28l46 -46h27zM102 635l45 -45h28l-46 45h-27zM217 590l-46 45h-28l46 -45h28zM185 635l45 -45h9l9 9l-36 36h-27zM348 624l-30 31l-14 -14 l44 -44v2v25zM293 630l-46 -46v-111l46 46v111zM276 489l-14 -14l3 -3l23 5zM297 509l-14 -13l16 -16l22 5zM339 489l-18 10l11 -11zM302 546v-26l46 -24v4zM302 587v-28l46 -45v27zM302 629v-28l46 -46v28zM268 635l8 -8l9 8h-17zM269 620l-15 15h-28l29 -29zM324 662 l23 -23q-5 18 -15 30zM284 691h-180q-24 0 -42 -16l30 -30h202l31 31q-18 15 -41 15zM39 626v-261q0 -24 16 -42l30 30v285l-30 30q-16 -18 -16 -42zM183 346l46 -46h11l8 9l-37 37h-28zM285 65l-46 46h-92l-45 -46h183zM89 12l-20 20l-7 -6q13 -11 27 -14zM89 53l-14 -14 l30 -29h27zM95 103l15 -16l14 14l-29 30v-28zM140 209l-9 10l-14 -14l23 -23v27zM140 168l-30 30l-14 -14l44 -44v28zM95 144l36 -36l9 10v8l-45 46v-28zM138 226l2 -3v6zM48 213l41 -22l41 41zM103 81l-8 8v-17zM128 56h-28l46 -46h28zM170 56h-28l46 -46h27zM211 56h-28 l46 -46h28zM85 182l-46 24v-132q0 -23 16 -42l30 31v119zM225 56l46 -46h13q2 0 6.5 0.5t6.5 0.5l-44 45h-28zM302 61l30 -29q7 8 11 17l-41 40v-28z" />
<glyph unicode="T" horiz-adv-x="430" d="M399 580h-124v-580h-121v580h-124v120h369v-120zM210 630l-46 -46v-567l46 46v567zM265 458l-46 46v-28l46 -45v27zM219 546v-28l46 -46v28zM265 417l-46 46v-28l46 -46v28zM219 559l46 -45v27l-46 46v-28zM185 635l8 -8l9 8h-17zM172 606l14 14l-15 15h-28zM174 10l-2 2 l-1 -2h3zM193 32l-14 -14l9 -8h27zM214 53l-14 -14l29 -29h28zM219 89v-28l46 -45v28zM219 131v-28l46 -46v28zM219 172v-28l46 -45v27zM219 214v-28l46 -46v28zM219 255v-28l46 -45v27zM219 297v-28l46 -46v28zM219 338v-28l46 -45v27zM219 380v-28l46 -46v28zM219 421v-28 l46 -45v27zM219 601l46 -46v28l-46 46v-28zM92 645h244l45 46h-335zM39 598l44 43l-44 43v-86zM51 590l-3 2l-3 -2h6zM69 613l-14 -14l9 -9h28zM89 634l-14 -14l31 -30h28zM383 590l-46 45h-28l46 -45h28zM359 655l-14 -14l44 -44v27zM380 675l-14 -13l23 -24v28zM389 685 l-2 -3l2 -3v6zM341 590l-46 45h-27l45 -45h28zM102 635l45 -45h9l9 9l-36 36h-27zM226 635l46 -45h28l-46 45h-28z" />
<glyph unicode="U" d="M237 700h121v-626q0 -30 -22 -52t-52 -22h-180q-31 0 -52.5 22t-21.5 52v626h120v-579h87v579zM325 25l-31 31h-28l41 -41q9 2 18 10zM247 684v-567l46 -46v567zM348 666l-10 9l-14 -14l24 -23v28zM345 682l3 -3v6zM254 691l43 -43l43 43h-86zM348 85l-46 46v-28l44 -44 q2 10 2 15v11zM302 172v-28l46 -45v27zM302 214v-28l46 -46v28zM302 255v-28l46 -45v27zM302 297v-28l46 -46v28zM302 338v-28l46 -45v27zM302 380v-28l46 -46v28zM302 421v-28l46 -45v27zM302 463v-28l46 -46v28zM302 504v-28l46 -45v27zM302 545v-27l46 -46v28zM302 587 v-28l46 -45v27zM302 628v-27l46 -46v28zM318 655l-14 -14l44 -45v28zM285 65l-46 46h-92l-45 -46h183zM89 12l-20 20l-7 -6q13 -11 27 -14zM89 53l-14 -14l30 -29h27zM95 103l15 -16l14 14l-29 30v-28zM95 255v-28l45 -45v27zM140 140v28l-45 46v-28zM95 297v-28l45 -46v28z M95 338v-28l45 -45v27zM95 380v-28l45 -46v28zM95 421v-28l45 -45v27zM95 463v-28l45 -46v28zM95 504v-28l45 -45v27zM95 545v-27l45 -46v28zM95 587v-28l45 -45v27zM95 144l36 -36l9 10v8l-45 46v-28zM140 666l-9 9l-14 -14l23 -23v28zM140 624l-30 31l-14 -14l44 -44v27z M138 682l2 -3v6zM46 691l43 -43l43 43h-86zM140 555v28l-45 45v-27zM103 81l-8 8v-17zM128 56h-28l46 -46h28zM170 56h-28l46 -46h27zM211 56h-28l46 -46h28zM85 638l-46 46v-610q0 -23 16 -42l30 31v575zM225 56l46 -46h13q2 0 6.5 0.5t6.5 0.5l-44 45h-28zM302 61l30 -29 q7 8 11 17l-41 40v-28z" />
<glyph unicode="V" horiz-adv-x="389" d="M238 700h121l-47 -700h-235l-47 700h121l37 -579h13zM112 31l-13 -14l6 -7h28zM132 53l-13 -15l28 -28h28zM146 619l-35 36l-14 -14l51 -51zM132 675l-14 -14l27 -27l-2 30zM142 686l-3 -4l3 -4v8zM47 691l43 -43l43 43h-86zM151 545l-2 30l-52 53l2 -30zM154 501l-2 30 l-52 52l2 -30zM158 442l-52 51l2 -29l52 -52zM162 368l-2 30l-51 51l3 -30zM165 324l-2 29l-50 51l2 -30zM168 279l-2 30l-50 50l2 -30zM171 235l-2 30l-50 50l2 -30zM174 191l-2 29l-50 50l2 -30zM177 146l-2 30l-50 49l3 -30zM179 118l-1 14l-49 49l2 -30l40 -41zM152 88 l13 15l-33 33l2 -30zM136 72l9 9l-10 10zM171 56h-28l45 -46h28zM212 56h-28l46 -46h28zM254 56h-28l45 -46h25zM264 87l-2 -26l42 -45l2 29zM266 126l-2 -26l43 -42l1 26zM269 165l-2 -26l42 -42l2 26zM270 177l42 -41l1 26l-41 41zM275 242l-2 -26l41 -41l2 26zM277 281 l-1 -26l41 -42l2 27zM280 320l-2 -26l41 -42l2 26zM283 358l-2 -26l41 -41l2 26zM286 397l-2 -26l41 -41l1 26zM287 410l40 -41l2 26l-41 41zM291 474l-2 -26l41 -40l1 26zM292 487l40 -40l2 26l-40 40zM297 552l-2 -26l40 -40l2 26zM299 591l-1 -26l39 -40l2 26zM302 629 l-2 -26l40 -39l2 26zM318 655l-13 -14l38 -38l1 26zM339 675l-14 -14l20 -19l2 26zM255 691l43 -43l43 43h-86zM293 638l-46 46l-37 -568l43 -45zM245 65l-43 46h-16l-43 -46h102zM103 538l2 -30l52 -51l-2 29zM86 638l-45 45l44 -666l42 45zM348 684l-2 -2l2 -2v4z" />
<glyph unicode="W" horiz-adv-x="616" d="M456 121l9 579h121l-19 -700h-228l-31 289l-31 -289h-229l-18 700h120l10 -579h13l75 579h119l77 -579h12zM370 28l-13 -15l3 -3h28zM390 50l-13 -15l25 -25h28zM98 10l-18 18l-16 -18h34zM100 49l-14 -14l25 -25h28zM148 250l-45 46v-29l45 -45v28zM146 335l-46 46 l1 -29l46 -45zM142 588l-48 48l1 -28l48 -48zM113 658l-14 -14l43 -42l-1 28zM134 679l-14 -14l21 -21v28zM46 691l43 -44l43 44h-86zM143 517v29l-48 47l1 -28zM144 475l-1 29l-47 47l1 -29zM145 433l-1 28l-47 47l1 -28zM145 391v28l-47 47l1 -29zM146 349v28l-47 46 l1 -28zM147 264v29l-46 45l1 -28zM149 180l-1 28l-44 45v-29zM150 138l-1 28l-44 44v-28zM150 118v6l-44 44v-29l33 -33zM120 85l13 14l-26 26l1 -28zM113 78l-5 5v-10zM135 56h-28l46 -46h28zM176 56h-27l45 -46h28zM221 56h-31l46 -46h25zM327 652l-10 -9l1 -10l56 -56 l-5 33zM348 673l-14 -14l33 -34l-4 32zM359 685l-5 -5l7 -7zM265 691l42 -44l45 44h-87zM302 483v28l-12 12l-3 -25zM295 559l-3 -24l10 -11v28zM303 441l-1 28l-17 17l-3 -24zM303 400v27l-23 23l-3 -25zM303 358v28l-28 27l-3 -24zM303 614l-6 -43l5 -5zM230 86l-4 -22 l43 -48l3 28zM235 122l-4 -24l42 -42l3 25zM240 158l-4 -24l41 -41l3 25zM245 195l-4 -25l40 -39l3 25zM250 231l-4 -24l39 -39l3 25zM255 268l-4 -25l38 -37l3 25zM260 304l-3 -24l36 -37l3 25zM265 341l-3 -25l35 -35l3 25zM270 377l-3 -24l34 -35l2 16v10zM380 530l-4 32 l-56 55l5 -32zM386 482l-4 32l-55 55l5 -33zM393 434l-5 32l-54 54l5 -32zM399 386l-4 32l-54 54l4 -32zM405 338l-4 32l-53 54l4 -33zM412 291l-5 32l-53 53l5 -33zM418 243l-4 32l-53 52l5 -32zM424 195l-4 32l-52 52l5 -32zM431 147l-5 32l-51 52l4 -33zM435 116l-2 15 l-51 51l4 -32l42 -42zM408 86l13 15l-32 33l4 -32zM397 73l5 6l-7 7zM426 56h-28l45 -46h28l-46 46h1zM467 56h-28l46 -46h28zM509 56h-28l45 -46h26zM483 691l43 -44l44 44h-87zM575 653l-15 15l-14 -14l28 -28zM570 451l-43 42v-27l42 -42zM517 88l-1 -26l42 -45l1 30z M518 129l-1 -27l42 -42l1 27zM519 169l-1 -27l42 -42l1 27zM520 210v-27l41 -42l1 27zM521 250v-27l42 -42v27zM522 291v-27l42 -42v27zM523 331v-27l42 -42v27zM524 372v-27l42 -43v28zM525 412v-27l42 -42v27zM526 453v-27l42 -43v28zM528 534v-28l42 -42l1 27zM529 574 v-27l42 -42l1 27zM530 615v-28l42 -42l1 27zM531 638v-10l42 -42l1 27l-34 34zM576 683l-9 -9l8 -8zM521 639l-46 46l-10 -567l42 -45zM501 65l-43 46h-15l-40 -46h98zM297 643l-41 43l-74 -571l36 -42zM212 65l-40 46h-15l-42 -46h97zM84 638l-44 45l17 -666l42 45z M311 614l1 -280l35 -318l42 48z" />
<glyph unicode="X" horiz-adv-x="419" d="M263 700h126l-109 -349l109 -351h-125l-54 188l-55 -188h-125l109 351l-109 349h126l54 -182zM234 397l38 -38l7 21l-38 38zM229 319l74 -73l-13 40l-69 70l-2 -6zM295 33l-12 -16l7 -7h27zM310 53l-9 -12l30 -31h36zM296 115l17 -52l61 -46l-9 28zM276 176l13 -41 l70 -70l-13 40zM256 237l13 -41l71 -71l-12 41zM236 299l13 -41l72 -72l-12 40zM214 500v-133l89 273l-34 45zM195 173l-32 33l-7 -21l33 -33zM173 237l-6 -21l31 -32l7 22zM128 656l-12 -16l68 -68l-12 40zM146 679l-12 -16l32 -32l-11 39zM52 691l57 -44l34 44h-91z M201 514l-12 39l-66 67l13 -42zM205 468v28l-62 62l13 -41zM205 427v28l-42 42l13 -42zM205 385v28l-22 22l13 -41zM205 367v5l-2 2zM205 289l-11 11l-7 -21l18 -18v28zM205 334l-8 -24l8 -8v32zM205 247l-21 21l-7 -21l28 -28v28zM289 412l-38 37l-6 -21l37 -37zM262 481 l-7 -21l37 -38l7 21zM272 512l-7 -21l37 -37l7 21zM282 543l-7 -21l37 -36l7 21zM292 575l-7 -21l37 -37l6 21zM302 606l-7 -21l37 -36l6 21zM312 637l-6 -21l36 -36l6 21zM336 655l-16 -12l32 -31l6 21zM360 673l-16 -12l17 -18l7 22zM374 684l-6 -5l3 -4zM276 691l34 -44 l57 44h-91zM107 637l-62 47l104 -333l-104 -334l62 46l93 287zM110 10l-25 25l-16 -12l13 -13h28zM109 53l-16 -12l31 -31h17zM68 10l-6 7l-10 -7h16zM116 60l33 -45l9 30l-36 35zM133 112l-7 -21l35 -35l6 21zM143 143l-7 -21l34 -34l7 21zM153 174l-7 -21l34 -33l6 21z M214 334v-128l56 -190l33 44zM224 366l60 -60l-13 41l-40 40z" />
<glyph unicode="Y" horiz-adv-x="411" d="M206 492l53 208h122l-115 -405v-295h-121v295l-115 405h122zM165 10l-2 2l-1 -2h3zM184 32l-14 -14l9 -8h27zM205 53l-14 -14l29 -29h28zM158 640l-26 26l-12 -16l47 -48zM146 685l-8 -12l15 -15zM51 691l54 -43l34 43h-88zM172 584l-58 58l-2 -2l10 -34l60 -60zM196 491 l-10 37l-58 58l12 -40zM272 691l34 -43l54 43h-88zM210 348l89 292l-34 45l-55 -213v-124zM201 444v28l-55 55l12 -40zM201 403v28l-37 36l13 -40zM201 348v41l-18 18zM210 89v-28l46 -45v27zM210 131v-28l46 -46v28zM210 172v-28l46 -45v27zM210 214v-28l46 -46v28z M210 255v-28l46 -46v28zM210 297v-28l46 -46v28zM210 315v-5l46 -46v28l-40 41zM226 364l-7 -21l39 -39l7 21zM235 396l-6 -21l39 -39l6 22zM245 428l-7 -21l39 -39l6 22zM255 460l-7 -21l38 -38l6 21zM264 492l-6 -22l37 -37l6 22zM274 523l-7 -21l37 -37l6 22zM284 555 l-7 -21l36 -36l7 22zM293 587l-6 -21l36 -36l6 22zM302 617l-6 -19l36 -36l6 22zM309 637l-4 -10l36 -33l6 23l-30 27zM340 662l-16 -12l26 -23l6 22zM366 684l-18 -15l11 -10zM103 637l-58 47l110 -388v-279l46 46v251z" />
<glyph unicode="Z" horiz-adv-x="391" d="M361 700l-171 -579h170v-121h-330l171 580h-169v120h329zM93 10l-18 18l-24 -18h42zM98 46l-15 -12l24 -24h28zM182 128l-38 38l-6 -21l31 -32l11 9zM162 107l-27 27l-7 -21l18 -18zM138 89l-13 13l-9 -30zM110 56l-4 -4l42 -42h28l-46 46h-20zM172 56h-28l46 -46h28z M213 56h-27l45 -46h28zM255 56h-28l46 -46h28zM296 56h-27l45 -46h28zM320 74l-14 -14l44 -44v27zM340 95l-13 -14l23 -24v28zM350 99v5l-3 -3zM297 65l46 46h-161l-59 -46h174zM148 177l37 -38l7 21l-38 38zM187 635l35 -35l15 13l-22 22h-28zM42 598l43 43l-43 43v-86z M53 590l-3 2l-3 -2h6zM71 613l-14 -14l9 -9h28zM92 634l-14 -14l30 -30h28zM132 635h-28l45 -45h28zM48 691l46 -46h186l59 46h-291zM334 641l-19 19l-16 -12l28 -29zM346 684l-23 -18l14 -15zM228 635l17 -17l22 17h-39zM324 609l-33 33l-5 -4l-4 -15l36 -36zM315 577 l-36 36l-7 -22l36 -36zM305 545l-36 36l-6 -22l36 -36zM296 513l-36 36l-7 -21l37 -37zM286 481l-36 36l-6 -21l36 -37zM277 449l-37 36l-6 -21l37 -37zM267 417l-36 36l-7 -21l37 -37zM258 385l-37 36l-6 -21l37 -37zM249 352l-37 37l-7 -21l37 -37zM239 320l-37 38l-6 -22 l37 -37zM230 288l-38 38l-6 -22l37 -37zM220 256l-37 38l-7 -22l38 -37zM211 224l-38 38l-6 -22l37 -37zM201 192l-37 38l-7 -21l38 -38zM145 635l46 -45h17l6 5l-41 40h-28zM273 628l-61 -47l-167 -563l58 44z" />
<glyph unicode="[" horiz-adv-x="270" d="M159 0h81v-119h-200v939h200v-120h-81v-700zM101 -110l-23 22l-22 -22h45zM99 -67l-14 -14l29 -29h28zM150 676v27l-46 45v-27zM104 -18l15 -15l14 14l-29 29v-28zM104 462v-28l46 -45v27zM150 347v28l-46 46v-28zM104 503v-28l46 -45v28zM104 544v-28l46 -45v28z M104 585v-28l46 -45v28zM104 625v-27l46 -45v28zM104 707v-27l46 -45v27zM104 666v-27l46 -46v28zM150 306v27l-46 47v-28zM104 132v-27l46 -45v28zM150 19v28l-46 45v-28zM104 173v-28l46 -44v27zM104 214v-27l46 -46v28zM104 255v-27l46 -46v28zM104 296v-27l46 -45v27z M104 337v-27l46 -45v27zM104 23l36 -36l10 10v8l-46 46v-28zM113 -40l-9 9v-17zM137 -65h-27l45 -45h28zM179 -65h-28l44 -45h28zM201 -46l-13 -14l43 -44v28zM221 -26l-13 -14l23 -23v28zM231 -17l-3 -2l3 -3v5zM180 -55l44 45h-68l-45 -45h69zM111 755l45 -45h28l-45 45 h-28zM231 799v5l-3 -2zM231 785l-10 10l-14 -14l24 -23v27zM231 744l-30 30l-13 -13l43 -44v27zM224 710l-44 45h-28l44 -45h28zM179 765l44 45h-166l44 -45h78zM95 -58v816l-45 45v-906z" />
<glyph unicode="\" horiz-adv-x="332" d="M0 700h122l210 -700h-121zM290 104l-65 66l12 -40l65 -65zM207 230l12 -40l65 -66l-11 40zM188 289l13 -40l66 -66l-12 40zM170 349l13 -40l66 -67l-12 40zM152 408l13 -40l66 -66l-12 39zM134 468l12 -40l68 -67l-12 40zM116 527l12 -40l68 -67l-12 40zM98 587l12 -40 l68 -68l-12 40zM82 640l10 -34l68 -68l-12 40l-64 65zM102 666l-12 -16l53 -52l-13 40zM117 685l-9 -11l17 -17zM21 691l55 -43l33 43h-88zM248 59l-175 579l-57 44l200 -666zM260 10l-21 21l-15 -21h36zM254 52l-9 -13l29 -29h36zM243 111l14 -50l59 -43l-8 28v-1z" />
<glyph unicode="]" horiz-adv-x="270" d="M230 819v-938h-200v119h82v700h-82v119h200zM167 747l-45 -45v-705l45 -45v795zM51 709l-2 2l-3 -2h5zM69 732l-14 -14l9 -9h28zM40 803v-87l43 44zM219 759l-1 41l-20 -20zM221 88l-46 45v-28l46 -45v28zM175 174v-28l46 -45v28zM175 215v-28l46 -45v28zM175 256v-27 l46 -46v28zM175 297v-27l46 -46v28zM175 338v-27l46 -46v28zM175 585v-29l46 -45v27zM221 470v27l-46 45v-27zM175 626v-28l46 -46v27zM175 667v-28l46 -45v27zM175 707v-28l46 -44v28zM221 456l-46 45v-27l46 -45v27zM175 720l46 -44v27l-46 45v-28zM221 47l-46 45v-28 l46 -45v28zM221 744l-30 29l-13 -14l43 -43v28zM142 754l9 -9l9 9h-18zM145 739l-16 15h-28l30 -29zM213 -110l-44 45h-28l45 -45h27zM175 -31v-27l46 -46v27zM175 10v-28l46 -45v28zM175 51v-28l46 -45v28zM170 764l44 45h-166l45 -45h77zM76 739l30 -30h9l9 9l-34 34z M160 -55l-45 45h-69l46 -45h68zM83 -60l-43 43v-87zM50 -110l-1 1l-1 -1h2zM69 -88l-14 -14l8 -8h28zM90 -68l-14 -13l28 -29h28zM100 -65l45 -45h28l-45 45h-28zM175 379v-27l46 -46v28zM175 420v-27l46 -46v28zM175 460v-27l46 -46v28z" />
<glyph unicode="_" horiz-adv-x="391" d="M10 0h371v-121h-371v121zM372 -22v6l-3 -3zM71 -56h248l46 46h-340zM20 -104l43 43l-43 44v-87zM29 -111l-1 2l-1 -2h2zM49 -88l-14 -15l8 -8h28zM70 -67l-14 -14l29 -30h28zM109 -65h-28l46 -46h28zM150 -65h-27l46 -46h27zM192 -65h-28l46 -46h28zM234 -65h-28l46 -46 h28zM276 -65h-28l46 -46h28zM317 -65h-27l45 -46h29zM341 -47l-14 -14l45 -45v29zM362 -26l-14 -14l24 -23v28z" />
<glyph unicode="a" d="M358 460v-460h-120v124h-88v-124h-120v460q0 31 21.5 52.5t52.5 21.5h180q31 0 52.5 -21.5t21.5 -52.5zM293 173l-46 -45v-112l46 46v111zM216 134l-46 46h-28l46 -46h28zM148 235l-46 -46h183l-46 46h-91zM50 9l-2 2l-1 -2h3zM69 32l-14 -14l8 -9h28zM90 53l-14 -14 l29 -30h28zM267 180l9 -10l10 10h-19zM293 464l-46 -46v-177l46 -46v269zM268 469l8 -8l9 8h-17zM270 454l-16 15h-28l30 -29zM249 433l-36 36h-28l46 -46h8zM238 245v169h-88v-169h88zM217 423l-46 46h-28l46 -46h28zM175 423l-45 46h-28l46 -46h27zM141 84l-46 46v-28 l46 -45v27zM95 379v-28l46 -45v28zM141 264v28l-46 46v-28zM95 421v-28l46 -46v28zM104 205l-9 8v-17zM95 227l15 -15l14 13l-29 30v-28zM95 268l36 -36l10 10v9l-46 45v-28zM141 389v28l-46 45v-28zM95 89v-28l46 -46v28zM95 172v-28l46 -46v28zM270 163l-17 17h-28l31 -31 zM257 9l-1 2l-2 -2h3zM276 32l-13 -14l8 -9h28zM297 53l-14 -14l29 -30h28zM303 89v-28l45 -46v28zM303 130v-28l45 -45v27zM303 172v-28l45 -46v28zM303 213v-28l45 -45v28zM303 255v-28l45 -46v28zM303 296v-28l45 -45v28zM303 338v-28l45 -46v28zM303 379v-28l45 -45v28z M303 421v-28l45 -46v28zM303 462v-28l45 -45v28zM318 489l-14 -14l44 -45v28zM332 503l-7 -8l22 -22q-3 14 -15 30zM284 525h-180q-24 0 -42 -16l30 -30h203l30 31q-18 15 -41 15zM85 472l-30 30q-15 -18 -15 -42v-444l45 46v410zM101 180l45 -46h28l-45 46h-28zM184 180 l45 -46h12l8 8l-37 38h-28z" />
<glyph unicode="b" d="M358 460v-123q0 -34 -26 -57q26 -30 26 -61v-48v-97q0 -31 -21.5 -52.5t-52.5 -21.5h-254v534h254q31 0 52.5 -21.5t21.5 -52.5zM85 62v410l-45 46v-502zM348 458l-30 31l-14 -14l44 -45v28zM229 217h11l9 8l-37 38h-28zM238 328v86h-88v-86h88zM285 272l-46 46h-91 l-46 -46h183zM142 263l46 -46h28l-46 46h-28zM141 181v28l-46 46v-28zM95 213v-28l46 -45v28zM141 325v9l-46 45v-28l36 -36zM110 295l14 14l-29 29v-28zM95 393l46 -46v28l-46 46v-28zM104 288l-9 8v-17zM104 80l-9 9v-17zM95 102l15 -15l14 14l-29 29v-28zM95 144l36 -36 l10 9v9l-46 46v-28zM101 263l45 -46h28l-45 46h-28zM238 120v87h-88v-87h88zM225 263l31 -31l14 14l-17 17h-28zM267 263l9 -10l10 10h-19zM247 418v-94l46 -46v186zM303 421v-28l45 -46v28zM303 462v-28l45 -45v28zM268 469l8 -8l9 8h-17zM270 454l-16 15h-28l30 -29z M249 433l-36 36h-28l46 -46h8zM217 423l-46 46h-28l46 -46h28zM175 423l-45 46h-28l46 -46h27zM141 389v28l-46 45v-28zM50 9l-2 2q-1 -1 -1 -2h3zM69 32l-14 -14l8 -9h28zM90 53l-14 -14l29 -30h28zM129 55h-28l45 -46h28zM170 55h-28l46 -46h28zM212 55h-28l45 -46h28z M148 111l-46 -46h183l-46 46h-91zM325 25l-30 30h-28l41 -41q12 6 17 11zM247 210v-94l46 -46v186zM348 84l-45 46v-28l43 -44q2 5 2 16v10zM303 172v-28l45 -46v28zM303 213v-28l45 -45v28zM303 227l45 -46v28l-45 46v-28zM317 281l-14 15v-21q6 2 9 4q4 2 5 2zM348 334 l-45 45v-28l40 -40q5 12 5 23zM325 495l22 -22q-3 14 -15 30zM295 479l30 31q-18 15 -41 15h-237l45 -46h203zM225 55l46 -46h13q5 0 13 2l-44 44h-28zM303 61l29 -30q5 5 11 17l-40 41v-28zM305 266l43 -43q-1 27 -24 51q-1 0 -3.5 -2t-3.5 -2q-4 -2 -12 -4zM303 310 l22 -23q8 5 13 15l-35 36v-28z" />
<glyph unicode="c" d="M238 120v96l120 28v-170q0 -31 -21.5 -52.5t-52.5 -21.5h-180q-31 0 -52.5 21.5t-21.5 52.5v386q0 31 21.5 52.5t52.5 21.5h180q31 0 52.5 -21.5t21.5 -52.5v-101l-120 -28v83h-88v-294h88zM325 25l-30 30h-28l41 -41q12 6 17 11zM247 204v-88l46 -46v110zM256 210 l41 -21l41 40zM348 84l-45 46v-28l43 -44q2 5 2 16v10zM303 172v-28l45 -46v28zM319 197l-14 -14l43 -43v28zM340 218l-14 -14l22 -23v28zM348 226l-1 -1l1 -2v3zM285 65l-46 46h-91l-46 -46h183zM90 11l-21 21l-7 -7q11 -9 28 -14zM90 53l-14 -14l29 -30h28zM141 389v28 l-46 45v-28zM95 102l15 -15l14 14l-29 29v-28zM95 255v-28l46 -46v28zM141 140v28l-46 45v-28zM95 296v-28l46 -45v28zM95 338v-28l46 -46v28zM95 379v-28l46 -45v28zM95 421v-28l46 -46v28zM95 144l36 -36l10 9v9l-46 46v-28zM104 80l-9 9v-17zM129 55h-28l45 -46h28z M170 55h-28l46 -46h28zM212 55h-28l45 -46h28zM102 469l46 -46h27l-45 46h-28zM217 423l-46 46h-28l46 -46h28zM185 469l46 -46h8l10 10l-36 36h-28zM348 458l-30 31l-14 -14l44 -45v28zM293 464l-46 -46v-70l46 46v70zM276 364l-13 -14l2 -3l23 5zM297 385l-14 -14l16 -16 l23 5zM340 364l-18 10l11 -11zM303 421v-26l45 -24v4zM303 462v-28l45 -45v28zM268 469l8 -8l9 8h-17zM270 454l-16 15h-28l30 -29zM325 495l22 -22q-3 14 -15 30zM284 525h-180q-24 0 -42 -16l30 -30h203l30 31q-18 15 -41 15zM40 460v-386q0 -24 15 -42l30 30v410l-30 30 q-15 -18 -15 -42zM225 55l46 -46h13q5 0 13 2l-44 44h-28zM303 61l29 -30q5 5 11 17l-40 41v-28z" />
<glyph unicode="d" d="M30 534h254q31 0 52.5 -21.5t21.5 -52.5v-386q0 -31 -21.5 -52.5t-52.5 -21.5h-254v534zM85 62v410l-45 46v-501zM268 469l8 -8l9 8h-17zM269 454l-15 15h-28l30 -29zM249 433l-36 36h-28l45 -45h9zM237 121v293h-87v-293h87zM217 424l-46 45h-28l46 -45h28zM175 424 l-45 45h-28l45 -45h28zM95 255v-28l46 -46v28zM141 140v28l-46 45v-27zM95 296v-27l46 -46v28zM95 338v-28l46 -46v28zM95 379v-27l46 -46v28zM95 421v-28l46 -46v28zM103 81l-8 8v-17zM95 103l15 -16l14 14l-29 29v-27zM95 144l36 -36l10 10v8l-46 46v-28zM141 389v28 l-46 45v-27zM51 10l-2 2l-2 -2h4zM69 32l-14 -14l8 -8h28zM90 53l-14 -14l29 -29h28zM128 56h-27l45 -46h28zM170 56h-28l46 -46h28zM211 56h-27l45 -46h28zM147 111l-45 -46h183l-46 46h-92zM325 25l-31 31h-27l41 -42q9 4 17 11zM247 418v-302l46 -45v393zM348 85l-46 45 v-27l44 -44q2 10 2 15v11zM302 172v-28l46 -46v28zM302 213v-27l46 -46v28zM302 255v-28l46 -46v28zM302 296v-27l46 -46v28zM302 338v-28l46 -46v28zM302 379v-27l46 -46v28zM302 421v-28l46 -46v28zM302 462v-27l46 -46v28zM318 489l-14 -14l44 -45v28zM332 503l-7 -8 l22 -22q-5 19 -15 30zM294 479l31 31q-18 15 -41 15h-237l45 -46h202zM225 56l46 -46h13q9 0 13 1l-44 45h-28zM302 61l30 -29q8 10 11 17l-41 40v-28z" />
<glyph unicode="e" d="M150 120h208v-120h-328v534h328v-120h-208v-86h166v-121h-166v-87zM85 472l-45 46v-502l45 46v410zM217 423l-46 46h-28l46 -46h28zM213 469h-28l46 -46h27zM254 469h-28l46 -46h28zM296 469h-28l46 -46h27zM318 489l-14 -14l44 -45v28zM339 509l-14 -14l23 -23v28z M348 519l-2 -3l2 -3v6zM92 479h203l45 46h-293zM141 168l-46 45v-28l46 -45v28zM141 375l-46 46v-28l46 -46v28zM104 80l-9 9v-17zM95 102l15 -15l14 14l-29 29v-28zM95 144l36 -36l10 9v9l-46 46v-28zM141 181v28l-46 46v-28zM104 288l-9 8v-17zM95 310l15 -15l14 14 l-29 29v-28zM95 351l36 -36l10 10v9l-46 45v-28zM95 434l46 -45v28l-46 45v-28zM50 10l-2 1l-1 -1h3zM69 32l-14 -14l8 -8h28zM90 53l-14 -14l29 -29h28zM129 55h-28l45 -45h28zM170 55h-28l46 -45h28zM212 55h-28l45 -45h28zM253 55h-28l46 -45h28zM295 55h-28l45 -45h28z M318 73l-14 -14l44 -44v28zM339 94l-14 -14l23 -23v28zM348 98v6l-3 -3zM296 65l45 46h-193l-46 -46h194zM101 263l45 -46h28l-45 46h-28zM304 309l3 -3v5zM307 292l-10 10l-14 -14l24 -24v28zM307 251l-31 30l-14 -14l45 -44v28zM299 217l-46 46h-28l46 -46h28zM257 217 l-45 46h-28l45 -46h28zM216 217l-46 46h-28l46 -46h28zM254 272l46 46h-152l-46 -46h152zM102 469l46 -46h27l-45 46h-28z" />
<glyph unicode="f" d="M358 534v-120h-208v-86h166v-120h-166v-208h-120v534h328zM85 472l-45 46v-501l45 46v409zM95 421v-28l46 -45v27zM50 10l-2 2l-1 -2h3zM69 32l-14 -14l8 -8h28zM90 53l-14 -14l29 -29h28zM95 89v-28l46 -45v28zM95 131v-28l46 -46v28zM95 172v-28l46 -45v27zM95 214v-28 l46 -46v28zM141 182v27l-46 46v-28zM103 288l-8 9v-17zM95 310l15 -15l14 14l-29 29v-28zM95 352l36 -36l10 9v9l-46 46v-28zM95 435l46 -46v28l-46 46v-28zM340 525h-293l45 -46h202zM258 424l-45 45h-28l45 -45h28zM254 469h-28l46 -45h28zM296 469h-28l45 -45h28z M318 489l-14 -14l44 -44v27zM338 509l-13 -13l23 -24v28zM348 519l-3 -3l3 -2v5zM217 424l-46 45h-28l46 -45h28zM101 263l45 -46h28l-46 46h-27zM304 309l3 -3v6zM307 292l-10 10l-14 -14l24 -23v27zM307 251l-31 30l-14 -14l45 -44v28zM298 217l-45 46h-28l46 -46h27z M257 217l-46 46h-27l45 -46h28zM216 217l-46 46h-28l46 -46h28zM254 273l46 45h-153l-45 -45h152zM102 469l45 -45h28l-45 45h-28z" />
<glyph unicode="g" d="M195 287h89q31 0 52.5 -22t21.5 -52v-139q0 -30 -21.5 -52t-52.5 -22h-180q-31 0 -52.5 22t-21.5 52v386q0 31 21.5 52.5t52.5 21.5h180q31 0 52.5 -21.5t21.5 -52.5v-101l-121 -28v83h-87v-293h87v45h-64zM325 25l-31 31h-27l41 -41q8 3 17 10zM247 169v-52l46 -46v144z M216 176l-12 12l-12 -12h24zM202 269l-16 -85l43 42zM253 222h-16l-6 -7l25 -24l13 14zM267 222l9 -10l10 10h-19zM348 85l-46 46v-28l44 -44q2 10 2 15v11zM302 172v-28l46 -45v27zM302 214v-28l46 -46v28zM318 240l-14 -14l44 -44v27zM333 255l-8 -8l22 -23q-3 17 -14 31z M296 231l30 30q-19 16 -42 16h-76l29 -46h59zM210 195l19 -19h11l9 8l-25 25zM285 65l-46 46h-92l-45 -46h183zM89 12l-20 20l-7 -6q13 -11 27 -14zM90 53l-14 -14l29 -29h28zM141 389v28l-46 46v-28zM95 103l15 -16l14 14l-29 30v-28zM95 255v-28l46 -45v27zM141 140v28 l-46 46v-28zM95 297v-28l46 -46v28zM95 338v-28l46 -45v27zM95 380v-28l46 -46v28zM95 421v-28l46 -45v27zM95 144l36 -36l10 10v8l-46 46v-28zM103 81l-8 8v-17zM128 56h-27l45 -46h28zM170 56h-28l46 -46h28zM211 56h-27l45 -46h28zM102 469l45 -45h28l-45 45h-28z M217 424l-46 45h-28l46 -45h28zM185 469l45 -45h9l10 9l-36 36h-28zM348 458l-30 31l-14 -14l44 -44v27zM293 464l-46 -46v-69l46 45v70zM276 364l-14 -14l3 -3l23 6zM297 385l-14 -14l16 -16l22 6zM339 365l-18 9l12 -11zM302 421v-26l46 -24v4zM302 463v-28l46 -46v28z M268 469l8 -8l9 8h-17zM269 454l-15 15h-28l30 -29zM325 496l22 -23q-5 18 -15 30zM284 525h-180q-24 0 -42 -16l30 -30h202l31 31q-18 15 -41 15zM40 460v-386q0 -22 15 -42l30 31v409l-30 30q-15 -18 -15 -42zM225 56l46 -46h13q2 0 6.5 0.5t6.5 0.5l-44 45h-28zM302 61 l30 -29q7 8 11 17l-41 40v-28z" />
<glyph unicode="h" d="M237 534h121v-534h-121v208h-87v-208h-120v534h120v-206h87v206zM293 256l-46 -45v-194l46 46v193zM293 472l-46 46v-194l46 -46v194zM254 525l43 -43l43 43h-86zM267 263l9 -10l10 10h-19zM269 247l-16 16h-28l31 -30zM257 10l-1 2l-2 -2h3zM276 32l-14 -14l9 -8h28z M297 53l-14 -14l29 -29h28zM302 89v-28l46 -45v27zM302 131v-28l46 -46v28zM302 172v-28l46 -45v27zM302 214v-28l46 -46v28zM302 255v-28l46 -45v27zM302 297v-28l46 -46v28zM302 338v-28l46 -45v27zM302 380v-28l46 -46v28zM302 421v-28l46 -45v27zM302 463v-28l46 -46v28 zM318 489l-14 -14l44 -44v27zM338 509l-13 -13l23 -24v28zM348 519l-3 -3l3 -3v6zM285 273l-46 45h-92l-45 -45h183zM216 217l-46 46h-28l46 -46h28zM141 500l-10 9l-14 -14l24 -23v28zM141 458l-31 31l-14 -14l45 -44v27zM141 389v28l-46 46v-28zM141 375l-46 46v-28 l46 -45v27zM141 85l-46 46v-28l46 -46v28zM103 288l-8 9v-17zM95 310l15 -15l14 14l-29 29v-28zM95 352l36 -36l10 9v9l-46 46v-28zM141 519l-3 -3l3 -3v6zM47 525l43 -43l43 43h-86zM85 63v409l-45 46v-501zM50 10l-2 2l-1 -2h3zM69 32l-14 -14l8 -8h28zM90 53l-14 -14 l29 -29h28zM95 89v-28l46 -45v27zM95 172v-28l46 -45v27zM95 214v-28l46 -46v28zM95 227l46 -45v27l-46 46v-28zM101 263l45 -46h28l-46 46h-27zM184 263l45 -46h12l8 9l-38 37h-27z" />
<glyph unicode="i" horiz-adv-x="180" d="M30 0v534h120v-534h-120zM47 525l43 -43l43 43h-86zM141 85l-46 46v-28l46 -46v28zM85 63v409l-45 46v-501zM50 10l-2 2l-1 -2h3zM69 32l-14 -14l8 -8h28zM90 53l-14 -14l29 -29h28zM95 89v-28l46 -45v27zM95 172v-28l46 -45v27zM95 214v-28l46 -46v28zM95 255v-28 l46 -45v27zM95 297v-28l46 -46v28zM95 338v-28l46 -45v27zM95 380v-28l46 -46v28zM95 421v-28l46 -45v27zM95 463v-28l46 -46v28zM110 489l-14 -14l45 -44v27zM131 509l-14 -14l24 -23v28zM141 519l-3 -3l3 -3v6z" />
<glyph unicode="j" horiz-adv-x="391" d="M239 121v413h121v-459q0 -31 -22 -53t-53 -22h-181q-31 0 -52.5 22t-21.5 53v145l121 28v-127h88zM327 25l-31 31h-28l41 -41q9 2 18 10zM248 521v-404l46 -46v404zM350 85l-46 46v-28l44 -44q2 10 2 16v10zM304 173v-28l46 -46v28zM304 215v-28l46 -46v28zM304 257v-28 l46 -46v28zM304 298v-28l46 -46v28zM304 340v-28l46 -46v28zM304 382v-28l46 -46v28zM304 424v-28l46 -46v28zM304 465v-28l46 -46v28zM319 492l-14 -14l45 -45v28zM340 512l-14 -13l24 -24v28zM350 522l-3 -3l3 -2v5zM299 485l40 40h-80zM286 66l-46 46h-92l-46 -46h184z M90 12l-21 21l-7 -7q13 -11 28 -14zM90 53l-14 -14l29 -29h28zM95 103l16 -15l14 14l-30 29v-28zM141 211l-9 9l-14 -14l23 -23v28zM141 169l-30 30l-14 -14l44 -44v28zM95 145l37 -36l9 10v8l-46 46v-28zM139 227l2 -3v6zM49 214l41 -22l41 41zM104 81l-9 9v-17zM129 56 h-28l46 -46h28zM171 56h-28l46 -46h28zM213 56h-28l45 -46h28zM86 183l-46 25v-133q0 -24 15 -42l31 30v120zM226 56l46 -46h13q3 0 7 0.5t7 0.5l-45 45h-28zM304 62l30 -30q7 8 11 17l-41 41v-28z" />
<glyph unicode="k" horiz-adv-x="386" d="M261 268l114 -268h-121l-90 208h-14v-208h-120v534h120v-206h13l88 206h124zM273 119l25 -55l59 -45l-12 27zM315 118l-79 79l25 -52l74 -75zM203 267l21 -45l80 -80l-20 49l-80 79zM275 324l-33 33l-8 -19l32 -33zM254 386l-8 -19l33 -33l8 19zM267 415l-8 -19l32 -33 l9 19zM279 444l-8 -19l33 -33l8 19zM292 473l-8 -20l32 -32l9 19zM317 489l-17 -11l29 -28l8 19zM341 506l-16 -11l16 -16l8 19zM358 517l-8 -5l4 -4zM263 525l27 -42l61 42h-88zM197 278l86 198l-28 43l-83 -196zM190 272l-27 46h-16l-46 -46h89zM141 500l-10 9l-14 -14 l24 -23v28zM141 458l-31 31l-14 -14l45 -44v27zM141 389v28l-46 45v-27zM95 352l36 -36l10 9v9l-46 46v-28zM103 288l-8 9v-17zM95 310l15 -15l14 14l-29 29v-28zM95 421v-28l46 -45v27zM141 85l-46 46v-28l46 -46v28zM141 519l-3 -3l3 -3v6zM47 525l43 -43l43 43h-86z M85 63v409l-45 46v-501zM50 10l-2 2l-1 -2h3zM69 32l-14 -13l8 -9h28zM90 53l-14 -14l29 -29h28zM95 89v-28l46 -45v28zM95 172v-28l46 -45v28zM95 214v-28l46 -46v28zM95 255v-28l46 -45v27zM101 262l45 -44h17l4 7l-38 37h-28zM143 262l29 -29l10 18l-11 11h-28zM184 262 l3 -2l2 2h-5zM209 280l65 -65l-21 48l-36 36zM221 309l33 -33l8 19l-33 33zM197 258l-25 -44l87 -199l31 45zM300 10l-19 20l-14 -20h33zM286 38l28 -28h38l-55 43z" />
<glyph unicode="l" horiz-adv-x="347" d="M150 121h167v-121h-287v534h120v-413zM141 500l-10 9l-14 -13l24 -24v28zM141 458l-31 31l-14 -14l45 -44v27zM141 389v28l-46 46v-28zM141 168l-46 46v-28l46 -46v28zM95 255v-28l46 -45v27zM95 297v-28l46 -46v28zM95 338v-28l46 -45v27zM95 380v-28l46 -46v28zM95 421 v-28l46 -45v27zM103 81l-8 8v-17zM95 103l15 -16l14 14l-29 30v-28zM95 144l36 -36l10 10v8l-46 46v-28zM138 516l3 -2v5zM47 525l43 -43l43 43h-86zM85 63v409l-45 46v-501zM50 10l-2 2l-1 -2h3zM69 32l-14 -14l8 -8h28zM90 53l-14 -14l29 -29h28zM128 56h-27l45 -46h28z M170 56h-28l46 -46h28zM211 56h-27l45 -46h28zM253 56h-27l45 -46h28zM277 74l-14 -14l44 -44v27zM297 95l-13 -14l23 -24v28zM307 99v5l-3 -3zM254 65l46 46h-153l-45 -46h152z" />
<glyph unicode="m" horiz-adv-x="593" d="M563 0h-121v413h-85v-413h-120v413h-87v-413h-120v533h459q31 0 52.5 -21.5t21.5 -52.5v-459zM452 417v-401l46 45v402zM337 468h-28l45 -45h28zM246 417v-401l46 45v402zM267 468l9 -8l8 8h-17zM269 453l-16 15h-27l29 -29zM248 432l-36 36h-28l46 -45h8zM347 43l-45 46 v-28l45 -46v28zM302 379v-28l45 -46v28zM302 420v-27l45 -46v28zM302 462v-28l45 -46v28zM418 468h-28l46 -45h8l10 9zM553 457l-30 31l-14 -14l44 -44v27zM553 374l-46 46v-27l46 -46v27zM553 84l-46 46v-28l46 -46v28zM553 388v28l-46 46v-28zM553 43l-46 46v-28l46 -46 v28zM473 468l8 -8l9 8h-17zM475 453l-16 15h-27l29 -29zM530 495l22 -23q-3 16 -15 30zM489 524h-443l46 -46h408l30 31q-18 15 -41 15zM49 9l-1 2l-2 -2h3zM69 32l-14 -14l8 -9h28zM89 53l-14 -14l30 -30h28zM95 88v-27l46 -46v28zM95 130v-28l46 -45v27zM347 84l-45 46 v-28l45 -46v28zM553 126l-46 46v-28l46 -46v28zM95 171v-27l46 -46v28zM347 126l-45 46v-28l45 -46v28zM553 167l-46 46v-28l46 -46v28zM95 213v-28l46 -46v28zM347 167l-45 46v-28l45 -46v28zM553 209l-46 45v-27l46 -46v28zM95 254v-28l46 -45v28zM347 209l-45 46v-28 l45 -46v28zM553 250l-46 46v-28l46 -46v28zM95 296v-28l46 -46v28zM347 250l-45 46v-28l45 -46v28zM553 291l-46 46v-27l46 -46v27zM95 337v-28l46 -45v28zM347 292l-45 46v-28l45 -46v28zM553 333l-46 46v-28l46 -46v28zM95 379v-28l46 -46v28zM95 420v-28l46 -45v28z M95 434l46 -46v28l-46 46v-28zM85 471l-45 45v-500l45 45v410zM102 468l45 -45h28l-45 45h-28zM255 11l-2 -1h3zM262 18l8 -8h28l-22 22zM282 39l29 -29h28l-43 43zM461 11l-2 -1h3zM468 18l8 -8h28l-22 22zM489 39l29 -29h27l-43 43zM143 468l45 -45h28l-45 45h-28z M378 468h-28l45 -45h28z" />
<glyph unicode="n" d="M358 460v-460h-121v414h-87v-414h-120v534h254q31 0 52.5 -21.5t21.5 -52.5zM293 464l-46 -46v-401l46 46v401zM268 469l8 -8l9 8h-17zM269 454l-15 15h-28l30 -29zM257 10l-1 2l-2 -2h3zM276 32l-14 -14l9 -8h28zM297 53l-14 -14l29 -29h28zM302 89v-28l46 -45v27z M302 131v-28l46 -46v28zM302 172v-28l46 -45v27zM302 214v-28l46 -46v28zM302 255v-28l46 -45v27zM302 297v-28l46 -46v28zM302 338v-28l46 -45v27zM302 380v-28l46 -46v28zM302 421v-28l46 -45v27zM302 463v-28l46 -46v28zM318 489l-14 -14l44 -44v27zM332 503l-7 -7 l22 -23q-5 18 -15 30zM294 479l31 31q-18 15 -41 15h-237l45 -46h202zM217 424l-46 45h-28l46 -45h28zM85 63v409l-45 46v-501zM141 85l-46 46v-28l46 -46v28zM50 10l-2 2l-1 -2h3zM69 32l-14 -14l8 -8h28zM90 53l-14 -14l29 -29h28zM95 89v-28l46 -45v27zM95 172v-28 l46 -45v27zM95 214v-28l46 -46v28zM95 255v-28l46 -45v27zM95 297v-28l46 -46v28zM95 338v-28l46 -45v27zM95 380v-28l46 -46v28zM95 421v-28l46 -45v27zM95 435l46 -46v28l-46 46v-28zM102 469l45 -45h28l-45 45h-28zM185 469l45 -45h9l10 9l-36 36h-28z" />
<glyph unicode="o" d="M104 534h180q31 0 52.5 -21.5t21.5 -52.5v-386q0 -30 -21.5 -52t-52.5 -22h-180q-31 0 -52.5 22t-21.5 52v386q0 31 21.5 52.5t52.5 21.5zM89 12l-20 20l-7 -6q13 -11 27 -14zM90 53l-14 -14l29 -29h28zM268 469l8 -8l9 8h-17zM269 454l-15 15h-28l30 -29zM249 433 l-36 36h-28l45 -45h9zM237 121v293h-87v-293h87zM217 424l-46 45h-28l46 -45h28zM175 424l-45 45h-28l45 -45h28zM95 103l15 -16l14 14l-29 30v-28zM95 255v-28l46 -45v27zM141 140v28l-46 46v-28zM95 297v-28l46 -46v28zM95 338v-28l46 -45v27zM95 380v-28l46 -46v28z M95 421v-28l46 -45v27zM95 144l36 -36l10 10v8l-46 46v-28zM141 389v28l-46 46v-28zM103 81l-8 8v-17zM128 56h-27l45 -46h28zM170 56h-28l46 -46h28zM211 56h-27l45 -46h28zM147 111l-45 -46h183l-46 46h-92zM325 25l-31 31h-27l41 -41q8 3 17 10zM247 418v-301l46 -46v393 zM348 85l-46 46v-28l44 -44q2 10 2 15v11zM302 172v-28l46 -45v27zM302 214v-28l46 -46v28zM302 255v-28l46 -45v27zM302 297v-28l46 -46v28zM302 338v-28l46 -45v27zM302 380v-28l46 -46v28zM302 421v-28l46 -45v27zM302 463v-28l46 -46v28zM318 489l-14 -14l44 -44v27z M332 503l-7 -7l22 -23q-5 18 -15 30zM284 525h-180q-24 0 -42 -16l30 -30h202l31 31q-18 15 -41 15zM40 460v-386q0 -22 15 -42l30 31v409l-30 30q-15 -18 -15 -42zM225 56l46 -46h13q2 0 6.5 0.5t6.5 0.5l-44 45h-28zM302 61l30 -29q7 8 11 17l-41 40v-28z" />
<glyph unicode="p" d="M358 460v-178q0 -31 -21.5 -52.5t-52.5 -21.5h-134v-208h-120v534h254q31 0 52.5 -21.5t21.5 -52.5zM267 263l41 -41q12 6 17 10l-31 31h-27zM216 217l-46 46h-10h-18l46 -46h28zM211 263h-27l45 -46h28zM102 273h58h125l-46 45h-92zM85 472l-45 46v-501l45 46v409z M268 469l8 -8l9 8h-17zM269 454l-15 15h-28l30 -29zM249 433l-36 36h-28l45 -45h9zM237 328v86h-87v-86h87zM217 424l-46 45h-28l46 -45h28zM175 424l-45 45h-28l45 -45h28zM141 99v27l-46 46v-28zM141 348v27l-46 46v-28zM141 85l-46 46v-28l46 -46v28zM103 288l-8 9v-17z M95 310l15 -15l14 14l-29 29v-28zM95 352l36 -36l10 9v9l-46 46v-28zM141 389v28l-46 46v-28zM50 10l-2 2l-1 -2h3zM69 32l-14 -14l8 -8h28zM90 53l-14 -14l29 -29h28zM95 89v-28l46 -45v27zM95 214v-28l46 -46v28zM141 182v27l-46 46v-28zM247 418v-94l46 -46v186zM348 292 l-46 46v-28l44 -44q2 10 2 16v10zM302 380v-28l46 -46v28zM302 421v-28l46 -45v27zM302 463v-28l46 -46v28zM318 489l-14 -14l44 -44v27zM332 503l-7 -7l22 -23q-5 18 -15 30zM294 479l31 31q-18 15 -41 15h-237l45 -46h202zM101 263l45 -46h28l-46 46h-27zM225 263l46 -46 h13q5 0 13 2l-44 44h-28zM302 269l30 -30q7 8 11 17l-41 41v-28z" />
<glyph unicode="q" d="M104 534h180q31 0 52.5 -21.5t21.5 -52.5v-386q0 -31 -21.5 -52.5t-52.5 -21.5h-10v-84h-120v84h-50q-31 0 -52.5 21.5t-21.5 52.5v386q0 31 21.5 52.5t52.5 21.5zM90 11l-21 21l-7 -7q11 -9 28 -14zM90 53l-14 -14l29 -29h28zM268 469l8 -8l9 8h-17zM270 454l-16 15h-28 l30 -29zM249 433l-36 36h-28l46 -45h8zM238 120v294h-88v-294h88zM217 424l-46 45h-28l46 -45h28zM175 424l-45 45h-28l46 -45h27zM95 102l15 -15l14 14l-29 29v-28zM95 255v-28l46 -46v28zM141 140v28l-46 45v-28zM95 296v-28l46 -45v28zM95 338v-28l46 -46v28zM95 379v-27 l46 -46v28zM95 421v-28l46 -46v28zM95 144l36 -36l10 9v9l-46 46v-28zM141 389v28l-46 45v-27zM104 80l-9 9v-17zM129 55h-28l45 -45h11l9 8zM184 55l9 -9l10 9h-19zM187 39l-17 16h-28l31 -30zM209 48l-45 -46v-69l45 45v70zM175 -74l-2 2l-3 -2h5zM193 -51l-14 -14l10 -9 h28zM214 -30l-14 -14l30 -30h28zM219 6v-27l46 -46v28zM219 20l46 -46v28l-46 46v-28zM148 111l-46 -46h183l-46 46h-91zM325 25l-30 30h-28l41 -41q12 6 17 11zM247 418v-302l46 -45v393zM348 85l-45 45v-28l43 -43q2 4 2 15v11zM303 172v-28l45 -46v28zM303 213v-28 l45 -45v28zM303 255v-28l45 -46v28zM303 296v-28l45 -45v28zM303 338v-28l45 -46v28zM303 379v-27l45 -46v28zM303 421v-28l45 -46v28zM303 462v-27l45 -46v28zM318 489l-14 -14l44 -45v28zM332 503l-7 -8l22 -22q-3 16 -15 30zM284 525h-180q-24 0 -42 -16l30 -30h203 l30 31q-18 15 -41 15zM40 460v-386q0 -24 15 -42l30 30v410l-30 30q-15 -18 -15 -42zM225 55l46 -45h13q9 0 13 1l-44 44h-28zM303 61l29 -30q5 5 11 17l-40 41v-28z" />
<glyph unicode="r" horiz-adv-x="392" d="M362 0h-124l-41 207h-47v-207h-120v533h254q31 0 52.5 -21.5t21.5 -51.5v-179q0 -47 -42 -67zM85 62v409l-45 46v-501zM348 457l-30 31l-14 -14l44 -44v27zM257 10l-2 2l-2 -2h4zM275 33l-14 -14l9 -9h28zM294 53l-12 -13l30 -30h30zM287 103l9 -40l53 -46l-7 32z M275 157l8 -36l55 -55l-8 36zM184 262l28 -28l12 16l-13 12h-27zM225 262l5 -5l4 5h-9zM263 211l8 -36l56 -56l-8 36zM252 260l7 -32l56 -56l-9 42zM264 262l47 -39q8 3 14 9l-31 30h-30zM293 463l-46 -46v-94l46 -45v185zM348 291l-46 46v-28l44 -43q2 8 2 15v10zM302 379 v-28l46 -46v28zM302 420v-28l46 -45v27zM302 462v-28l46 -46v28zM268 468l8 -8l9 8h-17zM269 453l-15 15h-28l30 -29zM249 432l-36 36h-28l45 -45h9zM237 327v86h-87v-86h87zM217 423l-46 45h-28l46 -45h28zM175 423l-45 45h-28l45 -45h28zM141 374l-46 46v-28l46 -45v27z M141 84l-46 46v-28l46 -46v28zM95 171v-28l46 -45v28zM103 287l-8 9v-17zM95 309l15 -15l14 14l-29 29v-28zM95 351l36 -36l10 9v9l-46 46v-28zM141 388v28l-46 46v-28zM50 9l-2 2l-2 -2h4zM69 31l-14 -13l8 -9h28zM90 52l-14 -14l29 -29h28zM95 88v-28l46 -45v28zM95 213 v-28l46 -46v28zM141 181v28l-46 45v-28zM239 318h-92l-45 -46h183zM170 262h-28l46 -45h10l8 9zM243 258l-37 -47l38 -196l43 45zM302 268l30 -30q7 8 11 17l-41 41v-28zM325 495l22 -23q-5 18 -15 30zM294 478l31 31q-18 15 -41 15h-237l45 -46h202zM101 262l45 -45h28 l-46 45h-27z" />
<glyph unicode="s" d="M150 328h134q31 0 52.5 -21.5t21.5 -52.5v-180q0 -30 -21.5 -52t-52.5 -22h-180q-31 0 -52.5 22t-21.5 52v61l120 29v-43h87v87h-133q-31 0 -52.5 21.5t-21.5 52.5v179q0 30 21.5 51.5t52.5 21.5h180q31 0 52.5 -21.5t21.5 -51.5v-60l-121 -28v41h-87v-86zM325 25l-31 31 h-27l41 -41q8 3 17 10zM247 211v-94l46 -46v185zM267 263l9 -9l10 9h-19zM269 247l-16 16h-28l31 -30zM348 85l-46 46v-28l44 -44q2 10 2 15v11zM302 172v-28l46 -45v28zM302 214v-28l46 -46v28zM302 255v-28l46 -45v28zM318 281l-14 -14l44 -44v28zM333 296l-8 -8l22 -22 q-3 18 -14 30zM284 319h-137l-45 -46h194l30 30q-19 16 -42 16zM89 219l-20 21l-7 -7q10 -9 27 -14zM90 261l-14 -14l29 -29h28zM141 389v28l-46 46v-28zM95 310l15 -15l14 14l-29 29v-28zM141 375l-46 46v-28l46 -45v27zM95 352l36 -36l10 9v9l-46 46v-28zM103 288l-8 9 v-17zM128 263h-27l45 -45h28zM170 263h-28l46 -45h28zM102 469l45 -45h28l-45 45h-28zM217 424l-46 45h-28l46 -45h28zM185 469l45 -45h9l10 9l-36 36h-28zM348 458l-30 31l-14 -14l44 -44v27zM293 464l-46 -46v-28l46 46v28zM276 406l-14 -14l3 -3l23 5zM297 427l-14 -14 l16 -16l22 5zM339 406l-18 10l12 -11zM302 463v-26l46 -24v4zM268 469l8 -8l9 8h-17zM269 454l-15 15h-28l30 -29zM325 496l22 -23q-5 18 -15 30zM284 525h-180q-24 0 -42 -16l30 -30h202l31 31q-18 15 -41 15zM40 461v-179q0 -24 15 -42l30 30v202l-30 30q-15 -18 -15 -41z M184 263l45 -45h11l9 8l-38 37h-27zM285 65l-46 46h-92l-45 -46h183zM89 12l-20 20l-7 -6q13 -11 27 -14zM90 53l-14 -14l29 -29h28zM96 101l14 -13l14 13l-14 14zM117 122l14 -14l10 10v9l-10 9zM138 143l3 -3v6zM48 130l41 -22l41 41zM103 81l-8 8v-17zM128 56h-27l45 -46 h28zM170 56h-28l46 -46h28zM211 56h-27l45 -46h28zM85 99l-45 25v-50q0 -23 15 -41l30 30v36zM225 56l46 -46h13q5 0 13 2l-44 44h-28zM302 61l30 -29q7 8 11 17l-41 40v-28z" />
<glyph unicode="t" horiz-adv-x="430" d="M399 414h-124v-414h-121v414h-124v120h369v-120zM210 464l-46 -46v-401l46 46v401zM265 292l-46 46v-28l46 -45v27zM219 380v-28l46 -46v28zM265 251l-46 46v-28l46 -46v28zM219 393l46 -45v27l-46 46v-28zM185 469l8 -8l9 8h-17zM173 440l13 14l-15 15h-28zM174 10l-1 2 l-2 -2h3zM193 32l-14 -14l9 -8h28zM214 53l-14 -14l29 -29h28zM219 89v-28l46 -45v28zM219 131v-28l46 -46v28zM219 172v-28l46 -45v27zM219 214v-28l46 -46v28zM219 255v-28l46 -45v27zM219 435l46 -46v28l-46 46v-28zM92 479h244l46 46h-335zM40 432l43 43l-43 43v-86z M51 424l-3 2l-3 -2h6zM69 447l-14 -14l9 -9h28zM90 468l-14 -14l30 -30h28zM383 424l-46 45h-28l46 -45h28zM359 489l-14 -14l45 -44v27zM380 509l-14 -13l24 -24v28zM390 519l-3 -3l3 -2v5zM341 424l-45 45h-28l45 -45h28zM102 469l45 -45h9l10 9l-36 36h-28zM226 469 l46 -45h28l-46 45h-28z" />
<glyph unicode="u" horiz-adv-x="389" d="M237 534h121v-460q0 -30 -21.5 -52t-52.5 -22h-180q-31 0 -52.5 22t-21.5 52v460h120v-413h87v413zM325 25l-31 31h-27l41 -41q8 3 17 10zM247 518v-401l46 -46v401zM348 500l-10 9l-13 -14l23 -23v28zM345 516l3 -3v6zM254 525l43 -43l43 43h-86zM348 85l-46 46v-28 l44 -44q2 10 2 15v11zM302 172v-28l46 -45v27zM302 214v-28l46 -46v28zM302 255v-28l46 -45v27zM302 297v-28l46 -46v28zM302 338v-28l46 -45v27zM302 380v-28l46 -46v28zM302 421v-28l46 -45v27zM302 462v-27l46 -46v28zM318 489l-14 -14l44 -44v27zM285 65l-46 46h-92 l-45 -46h183zM89 12l-20 20l-7 -6q13 -11 27 -14zM90 53l-14 -14l29 -29h28zM95 103l15 -16l14 14l-29 30v-28zM95 255v-28l46 -45v27zM141 140v28l-46 46v-28zM95 297v-28l46 -46v28zM95 338v-28l46 -45v27zM95 380v-28l46 -46v28zM95 421v-28l46 -45v27zM95 144l36 -36 l10 10v8l-46 46v-28zM141 500l-10 9l-14 -14l24 -23v28zM141 458l-31 31l-14 -14l45 -44v27zM138 516l3 -3v6zM46 525l44 -43l43 43h-87zM141 389v28l-46 45v-27zM103 81l-8 8v-17zM128 56h-27l45 -46h28zM170 56h-28l46 -46h28zM211 56h-27l45 -46h28zM85 472l-45 46v-444 q0 -22 15 -42l30 31v409zM225 56l46 -46h13q2 0 6.5 0.5t6.5 0.5l-44 45h-28zM302 61l30 -29q7 8 11 17l-41 40v-28z" />
<glyph unicode="v" d="M238 534h120l-46 -534h-236l-46 534h120l38 -413h13zM292 403l42 -41l2 25l-42 42zM289 365l41 -41l3 25l-42 42zM268 137l42 -42l3 25l-43 43zM265 99l42 -42l2 25l-42 43zM261 61l43 -46l2 29l-42 43zM112 31l-14 -14l7 -7h28zM132 53l-14 -15l29 -28h27zM148 451 l-36 36l-11 -12l50 -54zM132 509l-13 -15l28 -28l-3 31zM142 519l-3 -3l4 -4zM47 525l47 -43l40 43h-87zM155 375l-3 31l-51 55l3 -35zM159 329l-3 31l-51 51l3 -31zM163 284l-3 30l-51 51l3 -30zM167 238l-3 31l-51 51l3 -31zM171 193l-2 30l-51 51l2 -30zM175 147l-2 31 l-51 51l2 -31zM178 117l-1 15l-51 51l3 -31l42 -42zM151 88l14 15l-35 34l3 -30zM136 72l9 9l-11 11zM170 56h-28l46 -46h28zM212 56h-28l46 -46h27zM253 56h-28l46 -46h24zM347 514v4l-2 -2zM253 524l40 -43l47 43h-87zM274 201l-2 -26l42 -42l2 26zM277 239l-2 -26l42 -42 l2 26zM281 277l-3 -26l42 -42l3 26zM284 315l-2 -26l42 -42l2 26zM285 327l42 -41l2 25l-41 42zM297 463l-1 -22l41 -41l2 25zM317 489l-17 -15l40 -37l3 26zM338 509l-14 -13l20 -20l2 26zM289 472l-43 45l-36 -401l42 -45zM244 65l-42 46h-17l-42 -46h101zM90 472l-49 45 l44 -501l42 46z" />
<glyph unicode="w" horiz-adv-x="593" d="M443 534h120l-14 -534h-221l-32 181l-31 -181h-221l-14 534h120l5 -413h14l70 413h114l72 -413h12zM358 29l-12 -16l3 -3h28zM377 52l-13 -16l26 -26h28zM244 198l39 -39l4 24l-39 39zM238 163l39 -39l4 23l-39 39zM231 128l40 -40l4 24l-40 39zM220 63l38 -48l4 26 l-39 40zM87 10l-14 14l-14 -14h28zM92 46l-13 -15l21 -21h28zM145 159l-44 44l1 -28l44 -45zM144 243l-45 45l1 -29l45 -45zM96 387l47 -47v28l-47 47v-28zM143 327l-46 46v-29l47 -46zM108 486l-14 -13v-1l48 -48v29v-1zM141 494l-12 13l-14 -14l26 -27v28zM135 514l6 -6 v11zM46 525l43 -44l44 44h-87zM142 382v28l-47 48v-29zM144 256v29l-46 45v-28zM145 172v29l-45 44l1 -28zM132 103l13 14l-43 44l1 -29zM104 90l8 -9l13 15l-22 22zM106 74l-2 2v-4zM102 56l-3 -3l43 -43h28l-46 46h-22zM165 56h-27l45 -46h28zM213 56h-34l46 -46h25z M322 493l34 -34l-5 33l-15 14zM253 525l43 -45l45 45h-88zM291 275v28l-24 24l-4 -24zM273 362l-4 -24l22 -22v28zM282 409l9 -9v27l-5 5zM291 459l-3 -15l3 -3v18zM291 386l-11 11l-4 -23l15 -16v28zM291 261l-30 31l-4 -24l34 -35v28zM229 116l-4 -23l40 -40l4 24z M254 257l-4 -24l39 -39l3 16v10zM368 392l-56 55l7 -34l55 -55zM383 308l-6 33l-55 56l6 -34zM392 257l-6 34l-55 55l6 -34zM400 207l-5 34l-55 54l7 -34zM409 157l-6 34l-53 53l6 -34zM416 116l-4 24l-53 54l6 -35l48 -47zM394 89l13 15l-39 39l7 -34zM381 73l7 8l-10 11z M414 56h-28l46 -46h28zM456 56h-28l45 -46h28zM491 56h-22l46 -46h18zM499 472l-47 47l-5 -401l42 -46zM543 134l-42 42l-1 -27l42 -42zM502 216l-1 -27l42 -42l1 27zM503 257l-1 -27l42 -42l1 27zM504 297l-1 -27l42 -42l1 27zM505 338l-1 -27l42 -43l1 27zM505 351l43 -42 v27l-42 42zM507 415l-1 -24l43 -42v23zM508 455l-1 -27l43 -42v27zM508 472v-4l43 -42v27l-31 31zM527 491l25 -25v28l-11 11zM553 517l-5 -5l5 -5v10zM461 524l43 -43l43 43h-86zM499 95l-1 -33l42 -45l1 36zM500 135l-1 -27l42 -41l1 27zM482 65l-42 46h-15l-37 -46h94z M307 477l2 -13l56 -56l-6 34l-44 44zM343 513l5 -4l-2 7zM211 73l74 405l-39 40l-69 -403zM205 65l-37 46h-15l-42 -46h94zM85 472l-45 45l13 -500l42 45zM301 458v-248l34 -195l38 48z" />
<glyph unicode="x" horiz-adv-x="376" d="M346 533l-86 -266l86 -267h-128l-30 116l-30 -116h-128l86 267l-86 267l121 -1l37 -115l37 115h121zM253 107l15 -45l62 -46l-6 21zM144 9l-33 43l-22 -16l27 -27h28zM122 73l-4 -13l34 -45l6 22zM132 104l-7 -21l35 -35l6 22zM142 136l-7 -21l34 -34l6 22zM152 167 l-7 -21l32 -32l6 21v1zM175 240l8 -7v31zM121 461l62 -62v3l-12 36l-47 47l-7 -12zM146 517l-16 -24l35 -35zM56 524l54 -43l28 43h-82zM183 357v28l-56 56l14 -41zM183 316v28l-36 35l13 -41zM183 268v34l-16 16zM183 219l-11 11l-7 -21l18 -18v28zM183 178l-21 21l-7 -21 l28 -28v28zM230 517l-37 -116v-134l66 206zM210 289l48 -49l-8 27l2 7l-35 36zM206 279l-4 -13l6 -17l70 -70l-13 41zM227 341l-7 -21l35 -35l7 21zM237 373l-7 -21l36 -36l6 21zM247 404l-7 -21l36 -36l6 21zM257 435l-7 -21l36 -35l7 21zM267 467l-7 -21l36 -36l7 21z M289 487l-16 -12l33 -33l7 21zM312 505l-16 -12l20 -20l7 21zM332 521l-13 -10l7 -7zM238 524l28 -43l54 43h-82zM297 118l-13 41l-70 70l13 -41zM317 57l-13 41l-70 70l13 -41zM107 471l-63 50l82 -254l-81 -251l63 46l65 204zM102 9l-21 21l-28 -21h49zM193 265v-129 l31 -121l34 45zM268 9l-20 21l-16 -21h36zM254 38l28 -29h41l-58 43z" />
<glyph unicode="y" horiz-adv-x="376" d="M185 408l39 126h122l-101 -322v-212h-121v212l-94 322h122zM144 10l-2 2l-1 -2h3zM163 32l-14 -13l9 -9h28zM184 53l-14 -14l29 -29h28zM237 525l33 -43l54 43h-87zM189 261l75 213l-35 45l-40 -130v-128zM112 474l1 -5l62 -61l-10 37l-43 43zM146 519l-18 -23l33 -32z M51 525l54 -43l34 43h-88zM180 361v28l-60 60l13 -41zM180 320v28l-40 40l13 -41zM180 263v43l-21 21zM189 89v-28l46 -45v28zM189 131v-28l46 -46v28zM189 172v-28l46 -45v27zM189 214v-28l46 -46v28zM189 232v-5l46 -46v28l-40 40zM206 280l-7 -21l39 -38l6 21zM217 311 l-7 -21l37 -38l7 21zM228 341l-8 -20l37 -37l7 21zM238 372l-7 -20l36 -37l7 22zM249 403l-7 -21l35 -35l7 21zM260 434l-7 -21l34 -34l7 21zM270 464l-7 -20l34 -34l6 22zM291 486l-16 -13l32 -31l6 21zM312 503l-14 -11l19 -18l6 20zM330 517l-10 -8l6 -5zM103 471l-58 47 l89 -305v-196l46 46v169z" />
<glyph unicode="z" horiz-adv-x="392" d="M204 121h156v-121h-330l158 414h-156v120h330zM94 10l-18 17l-24 -17h42zM101 44l-17 -11l23 -23h28zM117 56l-8 -6l40 -40h27l-45 46h-14zM191 120l-34 34l-7 -20l25 -25zM167 103l-21 21l-8 -20l12 -13zM142 86l-8 8l-7 -19zM172 56h-27l45 -46h28zM214 56h-28l46 -46 h27zM255 56h-27l45 -46h28zM297 56h-28l46 -46h27zM320 74l-14 -14l44 -44v27zM341 95l-14 -14l23 -24v28zM350 99v5l-2 -3zM298 65l45 46h-148l-65 -46h168zM161 163l35 -35l8 21l-35 35zM289 479l-9 -6l-4 -10l35 -35l8 20zM313 496l-16 -12l26 -26l8 20zM338 513l-17 -12 l13 -13l8 20zM95 479h177l66 46h-289zM42 432l43 43l-43 43v-86zM53 424l-3 2l-2 -2h5zM71 447l-14 -14l10 -9h28zM92 468l-14 -14l30 -30h28zM132 469h-28l46 -45h28zM191 424h1l16 11l-34 34h-28zM187 469l29 -29l17 12l-18 17h-28zM229 469l12 -12l17 12h-29zM307 418 l-35 35l-7 -20l35 -35zM296 388l-35 35l-8 -20l35 -35zM284 358l-35 35l-7 -20l35 -35zM273 328l-35 35l-8 -20l35 -35zM261 298l-35 35l-7 -20l35 -35zM250 268l-35 36l-8 -21l35 -35zM238 239l-35 35l-7 -21l35 -35zM227 209l-35 35l-8 -21l35 -35zM215 179l-35 35l-7 -21 l35 -35zM266 463l-66 -46l-153 -399l66 47z" />
<glyph unicode="{" horiz-adv-x="342" d="M231 0h81v-119h-127q-30 0 -51.5 21t-21.5 52v337h-82v120h82v335q0 31 21.5 52.5t51.5 21.5h127v-120h-81v-700zM171 -108l-21 20l-6 -6q11 -11 27 -14zM171 -67l-14 -14l29 -29h28zM100 345l30 -30l14 14l-17 16h-27zM49 300l-1 2l-2 -2h3zM68 322l-14 -14l8 -8h28z M39 393v-86l43 44zM141 345l9 -9l10 9h-19zM222 676v27l-46 45v-27zM176 -18l15 -15l14 14l-29 29v-28zM176 462v-28l46 -45v27zM222 347v28l-46 46v-28zM176 503v-28l46 -45v28zM176 544v-28l46 -45v28zM176 585v-28l46 -45v28zM176 625v-27l46 -45v28zM176 707v-27l46 -45 v27zM176 666v-27l46 -46v28zM222 306v27l-46 47v-28zM176 132v-27l46 -45v28zM222 19v28l-46 45v-28zM176 173v-28l46 -44v27zM176 214v-27l46 -46v28zM176 255v-27l46 -46v28zM176 296v-27l46 -45v27zM176 337v-27l46 -45v27zM176 23l36 -36l10 10v8l-46 46v-28zM185 -40 l-9 9v-17zM209 -65h-27l45 -45h28zM251 -65h-28l44 -45h28zM273 -46l-13 -14l43 -44v28zM293 -26l-13 -14l23 -23v28zM303 -17l-3 -2l3 -3v5zM252 -55l44 45h-68l-45 -45h69zM183 755l45 -45h28l-45 45h-28zM303 799v5l-3 -2zM303 785l-10 10l-14 -14l24 -23v27zM303 744 l-30 30l-13 -13l43 -44v27zM296 710l-44 45h-28l44 -45h28zM251 765l44 45h-110q-23 0 -41 -15l29 -30h78zM167 758l-30 30q-15 -16 -15 -42v-339l45 -46v397zM159 356l-45 45h-69l45 -45h69zM75 329l28 -29h12l8 8l-34 35zM167 339l-45 -46v-339q0 -26 15 -42l30 30v397z " />
<glyph unicode="|" horiz-adv-x="176" d="M30 -46v796h116v-796h-116zM46 741l41 -42l42 42h-83zM137 196l-44 44v-27l44 -44v27zM83 14v676l-44 44v-764zM49 -37l-2 2l-1 -2h3zM67 -15l-13 -13l8 -9h27zM87 5l-13 -13l28 -29h27zM93 40v-27l44 -44v27zM93 80v-27l44 -44v27zM93 120v-27l44 -44v27zM93 160v-27 l44 -44v27zM93 200v-27l44 -44v27zM93 280v-27l44 -44v27zM93 320v-27l44 -44v27zM93 360v-27l44 -44v27zM93 400v-27l44 -44v27zM93 440v-27l44 -44v27zM93 480v-27l44 -44v27zM93 520v-27l44 -44v27zM93 560v-27l44 -44v27zM93 601v-28l44 -44v27zM93 641v-28l44 -44v28z M93 681v-28l44 -44v28zM107 705l-13 -13l43 -43v28zM127 725l-13 -13l23 -23v28zM137 735l-3 -3l3 -3v6z" />
<glyph unicode="}" horiz-adv-x="343" d="M230 745v-336h83v-118h-83v-337q0 -30 -21 -51.5t-51 -21.5h-128v119h82v700h-82v119h128q29 0 50.5 -21.5t21.5 -52.5zM297 301l-46 45h-28l46 -45h28zM275 364l-15 -14l44 -43v28zM295 384l-13 -13l22 -23v28zM304 393l-2 -2l2 -1v3zM252 355l46 45h-69l-46 -45h69z M167 747l-45 -45v-705l45 -45v795zM51 709l-2 2l-3 -2h5zM69 732l-14 -14l9 -9h28zM40 803v-87l43 44zM205 787l-7 -7l21 -21q-3 16 -14 28zM221 88l-46 45v-28l46 -45v28zM175 174v-28l46 -45v28zM175 215v-28l46 -45v28zM175 256v-27l46 -46v28zM175 297v-27l46 -46v28z M175 338v-27l46 -46v28zM175 585v-29l46 -45v27zM221 470v27l-46 45v-27zM175 626v-28l46 -46v27zM175 667v-28l46 -45v27zM175 707v-28l46 -44v28zM221 456l-46 45v-27l46 -45v27zM175 720l46 -44v27l-46 45v-28zM221 47l-46 45v-28l46 -45v28zM185 370l-10 9v-18zM175 393 l16 -16l14 14l-30 28v-26zM175 433l37 -37l9 9v10l-46 45v-27zM221 744l-30 29l-13 -14l43 -43v28zM142 754l9 -9l9 9h-18zM145 739l-16 15h-28l30 -29zM198 -95l-29 30h-28l40 -40q8 3 17 10zM175 -31v-27l30 -30q7 9 10 17zM175 10v-28l44 -43q2 10 2 15v11zM175 51v-28 l46 -45v28zM170 764l29 30q-20 15 -41 15h-110l45 -45h77zM76 739l30 -30h9l9 9l-34 34zM160 -55l-45 45h-69l46 -45h68zM83 -60l-43 43v-87zM50 -110l-1 1l-1 -1h2zM69 -88l-14 -14l8 -8h28zM90 -68l-14 -13l28 -29h28zM100 -65l45 -45h13q5 0 13 2l-43 43h-28zM182 346 l45 -45h28l-45 45h-28z" />
<glyph unicode="&#xa1;" horiz-adv-x="180" d="M30 617h120v-120h-120v120zM140 583l-8 9l-14 -14l22 -23v28zM138 599l2 -2v4zM47 608l43 -44l44 44h-87zM40 514l43 43l-43 44v-87zM51 507l-2 2l-3 -2h5zM69 530l-13 -14l9 -9h27zM90 551l-14 -14l30 -30h28zM111 571l-14 -14l43 -43v28zM30 -83v533h120v-533h-120z M46 441l44 -43l43 43h-87zM140 2l-45 45v-27l45 -46v28zM85 -21v409l-45 46v-500zM50 -73l-2 2l-2 -2h4zM69 -51l-14 -14l8 -8h28zM89 -30l-13 -14l29 -29h27zM95 6v-28l45 -45v27zM95 89v-28l45 -46v28zM95 130v-28l45 -45v28zM95 172v-28l45 -46v28zM95 213v-28l45 -45v27 zM95 254v-27l45 -46v28zM95 296v-28l45 -45v27zM95 337v-28l45 -45v28zM95 379v-28l45 -46v28zM110 405l-14 -14l44 -44v27zM131 425l-14 -13l23 -24v28zM140 435l-2 -3l2 -3v6z" />
<glyph unicode="&#xa2;" horiz-adv-x="429" d="M279 244v55l120 28v-129q0 -31 -21.5 -52.5t-52.5 -21.5h-51v-124h-120v124h-50q-31 0 -52.5 21.5t-21.5 52.5v303q0 31 21.5 52.5t52.5 21.5h50v125h120v-125h51q31 0 52.5 -21.5t21.5 -52.5v-101l-120 -28v83h-129v-211h129zM389 305v4l-2 -2zM389 264v28l-8 8l-14 -14 zM346 266l43 -44v28l-29 30zM338 271l41 41l-82 -19zM334 262l-46 25v-47l46 -45v67zM326 189l-46 46h-133l-45 -46h224zM202 179h-19l10 -9zM172 149l14 14l-16 16h-28zM140 388v28l-45 46v-28zM95 503v-28l45 -45v28zM140 347v28l-45 45v-28zM140 305v28l-45 46v-28z M140 264v28l-45 45v-28zM140 242v8l-45 46v-28l36 -36zM110 211l14 14l-29 29v-27zM95 196l8 8l-8 9v-17zM102 510l45 -46h28l-46 46h-27zM143 510l46 -46h28l-46 46h-28zM185 510l45 -46h28l-46 46h-27zM241 661l24 -23v27l-10 10zM265 596v28l-31 30l-14 -14zM265 574v8 l-46 46v-28l36 -36zM234 543l14 14l-29 30v-28zM219 527l8 10l-8 8v-18zM226 510l46 -46h8l10 10l-36 36h-28zM297 481l14 14l-16 15h-27zM326 510h-17l9 -8zM334 504l-46 -45v-69l46 45v69zM304 391l3 -3l22 5l-11 12zM324 412l16 -16l23 5l-25 25zM363 415l11 -11l7 1z M344 436l45 -24v4l-45 46v-26zM344 475l45 -45v28l-45 45v-28zM389 471v28l-30 30l-14 -13zM366 536l22 -22q-3 16 -15 30zM336 520l30 30q-16 15 -41 15h-55l-47 -45h113zM265 679v6l-3 -3zM214 647l43 43h-87zM209 638l-45 45v-110l45 -47v112zM157 565h-53q-26 0 -42 -15 l30 -30h112zM39 501v-303q0 -24 16 -42l30 30v327l-30 30q-16 -18 -16 -42zM69 156l-7 -7q13 -10 27 -14zM75 163l30 -29h27l-43 43zM146 134h11l8 8l-37 37h-28zM209 173l-45 -46v-111l45 46v111zM173 12l-2 -2h4zM179 18l8 -8h28l-22 22zM200 39l29 -29h28l-43 43zM219 61 l46 -46v28l-46 46v-28zM219 102l46 -45v28l-46 45v-28zM265 98v28l-46 46v-28zM225 179l46 -45h27l-45 45h-28zM312 134h13q9 0 13 1l-44 44h-28zM308 179l41 -41q12 6 17 11l-30 30h-28zM344 185l29 -30q6 7 11 17l-40 41v-28zM344 227l44 -44q1 5 1 15v11l-45 45v-27z" />
<glyph unicode="&#xa3;" horiz-adv-x="470" d="M30 0v121h83v128h-83v121h83v256q0 31 21.5 52.5t52.5 21.5h180q30 0 51.5 -21.5t21.5 -52.5v-102l-120 -29v85h-87v-210h124v-121h-124v-128h207v-121h-410zM168 299l-46 -46v-136l46 -47v229zM49 259l-1 2l-2 -2h3zM69 281l-14 -14l8 -8h28zM39 352v-86l43 43zM223 555 v28l-45 46v-28zM431 99v5l-3 -2zM431 85l-10 10l-14 -14l24 -24v28zM431 44l-31 30l-14 -14l45 -44v28zM423 10l-46 46h-28l46 -46h28zM381 10l-45 46h-28l45 -46h28zM340 10l-46 46h-28l46 -46h28zM298 10l-45 46h-28l45 -46h28zM257 10l-46 46h-28l46 -46h28zM223 168 l-45 46v-28l45 -46v28zM178 255v-28l45 -45v27zM186 81l-8 8v-18zM178 103l15 -15l14 14l-29 29v-28zM178 144l36 -36l9 10v8l-45 46v-28zM178 269l45 -46v28l-45 47v-29zM178 504v-28l45 -45v27zM223 389v28l-45 46v-28zM178 546v-28l45 -46v28zM178 587v-28l45 -45v27z M178 352l15 -16l14 14l-29 30v-28zM178 320l8 10l-8 8v-18zM178 393l36 -36l9 10v8l-45 46v-28zM142 305l10 -10l11 10h-21zM145 288l-17 17h-28l31 -31zM187 10h28l-45 46h-28zM174 10l-46 46h-28l46 -46h28zM49 10l-1 2l-2 -2h3zM69 32l-14 -14l8 -8h28zM89 53l-14 -14 l30 -29h27zM39 103v-86l43 43zM378 65l46 46h-194l-46 -46h194zM182 305l47 -46h28l-46 46h-29zM348 348v5l-3 -3zM348 334l-10 10l-14 -14l24 -24v28zM348 292l-31 31l-13 -14l44 -44v27zM340 259l-46 46h-28l46 -46h28zM298 259l-45 46h-28l45 -46h28zM296 314l45 46h-111 l-48 -46h114zM185 635l45 -45h28l-46 45h-27zM299 590l-45 45h-28l46 -45h27zM268 635l45 -45h9l9 9l-36 36h-27zM431 624l-31 31l-13 -14l44 -44v27zM375 630l-45 -46v-70l45 46v70zM372 518l-13 12l-20 -20zM380 551l-14 -14l17 -17l22 6zM424 530l-20 10l12 -12zM385 587 v-27l46 -22v3zM385 629v-28l46 -46v28zM351 635l8 -8l8 8h-16zM352 620l-15 15h-28l29 -29zM407 662l23 -23q-4 18 -15 30zM367 691h-180q-24 0 -42 -16l30 -30h202l31 31q-18 15 -41 15zM168 638l-30 30q-16 -18 -16 -42v-260l46 -47v319zM161 314l-47 46h-69l46 -46h70z M75 288l30 -29h11l8 8l-35 35zM161 65l-47 46h-69l46 -46h70z" />
<glyph unicode="&#xa5;" horiz-adv-x="412" d="M268 411h82v-120h-83v-46h83v-120h-84v-125h-120v125h-82v120h82v46h-82v120h81l-115 289h122l54 -131l54 131h122zM332 134l-46 46h-28l46 -46h28zM310 198l-14 -14l44 -44v28zM330 219l-14 -14l24 -23v27zM340 229l-3 -3l3 -3v6zM217 190h70l46 45h-69zM201 173 l-45 -46v-110l45 46v110zM84 134l-2 2l-1 -2h3zM103 157l-14 -14l8 -9h28zM74 227v-86l43 43zM84 300l-2 2l-1 -2h3zM103 323l-14 -14l8 -9h28zM74 393v-86l43 43zM247 399l9 9l3 7l-36 35l-8 -19zM211 269l36 -36l10 9v9l-46 46v-28zM176 180l10 -10l10 10h-20zM176 346 l10 -10l10 10h-20zM201 527v28l-74 75l19 -47zM201 486v28l-46 46l19 -47zM201 445v27l-18 19zM211 310l46 -46v28l-46 47v-29zM220 205l-9 9v-18zM211 227l16 -15l13 14l-29 29v-28zM220 371l-9 9v-18zM211 393l16 -15l13 14l-29 29v-28zM235 480l-8 -20l36 -36l8 20z M247 509l-8 -19l36 -36l8 20zM259 539l-8 -20l35 -35l8 20zM271 568l-8 -20l35 -34l8 20zM283 598l-8 -20l35 -35l8 20zM295 625l-8 -18l35 -34l8 20zM300 637l-1 -2l34 -32l8 20l-27 24zM338 664l-16 -11l23 -21l8 20zM365 683l-19 -13l11 -8zM272 691l26 -43l61 43h-87z M211 446l80 195l-27 44l-53 -130v-109zM135 663l-10 -18l67 -66l-19 47zM148 685l-8 -14l23 -22zM54 691l61 -43l26 43h-87zM201 419l-87 218l-67 47l109 -276l45 -46v57zM195 356l-46 45h-70l46 -45h70zM179 330l-16 16h-28l30 -30zM201 196v143l-45 -46v-51zM125 190h70 l-46 45h-70zM179 164l-16 16h-28l30 -30zM166 10l-2 2l-1 -2h3zM185 32l-14 -14l8 -8h28zM206 53l-14 -14l29 -29h28zM211 89v-28l46 -45v27zM211 131v-28l46 -46v28zM211 144l46 -45v27l-46 47v-29zM333 401h-69l-47 -45h70zM332 300l-46 46h-28l46 -46h28zM310 364 l-14 -14l44 -44v28zM330 385l-14 -14l24 -23v27zM340 395l-3 -3l3 -3v6zM110 330l29 -30h11l8 9l-34 35zM110 164l29 -30h11l8 9l-34 35zM216 180l46 -46h28l-45 46h-29zM216 346l47 -46h27l-45 46h-29z" />
<glyph unicode="&#xa7;" d="M150 503h134q31 0 52.5 -22t21.5 -52v-430q0 -30 -21.5 -52t-52.5 -22h-180q-31 0 -52.5 22t-21.5 52v50v53l120 28v-84h88v129h-134q-31 0 -52.5 21.5t-21.5 52.5v427q0 31 21.5 52.5t52.5 21.5h180q31 0 52.5 -21.5t21.5 -52.5v-101l-120 -28v83h-88v-127zM325 -50 l-30 31h-28l41 -41q8 3 17 10zM247 177v-135l46 -46v227zM90 186l-21 21l-7 -7q13 -11 28 -14zM90 227l-14 -14l29 -29h28zM141 605v28l-46 46v-28zM267 230l9 -10l10 10h-19zM293 431l-46 -46v-94l46 -46v186zM267 437l9 -9l10 9h-19zM270 421l-17 16h-28l31 -30zM249 400 l-37 37h-28l47 -46h8zM238 294v87h-88v-87h88zM217 391l-47 46h-28l47 -46h28zM175 391l-46 46h-28l47 -46h27zM95 277l15 -15l14 14l-29 29v-28zM95 637v-28l46 -45v27zM141 522v28l-46 46v-28zM141 342l-46 46v-28l46 -46v28zM95 429v-27l46 -46v28zM95 319l36 -37l10 10 v9l-46 45v-27zM104 462l-9 9v-17zM95 485l15 -16l14 14l-29 29v-27zM95 526l36 -36l10 10v8l-46 46v-28zM104 255l-9 8v-17zM129 230h-28l45 -46h28zM170 230h-28l46 -46h28zM146 284l-44 -44h183l-45 44h-94zM270 213l-17 17h-28l31 -31zM348 10l-45 46v-28l43 -44 q2 5 2 15v11zM303 97v-28l45 -45v28zM303 139v-28l45 -46v28zM303 180v-28l45 -45v28zM303 222v-28l45 -46v28zM303 263v-27l45 -46v28zM303 305v-28l45 -46v28zM303 346v-27l45 -46v28zM303 388v-28l45 -46v28zM303 429v-27l45 -46v28zM318 456l-14 -14l44 -45v28zM333 470 l-8 -8l22 -22q-3 18 -14 30zM284 493h-136l-46 -46h194l30 30q-18 16 -42 16zM102 685l46 -45h27l-45 45h-28zM217 640l-46 45h-28l46 -45h28zM185 685l46 -45h8l10 9l-36 36h-28zM348 674l-30 31l-14 -14l44 -44v27zM293 680l-46 -46v-69l46 45v70zM276 580l-13 -14l2 -3 l23 6zM297 601l-14 -14l16 -16l23 6zM340 581l-18 9l11 -11zM303 637v-26l45 -24v4zM303 679v-28l45 -46v28zM268 685l8 -8l9 8h-17zM270 670l-16 15h-28l30 -29zM325 712l22 -23q-3 16 -15 30zM284 741h-180q-24 0 -42 -16l30 -30h203l30 31q-18 15 -41 15zM40 676v-427 q0 -24 15 -42l30 30v451l-30 30q-15 -18 -15 -42zM184 230l45 -46h11l9 9l-37 37h-28zM285 -10l-46 46h-91l-46 -46h183zM90 -63l-21 20l-7 -6q13 -11 28 -14zM90 -22l-14 -14l29 -29h28zM95 28l15 -15l14 14l-29 29v-28zM96 68l35 -35l10 10v9l-31 30zM141 93l-10 10 l-14 -14l24 -24v28zM138 110l3 -3v5zM48 96l41 -21l41 40zM104 6l-9 8v-17zM129 -19h-28l45 -46h28zM170 -19h-28l46 -46h28zM212 -19h-28l45 -46h28zM85 66l-45 24v-41v-50q0 -23 15 -41l30 30v78zM225 -19l46 -46h13q3 0 7 0.5t6 0.5l-44 45h-28zM303 -14l29 -29 q5 5 11 17l-40 40v-28z" />
<glyph unicode="&#xa9;" horiz-adv-x="678" d="M104 700h470q31 0 52.5 -21.5t21.5 -52.5v-552q0 -30 -21.5 -52t-52.5 -22h-470q-31 0 -52.5 22t-21.5 52v552q0 31 21.5 52.5t52.5 21.5zM89 12l-20 20l-7 -6q13 -11 27 -14zM90 53l-14 -14l29 -29h28zM558 635l9 -8l8 8h-17zM560 620l-15 15h-28l29 -29zM539 599 l-36 36h-28l46 -45h9zM528 121v459h-378v-459h378zM507 590l-45 45h-28l45 -45h28zM466 590l-46 45h-28l46 -45h28zM424 590l-46 45h-27l45 -45h28zM383 590l-46 45h-28l46 -45h28zM341 590l-46 45h-27l45 -45h28zM300 590l-46 45h-28l46 -45h28zM258 590l-46 45h-27l45 -45 h28zM217 590l-46 45h-28l46 -45h28zM175 590l-45 45h-28l45 -45h28zM95 103l15 -15l14 13l-29 30v-28zM95 255v-28l46 -45v27zM141 140v28l-46 46v-28zM95 297v-28l46 -46v28zM95 338v-28l46 -45v27zM95 380v-28l46 -46v28zM95 421v-28l46 -45v27zM95 463v-28l46 -46v28z M95 504v-28l46 -45v27zM95 546v-28l46 -46v28zM95 587v-28l46 -45v27zM95 144l36 -36l10 10v8l-46 46v-28zM141 555v28l-46 46v-28zM103 81l-8 8v-17zM128 56h-27l45 -46h28zM170 56h-28l46 -46h27zM211 56h-28l46 -46h28zM253 56h-28l46 -46h27zM294 56h-28l46 -46h28z M336 56h-28l46 -46h27zM377 56h-28l46 -46h28zM419 56h-28l46 -46h28zM460 56h-27l45 -46h28zM502 56h-28l46 -46h28zM147 111l-45 -46h473l-45 46h-383zM616 25l-31 31h-28l41 -41q6 2 18 10zM538 584v-467l45 -46v559zM639 85l-46 46v-28l44 -44q2 10 2 15v11zM593 172 v-28l46 -45v27zM593 214v-28l46 -46v28zM593 255v-28l46 -45v27zM593 297v-28l46 -46v28zM593 338v-28l46 -45v27zM593 380v-28l46 -46v28zM593 421v-28l46 -45v27zM593 463v-28l46 -46v28zM593 504v-28l46 -45v27zM593 546v-28l46 -46v28zM593 587v-28l46 -45v27zM593 629 v-28l46 -46v28zM608 655l-14 -14l45 -44v27zM622 669l-7 -7l22 -23q-3 18 -15 30zM574 691h-470q-24 0 -42 -16l30 -30h493l31 31q-20 15 -42 15zM40 626v-552q0 -22 15 -42l30 31v575l-30 30q-15 -18 -15 -42zM516 56l45 -46h13q2 0 7 0.5t7 0.5l-45 45h-27zM593 61l29 -29 q8 8 11 17l-40 40v-28zM409 166h-139q-31 0 -52.5 22t-21.5 52v220q0 31 21.5 52.5t52.5 21.5h139q30 0 51.5 -21.5t21.5 -52.5v-59l-120 -28v41h-45v-127h45v21l120 26v-94q0 -30 -21.5 -52t-51.5 -22zM307 389v28l-46 46v-28zM261 269l15 -15l14 13l-29 30v-28zM261 421 v-28l46 -45v27zM307 306v28l-46 46v-28zM261 310l36 -36l10 10v8l-46 46v-28zM270 247l-9 8v-17zM382 176l-46 46h-28l46 -46h28zM340 176l-45 46h-28l45 -46h28zM299 176l-43 43l-14 -14l29 -29h28zM256 178l-21 20l-7 -6q13 -11 28 -14zM350 222l45 -46h14q2 0 6.5 0.5 t6.5 0.5l-44 45h-28zM417 270l-45 26v-13l45 -46v33zM473 251l-33 33l-13 -13v-2l44 -44q2 10 2 15v11zM380 302l41 -23l41 41zM450 191l-31 31h-28l41 -41q9 2 18 10zM427 227l30 -29q7 8 11 17l-41 40v-28zM409 231l-45 46h-50l-46 -46h141zM268 469l46 -45h27l-45 45h-28 zM310 469l45 -45h9l9 9l-36 36h-27zM473 458l-31 31l-13 -14l44 -44v27zM417 464l-45 -46v-28l45 46v28zM401 406l-14 -14l3 -3l23 5zM422 427l-14 -14l16 -16l22 5zM464 406l-18 10l11 -11zM427 463v-26l46 -24v4zM392 469l9 -8l8 8h-17zM394 454l-15 15h-28l29 -29z M449 496l23 -23q-4 18 -15 30zM409 525h-139q-23 0 -42 -16l30 -30h161l31 31q-18 15 -41 15zM206 460v-220q0 -22 15 -42l31 31v243l-31 30q-15 -18 -15 -42zM473 292l-12 13l-14 -14l26 -26v27zM468 312l5 -6v11z" />
<glyph unicode="&#xaa;" d="M358 460v-460h-120v124h-88v-124h-120v460q0 31 21.5 52.5t52.5 21.5h180q31 0 52.5 -21.5t21.5 -52.5zM293 173l-46 -45v-112l46 46v111zM216 134l-46 46h-28l46 -46h28zM148 235l-46 -46h183l-46 46h-91zM50 9l-2 2l-1 -2h3zM69 32l-14 -14l8 -9h28zM90 53l-14 -14 l29 -30h28zM267 180l9 -10l10 10h-19zM293 464l-46 -46v-177l46 -46v269zM268 469l8 -8l9 8h-17zM270 454l-16 15h-28l30 -29zM249 433l-36 36h-28l46 -46h8zM238 245v169h-88v-169h88zM217 423l-46 46h-28l46 -46h28zM175 423l-45 46h-28l46 -46h27zM141 84l-46 46v-28 l46 -45v27zM95 379v-28l46 -45v28zM141 264v28l-46 46v-28zM95 421v-28l46 -46v28zM104 205l-9 8v-17zM95 227l15 -15l14 13l-29 30v-28zM95 268l36 -36l10 10v9l-46 45v-28zM141 389v28l-46 45v-28zM95 89v-28l46 -46v28zM95 172v-28l46 -46v28zM270 163l-17 17h-28l31 -31 zM257 9l-1 2l-2 -2h3zM276 32l-13 -14l8 -9h28zM297 53l-14 -14l29 -30h28zM303 89v-28l45 -46v28zM303 130v-28l45 -45v27zM303 172v-28l45 -46v28zM303 213v-28l45 -45v28zM303 255v-28l45 -46v28zM303 296v-28l45 -45v28zM303 338v-28l45 -46v28zM303 379v-28l45 -45v28z M303 421v-28l45 -46v28zM303 462v-28l45 -45v28zM318 489l-14 -14l44 -45v28zM332 503l-7 -8l22 -22q-3 14 -15 30zM284 525h-180q-24 0 -42 -16l30 -30h203l30 31q-18 15 -41 15zM85 472l-30 30q-15 -18 -15 -42v-444l45 46v410zM101 180l45 -46h28l-45 46h-28zM184 180 l45 -46h12l8 8l-37 38h-28z" />
<glyph unicode="&#xab;" horiz-adv-x="551" d="M181 277l89 -89l-86 -86l-174 175l173 173l86 -86zM212 321l-33 32l-14 -14l33 -32zM214 359h-28l33 -32l13 15zM252 359h-23l11 -10zM188 432v-62h62zM94 281l85 85v66l-150 -151h65zM179 186l-85 86h-28l113 -113v27zM127 281l-10 9l-9 -9h19zM124 298l16 -17h28 l-31 30zM179 145l-128 127h-22l150 -150v23zM197 127l-9 7v-14zM188 177v-27l16 -16l13 15zM224 183h-27l27 -28l14 14zM252 183h-14l7 -6zM186 193h65l-79 79h-64zM144 318l34 -33l13 15l-33 33zM432 277l89 -89l-86 -86l-174 175l173 173l86 -86zM463 321l-33 32l-14 -14 l33 -32zM465 359h-28l33 -32l13 15zM503 359h-23l11 -10zM439 432v-62h62zM345 281l85 85v66l-150 -151h65zM430 186l-85 86h-28l113 -113v27zM378 281l-10 9l-9 -9h19zM375 298l16 -17h28l-31 30zM430 145l-128 127h-22l150 -150v23zM448 127l-9 7v-14zM439 177v-27l16 -16 l13 15zM475 183h-27l27 -28l14 14zM503 183h-14l7 -6zM437 193h65l-79 79h-64zM395 318l34 -33l13 15l-33 33z" />
<glyph unicode="&#xad;" horiz-adv-x="304" d="M30 327h244v-120h-244v120zM264 305v5l-3 -3zM91 271h121l45 46h-212zM39 223l43 43l-43 43v-86zM49 216l-1 2l-2 -2h3zM69 239l-14 -14l8 -9h28zM89 259l-14 -14l29 -29h28zM128 262h-28l46 -46h28zM169 262h-27l45 -46h28zM211 262h-28l46 -46h27zM234 280l-14 -14 l44 -44v28zM255 301l-14 -14l23 -24v28z" />
<glyph unicode="&#xae;" horiz-adv-x="678" d="M104 700h470q31 0 52.5 -21.5t21.5 -52.5v-552q0 -30 -21.5 -52t-52.5 -22h-470q-31 0 -52.5 22t-21.5 52v552q0 31 21.5 52.5t52.5 21.5zM89 12l-20 20l-7 -6q13 -11 27 -14zM90 53l-14 -14l29 -29h28zM558 635l9 -8l8 8h-17zM560 620l-15 15h-28l29 -29zM539 599 l-36 36h-28l46 -45h9zM528 121v459h-378v-459h378zM507 590l-45 45h-28l45 -45h28zM466 590l-46 45h-28l46 -45h28zM424 590l-46 45h-27l45 -45h28zM383 590l-46 45h-28l46 -45h28zM341 590l-46 45h-27l45 -45h28zM300 590l-46 45h-28l46 -45h28zM258 590l-46 45h-27l45 -45 h28zM217 590l-46 45h-28l46 -45h28zM175 590l-45 45h-28l45 -45h28zM95 103l15 -15l14 13l-29 30v-28zM95 255v-28l46 -45v27zM141 140v28l-46 46v-28zM95 297v-28l46 -46v28zM95 338v-28l46 -45v27zM95 380v-28l46 -46v28zM95 421v-28l46 -45v27zM95 463v-28l46 -46v28z M95 504v-28l46 -45v27zM95 546v-28l46 -46v28zM95 587v-28l46 -45v27zM95 144l36 -36l10 10v8l-46 46v-28zM141 555v28l-46 46v-28zM103 81l-8 8v-17zM128 56h-27l45 -46h28zM170 56h-28l46 -46h27zM211 56h-28l46 -46h28zM253 56h-28l46 -46h27zM294 56h-28l46 -46h28z M336 56h-28l46 -46h27zM377 56h-28l46 -46h28zM419 56h-28l46 -46h28zM460 56h-27l45 -46h28zM502 56h-28l46 -46h28zM147 111l-45 -46h473l-45 46h-383zM616 25l-31 31h-28l41 -41q6 2 18 10zM538 584v-467l45 -46v559zM639 85l-46 46v-28l44 -44q2 10 2 15v11zM593 172 v-28l46 -45v27zM593 214v-28l46 -46v28zM593 255v-28l46 -45v27zM593 297v-28l46 -46v28zM593 338v-28l46 -45v27zM593 380v-28l46 -46v28zM593 421v-28l46 -45v27zM593 463v-28l46 -46v28zM593 504v-28l46 -45v27zM593 546v-28l46 -46v28zM593 587v-28l46 -45v27zM593 629 v-28l46 -46v28zM608 655l-14 -14l45 -44v27zM622 669l-7 -7l22 -23q-3 18 -15 30zM574 691h-470q-24 0 -42 -16l30 -30h493l31 31q-20 15 -42 15zM40 626v-552q0 -22 15 -42l30 31v575l-30 30q-15 -18 -15 -42zM516 56l45 -46h13q2 0 7 0.5t7 0.5l-45 45h-27zM593 61l29 -29 q8 8 11 17l-40 40v-28zM328 250h-12v-83h-120v368h212q31 0 52.5 -21.5t21.5 -52.5v-137q0 -40 -33 -62q-5 -3 -10 -5l11 -90h-115zM267 305l45 -46h17l5 7l-40 39h-27zM251 229v244l-45 45v-335zM473 459l-31 30l-14 -14l45 -44v28zM434 221l-4 32l-48 48l4 -32zM372 299 l-35 -45l6 -71l39 45zM350 305l8 -8l6 8h-14zM352 289l-16 16h-28l32 -32zM382 176l-18 17l-14 -17h32zM387 219l-16 -18l24 -25h37zM388 253l3 -25l48 -44l-3 21zM268 315h141l-45 45h-50zM297 358l10 9v9l-46 45v-27zM261 352l15 -15l14 14l-29 29v-28zM270 330l-9 8v-17z M307 251l-46 46v-28l45 -45zM362 370v44h-46v-44h46zM372 418v-52l45 -46v144zM473 334l-46 46v-28l44 -44q2 10 2 16v10zM427 421v-27l46 -46v28zM427 463v-28l46 -46v28zM392 470l9 -9l8 9h-17zM394 454l-15 16h-28l29 -29zM373 434l-36 36h-28l46 -46h9zM341 424l-45 46 h-28l46 -46h27zM307 389v28l-46 46v-28zM216 176l-2 2l-2 -2h4zM235 199l-14 -14l8 -9h28zM256 219l-14 -14l29 -29h28zM261 255v-27l45 -45v27zM444 270q1 0 3 2t3 2l-31 31h-28l40 -40q6 1 13 5zM427 311l30 -30q7 9 10 17l-40 40v-27zM449 496l22 -22q-3 16 -14 29z M419 479l31 31q-20 15 -42 15h-195l45 -46h161z" />
<glyph unicode="&#xb0;" horiz-adv-x="346" d="M104 825h138q31 0 52.5 -21.5t21.5 -52.5v-137q0 -31 -21.5 -52.5t-52.5 -21.5h-138q-31 0 -52.5 21.5t-21.5 52.5v137q0 31 21.5 52.5t52.5 21.5zM90 552l-21 21l-6 -7q11 -11 27 -14zM90 593l-14 -14l29 -29h28zM226 760l9 -8l8 8h-17zM228 745l-15 15h-29l30 -29z M207 724l-35 36h-28l44 -46h9zM196 660v45h-46v-45h46zM175 714l-45 46h-28l46 -46h27zM95 643l16 -16l14 15l-30 29v-28zM95 684l37 -36l9 10v9l-46 44v-27zM141 681v26l-46 46v-28zM104 620l-9 9v-17zM129 595h-28l46 -45h27zM171 595h-28l45 -45h27zM148 651l-46 -46h141 l-46 46h-49zM283 565l-30 30h-28l41 -40q8 3 17 10zM206 709v-52l45 -46v143zM307 625l-46 46v-28l44 -44q2 10 2 15v11zM261 711v-27l46 -45v28zM261 753v-28l46 -44v26zM276 779l-14 -14l45 -44v28zM290 793l-7 -7l22 -22q-3 17 -15 29zM242 815h-138q-23 0 -41 -16 l29 -29h161l30 30q-17 15 -41 15zM40 751v-137q0 -23 16 -41l29 29v161l-29 29q-16 -18 -16 -41zM183 595l46 -45h13q9 0 13 1l-44 44h-28zM261 601l29 -29q6 6 11 16l-40 41v-28z" />
<glyph unicode="&#xb1;" horiz-adv-x="428" d="M274 475h124v-120h-124v-124h-120v124h-124v120h124v124h120v-124zM339 365l-45 45h-28l46 -45h27zM335 410h-28l46 -45h28zM358 428l-13 -14l44 -44v28zM379 449l-14 -14l24 -23v27zM389 459l-3 -3l3 -3v6zM337 420l45 45h-111l-45 -45h111zM142 410l30 -30l14 14 l-16 16h-28zM184 410l9 -9l10 9h-19zM265 522l-31 30l-13 -14l44 -44v28zM228 435l-9 8v-16zM219 457l15 -15l14 14l-29 29v-28zM219 498l36 -35l10 9v9l-46 45v-28zM265 582l-24 -23l24 -23v46zM170 589l44 -44l44 44h-88zM210 425v111l-46 45v-110zM202 420l-46 45h-110 l45 -45h111zM40 371l43 43l-43 43v-86zM50 365l-2 2l-2 -2h4zM69 387l-14 -14l9 -8h27zM90 408l-14 -14l29 -29h28zM129 410h-28l45 -45h11l9 8zM210 403l-46 -45v-110l46 45v110zM174 241l-2 2l-2 -2h4zM193 263l-14 -14l9 -8h27zM214 284l-14 -14l29 -29h28zM219 320v-28 l46 -46v28zM219 361v-28l46 -45v27zM219 375l46 -46v28l-46 45v-27zM225 410l45 -45h28l-46 45h-27zM31 186h367v-120h-367v120zM389 164v6l-3 -3zM91 131h245l46 45h-336zM40 82l43 43l-43 43v-86zM50 75l-1 2l-2 -2h3zM69 98l-14 -14l9 -9h28zM90 118l-14 -14l29 -29h28z M129 121h-28l45 -46h28zM211 121h-27l45 -46h28zM170 121h-28l46 -46h28zM253 121h-28l45 -46h28zM294 121h-28l46 -46h27zM335 121h-27l45 -46h28zM359 139l-14 -14l44 -44v28zM379 160l-14 -14l24 -24v28z" />
<glyph unicode="&#xb2;" d="M284 291h-134v-170h87v84l121 -28v-177h-328v337q0 31 21.5 52.5t52.5 21.5h133v169h-87v-124l-120 28v142q0 31 21.5 52.5t52.5 21.5h180q30 0 52 -21.5t22 -52.5v-27v-234q0 -31 -22 -52.5t-52 -21.5zM257 300l-46 46h-28l46 -46h28zM215 300l-45 46h-28l46 -46h27z M225 346l46 -46h13q5 0 13 2l-44 44h-28zM293 630l-46 -46v-177l46 -46v269zM348 624l-30 31l-14 -14l44 -44v27zM348 375l-46 46v-28l44 -44q2 10 2 16v10zM302 463v-28l46 -46v28zM302 504v-28l46 -45v27zM302 546v-28l46 -46v28zM302 587v-28l46 -45v27zM302 629v-28 l46 -46v28zM268 635l8 -8l9 8h-17zM269 620l-15 15h-28l29 -29zM325 315l-31 31h-28l41 -41q12 5 18 10zM302 352l30 -30q7 8 11 17l-41 41v-28zM324 662l23 -23q-5 18 -15 30zM284 691h-180q-24 0 -42 -16l30 -30h202l31 31q-18 15 -41 15zM217 590l-46 45h-28l46 -45h28z M74 483l-13 13l-13 -7zM89 511l-19 -10l22 -22l38 -9zM95 546v-27l45 -46v27zM95 587v-28l45 -45v27zM95 601l45 -46v28l-45 46v-28zM85 638l-30 30q-16 -18 -16 -42v-130l46 24v118zM102 635l45 -45h28l-46 45h-27zM185 635l45 -45h9l9 9l-36 36h-27zM285 356l-46 46h-135 q-24 0 -43 -17l30 -29h194zM293 141l-46 46v-70l46 -46v70zM302 89v-28l46 -45v27zM302 131v-28l46 -46v28zM323 152l-18 -10l43 -43v27zM348 165l-16 -9l16 -16v25zM258 190l40 -41l41 22zM312 10h28l-46 46h-28zM298 10l-45 46h-28l46 -46h27zM257 10l-46 46h-28l46 -46 h28zM215 10l-45 46h-28l46 -46h27zM174 10l-46 46h-28l46 -46h28zM49 10l-1 2l-2 -2h3zM69 32l-14 -14l8 -8h28zM89 53l-14 -14l30 -29h27zM140 168l-45 46v-28l45 -46v28zM95 255v-28l45 -45v27zM95 297v-28l45 -46v28zM103 81l-8 8v-17zM95 103l15 -16l14 14l-29 30v-28z M95 144l36 -36l9 10v8l-45 46v-28zM95 310l45 -45v27l-45 46v-28zM85 348l-31 30q-15 -18 -15 -41v-320l46 46v285zM285 65l-46 46h-92l-45 -46h183zM100 346l46 -46h28l-46 46h-28z" />
<glyph unicode="&#xb3;" horiz-adv-x="389" d="M358 626l1 -206q0 -35 -27 -57q27 -29 27 -60l-1 -229q0 -30 -21.5 -52t-52.5 -22h-180q-30 0 -52 22t-22 52v144l121 28v-125h87v170h-83v120h83v169h-87v-124l-121 28v142q0 31 22 52.5t52 21.5h180q31 0 52.5 -21.5t21.5 -52.5zM326 25l-31 31h-28l41 -41q6 2 18 10z M248 294v-177l45 -46v268zM175 300l-2 2l-2 -2h4zM194 323l-14 -14l8 -9h28zM165 393v-86l43 43zM293 630l-45 -46v-177l45 -46v269zM349 624l-31 31l-14 -14l45 -44v27zM349 417l-46 46v-28l41 -41q3 7 5 23zM303 504v-28l46 -46v28zM303 546v-28l46 -46v28zM303 587v-28 l46 -46v28zM303 629v-28l46 -46v28zM268 635l9 -8l8 8h-17zM270 620l-15 15h-28l29 -29zM277 336l9 10h-19zM270 330l-17 16h-27l30 -30zM349 85l-46 46v-28l44 -44q2 10 2 15v11zM303 172v-28l46 -45v27zM303 214v-28l46 -46v28zM303 255v-28l46 -45v27zM303 297v-28 l46 -46v28zM303 338v-28l46 -45v28zM318 365l-15 15v-22q1 0 5 2t5 2t2.5 1t2.5 2zM303 393l23 -23q5 5 13 15l-36 36v-28zM325 662l22 -23q-3 18 -15 30zM284 691h-180q-23 0 -41 -16l30 -30h202l31 31q-20 15 -42 15zM217 590l-45 45h-28l45 -45h28zM75 483l-13 13l-13 -7 zM90 511l-19 -10l22 -22l38 -9zM95 546v-27l46 -46v27zM95 587v-28l46 -45v27zM95 601l46 -46v28l-46 46v-28zM86 638l-30 30q-16 -18 -16 -42v-130l46 24v118zM102 635l46 -45h28l-46 45h-28zM185 635l46 -45h9l9 9l-36 36h-28zM240 401h-70l46 -45h69zM201 330l29 -30h11 l8 9l-34 35zM285 65l-45 46h-92l-46 -46h183zM90 12l-21 20l-6 -6q11 -11 27 -14zM90 53l-14 -14l29 -29h28zM95 103l16 -16l14 14l-30 30v-28zM141 209l-9 10l-14 -14l23 -23v27zM141 168l-30 30l-14 -14l44 -44v28zM95 144l37 -36l9 10v8l-46 46v-28zM138 226l3 -3v6z M49 213l41 -22l41 41zM104 81l-9 8v-17zM129 56h-28l46 -46h28zM170 56h-27l45 -46h28zM212 56h-28l46 -46h28zM86 182l-46 24v-132q0 -23 16 -42l30 31v119zM271 10h13q2 0 7 0.5t7 0.5l-45 45h-27zM303 61l29 -29q8 8 11 17l-40 40v-28zM306 349l43 -43q-1 27 -25 51 q-4 -2 -7 -4q-2 -1 -5.5 -2t-5.5 -2z" />
<glyph unicode="&#xb6;" horiz-adv-x="512" d="M104 700h378v-700h-120v580h-46v-580h-120v415h-92q-31 0 -52.5 21.5t-21.5 52.5v137q0 31 21.5 52.5t52.5 21.5zM464 691h-360q-24 0 -42 -16l30 -30h327zM409 635h-17l9 -8zM380 606l14 14l-16 15h-27zM306 472v28l-45 46v-28zM261 587v-28l45 -45v27zM306 431v27 l-45 46v-28zM306 389v28l-45 46v-28zM306 348v28l-45 45v-28zM306 306v28l-45 46v-28zM261 601l45 -46v28l-45 46v-28zM214 606l14 14l-15 15h-28zM243 635h-17l9 -8zM198 590l9 9l-36 36h-28l46 -45h9zM196 536v44h-46v-44h46zM147 590h28l-45 45h-28zM141 555v28l-46 46 v-28zM141 533v8l-46 46v-28l36 -36zM110 502l14 14l-29 30v-28zM95 487l8 9l-8 8v-17zM198 526h-51l-45 -46h141zM228 454l-17 17h-27l30 -31zM244 471h-19l10 -10zM206 584v-52l45 -46v144zM40 626v-137q0 -22 15 -42l30 30v161l-30 30q-15 -18 -15 -42zM69 447l-7 -6 q13 -11 27 -14zM76 454l29 -29h28l-43 43zM101 471l45 -46h28l-46 46h-27zM142 471l46 -46h11l8 8l-37 38h-28zM251 464l-46 -46v-401l46 46v401zM214 12l-2 -2h3zM221 19l8 -9h28l-22 22zM241 39l30 -29h27l-43 43zM261 61l45 -45v28l-45 45v-28zM261 103l45 -46v28l-45 46 v-28zM261 144l45 -45v28l-45 45v-28zM261 186l45 -46v28l-45 46v-28zM261 227l45 -45v27l-45 46v-28zM261 269l45 -46v28l-45 46v-28zM261 338v-28l45 -45v27zM268 635l45 -45h28l-46 45h-27zM309 635l46 -45h9l9 9l-36 36h-28zM417 630l-46 -46v-567l46 46v567zM380 12 l-2 -2h3zM387 19l8 -9h28l-23 22zM407 39l29 -29h28l-43 43zM427 61l45 -45v28l-45 45v-28zM427 103l45 -46v28l-45 46v-28zM427 144l45 -45v28l-45 45v-28zM427 186l45 -46v28l-45 46v-28zM427 227l45 -45v27l-45 46v-28zM427 269l45 -46v28l-45 46v-28zM427 310l45 -45v27 l-45 46v-28zM427 352l45 -46v28l-45 46v-28zM427 393l45 -45v28l-45 45v-28zM427 435l45 -46v28l-45 46v-28zM427 476l45 -45v27l-45 46v-28zM427 518l45 -46v28l-45 46v-28zM427 559l45 -45v27l-45 46v-28zM427 601l45 -46v28l-45 46v-28zM428 641l44 -44v27l-30 31z M449 661l23 -23v28l-9 9zM470 682l2 -2v5z" />
<glyph unicode="&#xb7;" horiz-adv-x="180" d="M30 400h120v-121h-120v121zM140 365l-8 9l-14 -14l22 -22v27zM138 381l2 -2v4zM47 390l43 -44l44 44h-87zM39 296l44 44l-44 43v-87zM51 289l-2 2l-3 -2h5zM69 312l-14 -14l9 -9h28zM90 333l-14 -14l30 -30h28zM111 354l-14 -14l43 -44v28z" />
<glyph unicode="&#xb9;" horiz-adv-x="258" d="M43 565l-28 114l198 30v-709h-120v572zM81 580l-14 15l-10 -19zM81 622l-10 -19l22 -21h1l12 14zM90 627l23 -23l13 15l-13 12zM125 633l7 -7l9 10zM203 666l-12 12l-13 -15l25 -25v28zM203 624l-32 32l-13 -15l45 -45v28zM203 458l-45 46v-28l45 -46v28zM158 545v-28 l45 -45v28zM158 587v-28l45 -46v28zM158 628v-28l45 -45v28zM203 416l-45 46v-28l45 -44v26zM203 692l-6 -7l6 -6v13zM81 635l71 13l42 49l-161 -25zM148 629l-46 -52v-560l46 46v566zM112 10l-1 2l-2 -2h3zM131 32l-14 -14l9 -8h28zM152 53l-14 -14l29 -29h28zM158 89v-28 l45 -45v28zM158 131v-28l45 -46v28zM158 172v-27l45 -46v28zM158 214v-28l45 -46v28zM158 255v-27l45 -46v28zM158 297v-28l45 -46v28zM158 338v-27l45 -46v28zM158 380v-28l45 -46v28zM158 421v-27l45 -46v28zM74 628l-45 34l20 -80z" />
<glyph unicode="&#xba;" d="M104 534h180q31 0 52.5 -21.5t21.5 -52.5v-386q0 -30 -21.5 -52t-52.5 -22h-180q-31 0 -52.5 22t-21.5 52v386q0 31 21.5 52.5t52.5 21.5zM89 12l-20 20l-7 -6q13 -11 27 -14zM90 53l-14 -14l29 -29h28zM268 469l8 -8l9 8h-17zM269 454l-15 15h-28l30 -29zM249 433 l-36 36h-28l45 -45h9zM237 121v293h-87v-293h87zM217 424l-46 45h-28l46 -45h28zM175 424l-45 45h-28l45 -45h28zM95 103l15 -16l14 14l-29 30v-28zM95 255v-28l46 -45v27zM141 140v28l-46 46v-28zM95 297v-28l46 -46v28zM95 338v-28l46 -45v27zM95 380v-28l46 -46v28z M95 421v-28l46 -45v27zM95 144l36 -36l10 10v8l-46 46v-28zM141 389v28l-46 46v-28zM103 81l-8 8v-17zM128 56h-27l45 -46h28zM170 56h-28l46 -46h28zM211 56h-27l45 -46h28zM147 111l-45 -46h183l-46 46h-92zM325 25l-31 31h-27l41 -41q8 3 17 10zM247 418v-301l46 -46v393 zM348 85l-46 46v-28l44 -44q2 10 2 15v11zM302 172v-28l46 -45v27zM302 214v-28l46 -46v28zM302 255v-28l46 -45v27zM302 297v-28l46 -46v28zM302 338v-28l46 -45v27zM302 380v-28l46 -46v28zM302 421v-28l46 -45v27zM302 463v-28l46 -46v28zM318 489l-14 -14l44 -44v27z M332 503l-7 -7l22 -23q-5 18 -15 30zM284 525h-180q-24 0 -42 -16l30 -30h202l31 31q-18 15 -41 15zM40 460v-386q0 -22 15 -42l30 31v409l-30 30q-15 -18 -15 -42zM225 56l46 -46h13q2 0 6.5 0.5t6.5 0.5l-44 45h-28zM302 61l30 -29q7 8 11 17l-41 40v-28z" />
<glyph unicode="&#xbb;" horiz-adv-x="551" d="M31 364l85 86l174 -173l-174 -175l-86 87l88 88zM111 161v23h-23zM111 148l-37 36h-25l62 -64v28zM129 131l-8 8v-16zM121 180v-28l15 -14l14 13zM138 205l-13 -14l32 -33l14 14zM159 225l-14 -13l33 -33l14 14zM180 246l-14 -14l33 -32l14 14zM202 268l-15 -15l33 -32 l14 13zM86 360l78 -78h27l-78 78h-27zM121 367l83 -85h67l-150 149v-64zM50 370h61v61zM239 272h-28l30 -31l14 14zM271 272h-19l9 -10zM72 360h-23l78 -78h23zM193 272h-66l-78 -79h64zM282 364l85 86l174 -173l-174 -175l-86 87l88 88zM362 161v23h-23zM362 148l-37 36 h-25l62 -64v28zM380 131l-8 8v-16zM372 180v-28l15 -14l14 13zM389 205l-13 -14l32 -33l14 14zM410 225l-14 -13l33 -33l14 14zM431 246l-14 -14l33 -32l14 14zM453 268l-15 -15l33 -32l14 13zM337 360l78 -78h27l-78 78h-27zM372 367l83 -85h67l-150 149v-64zM301 370h61 v61zM490 272h-28l30 -31l14 14zM522 272h-19l9 -10zM323 360h-23l78 -78h23zM444 272h-66l-78 -79h64z" />
<glyph unicode="&#xbc;" horiz-adv-x="808" d="M59 565l-29 115l198 29v-377h-120v240zM96 580l-14 16l-10 -20zM96 622l-10 -18l22 -22h1l12 15zM105 627l23 -22l14 14l-14 12zM141 633l7 -7l8 10zM219 667l-13 12l-13 -16l26 -25v29zM219 624l-33 32l-13 -15l46 -44v27zM219 459l-46 45v-28l46 -45v28zM173 545v-27 l46 -46v28zM173 588v-29l46 -45v27zM173 628v-27l46 -46v28zM219 416l-46 46v-27l46 -45v26zM219 693l-6 -7l6 -6v13zM96 635l71 13l43 50l-162 -25zM163 629l-46 -52v-228l46 46v234zM127 342l-1 2l-2 -2h3zM147 365l-14 -15l9 -8h27zM167 385l-14 -14l29 -29h29zM173 421 v-27l46 -46v29zM89 628l-45 34l21 -80zM726 245h42v-120h-42v-125h-119v125h-167v217l121 29v-126h46v124h119v-124zM661 173l-45 -44v-112l45 46v110zM661 306l-45 45v-110l45 -45v110zM679 189h26l45 47h-26zM717 333l-10 10l-13 -14l23 -23v27zM717 293l-30 30l-15 -14 l45 -45v17v12zM671 227l16 -15l14 14l-30 29v-28zM671 197l9 8l-9 9v-17zM671 268l36 -35l10 9v9l-46 46v-29zM717 353l-3 -3l3 -3v6zM623 359l42 -43l44 43h-86zM635 180l10 -10l10 10h-20zM638 163l-16 17h-28l31 -30zM626 10l-1 1l-2 -1h3zM645 32l-14 -14l9 -8h27z M665 53l-13 -13l30 -30h27zM671 89v-27l46 -47v29zM671 131v-29l46 -45v28zM671 172v-28l46 -46v29zM676 180l46 -45h29l-45 45h-30zM728 200l-14 -15l45 -43v27zM748 221l-13 -14l24 -24v28zM759 230l-4 -3l4 -2v5zM653 189l-45 46h-50l-46 -46h141zM551 333l-9 10l-14 -14 l23 -23v27zM551 293l-31 30l-14 -14l45 -45v29zM513 205l-8 9v-17zM505 227l15 -15l15 14l-30 29v-28zM505 268l37 -35l9 9v9l-46 46v-29zM548 350l3 -3v6zM459 337l40 -22l42 42zM496 186v121l-46 24v-190zM460 135l-1 1l-2 -1h3zM479 157l-13 -14l8 -8h27zM500 177 l-14 -14l29 -28h28zM511 180l46 -45h27l-45 45h-28zM553 180l45 -45h12l8 8l-38 37h-27zM92 0l372 700h124l-371 -700h-125zM474 691l20 -43l68 43h-88zM173 60l314 582l-20 43l-354 -665zM128 10l-5 5l-7 -5h12zM149 31l-17 -11l11 -10h27zM176 50l-19 -13l26 -27h21z M191 72l-8 -15l30 -43l12 23zM205 99l-10 -18l35 -34l10 18zM220 126l-9 -19l33 -33l10 18zM235 153l-10 -18l34 -34l9 19zM249 179l-10 -17l34 -34l9 18zM263 207l-9 -19l34 -33l9 18zM278 234l-10 -18l34 -34l10 19zM293 260l-11 -18l34 -32l10 17zM307 288l-9 -19l33 -33 l9 18zM322 315l-10 -18l33 -34l9 19zM336 341l-10 -18l33 -32l11 18zM350 369l-9 -19l33 -33l10 18zM366 395l-11 -18l33 -33l10 19zM380 422l-10 -18l33 -32l9 18zM394 450l-9 -18l32 -33l9 18zM409 476l-10 -18l32 -33l10 19zM423 503l-9 -18l32 -32l10 18zM437 530 l-9 -17l33 -33l9 18zM453 557l-11 -18l33 -32l9 18zM467 584l-9 -18l31 -32l10 18zM481 611l-9 -18l31 -32l10 18zM496 638l-10 -18l31 -31l11 18zM521 654l-17 -11l29 -28l9 18zM547 670l-17 -11l17 -17l9 18zM568 683l-12 -8l5 -5z" />
<glyph unicode="&#xbd;" horiz-adv-x="766" d="M652 129h-100v-12h174v-117h-285v167q0 31 21.5 52.5t52.5 21.5h100v11h-174v39q0 30 21.5 51.5t52.5 21.5h137q31 0 52.5 -21.5t21.5 -51.5v-88q0 -31 -21.5 -52.5t-52.5 -21.5zM622 139l-42 41h-28l42 -41h28zM594 180l41 -41h17q8 0 11 1l-41 40h-28zM717 293l-30 29 l-11 -12v-4l41 -41v26v2zM717 210l-41 41v-28l38 -39q3 10 3 19v7zM676 293v-28l41 -42v28zM636 303l10 -10l10 10h-20zM640 286l-17 17h-28l32 -31zM666 299l-42 -44v-17l42 -44v105zM692 152l-26 28h-31l39 -38q6 2 18 10zM676 183l23 -25q8 10 11 16l-34 36v-27zM694 329 l20 -20q-5 15 -15 25zM652 355h-137q-24 0 -40 -14l27 -28h164l26 29q-18 13 -40 13zM498 261l-19 21l-21 -21h40zM500 302l-14 -14l27 -27h27zM540 303h-27l41 -42h27zM493 308l-25 26q-18 -18 -18 -43v-22zM554 303l41 -42h22l3 4l-39 38h-27zM656 190l-39 41h-102 q-24 0 -41 -14l26 -27h156zM717 98v2l-1 -1zM717 85l-8 8l-15 -13l23 -23v28zM717 44l-30 29l-14 -13l44 -45v29zM709 10l-45 46h-29l46 -46h28zM668 10l-46 46h-28l45 -46h29zM626 10l-46 46h-28l46 -46h28zM585 10l-46 46h-28l45 -46h29zM460 10l-2 2l-1 -2h3zM478 32 l-13 -14l9 -8h27zM498 54l-13 -14l30 -30h28zM513 82l-12 11v-23zM501 107l18 -18l14 14l-32 32v-28zM539 110l4 4v18l-42 43v-27zM491 184l-24 27q-17 -19 -17 -44v-150l41 44v123zM665 65l44 41h-160l-39 -41h155zM510 180l39 -41h31l-41 41h-29zM228 332h-120v241l-49 -8 l-29 115l198 29v-377zM129 605l12 14l-12 12l-24 -4zM156 636l-16 -3l7 -7zM163 395v234l-46 -51v-228zM126 345l-2 -2h3zM133 351l8 -8h28l-23 22zM153 371l29 -28h29l-44 42zM173 394l46 -45v28l-46 45v-28zM173 435l46 -45v27l-46 45v-27zM173 476l46 -45v28l-46 46v-29z M173 518l46 -46v29l-46 44v-27zM173 559l46 -45v27l-46 47v-29zM173 601l46 -46v29l-46 44v-27zM173 641l46 -44v27l-33 33zM193 664l26 -26v29l-12 12zM219 680v13l-6 -7zM167 649l43 49l-162 -25l48 -38zM89 628l-45 35l20 -80zM82 596l-10 -19l24 4zM96 622l-10 -18 l22 -21h1l12 14zM92 0l372 700h125l-373 -700h-124zM494 649l68 42h-88zM487 643l-20 42l-354 -665l60 40zM123 15l-7 -5h13zM132 20l10 -10h28l-21 21zM157 38l26 -28h20l-27 40zM183 57l30 -43l12 24l-34 34zM195 81l35 -34l10 18h-1l-33 34zM211 107l33 -33l10 18l-34 34 zM225 135l33 -34l10 19l-33 33zM239 162l34 -34l10 18l-34 33zM254 189l34 -34l9 18l-34 34zM268 216l34 -34l10 19l-34 33zM283 242l33 -32l10 17l-33 33zM298 270l32 -34l10 18l-33 34zM312 297l33 -34l9 19l-32 33zM326 323l34 -32l9 18l-33 33zM341 351l33 -34l10 18 l-34 34zM356 377l32 -32l10 18l-32 32zM370 404l33 -32l9 18l-32 33zM385 432l32 -33l9 19l-32 32zM399 458l33 -32l10 18l-33 32zM413 485l33 -32l10 18l-33 33zM428 513l32 -33l10 19l-32 31zM443 539l32 -31l9 17l-31 32zM457 567l32 -33l9 18l-31 33zM472 593l31 -32 l11 19l-33 31zM486 620l32 -31l10 18l-32 31zM504 644l29 -29l9 18l-20 22zM530 660l17 -17l9 18l-9 9zM568 683l-13 -8l6 -5z" />
<glyph unicode="&#xbe;" horiz-adv-x="856" d="M774 245h42v-120h-42v-125h-120v125h-166v218l120 28v-126h46v123h120v-123zM709 173l-45 -45v-111l45 46v110zM709 306l-45 46v-111l45 -46v111zM726 190h26l46 46h-26zM765 334l-10 9l-14 -13l24 -24v28zM765 292l-31 31l-14 -14l45 -44v27zM719 227l15 -15l14 14 l-29 29v-28zM719 197l9 8l-9 9v-17zM719 269l36 -36l10 9v9l-46 46v-28zM765 353l-3 -3l3 -2v5zM671 359l43 -43l43 43h-86zM683 180l10 -10l10 10h-20zM686 164l-16 16h-28l30 -30zM674 10l-2 2l-1 -2h3zM693 32l-14 -14l8 -8h28zM714 53l-14 -14l29 -29h28zM719 89v-28 l46 -45v27zM719 131v-28l46 -46v28zM719 172v-28l46 -45v27zM725 180l45 -45h29l-45 45h-29zM776 200l-14 -14l44 -44v27zM797 220l-14 -13l23 -24v28zM806 230l-3 -3l3 -3v6zM701 190l-45 45h-50l-46 -45h141zM599 334l-10 9l-14 -13l24 -24v28zM599 292l-31 31l-13 -14 l44 -44v27zM562 205l-9 9v-17zM553 227l15 -15l14 14l-29 29v-28zM553 269l36 -36l10 9v9l-46 46v-28zM596 350l3 -2v5zM507 337l40 -22l41 41zM543 187v120l-45 24v-190zM508 134l-2 2l-1 -2h3zM527 157l-14 -14l8 -9h28zM548 177l-14 -13l29 -30h28zM559 180l45 -46h28 l-45 46h-28zM600 180l46 -46h12l7 9l-37 37h-28zM140 0l371 700h125l-372 -700h-124zM522 691l20 -42l68 42h-88zM221 60l314 582l-21 43l-353 -665zM176 10l-5 5l-7 -5h12zM196 32l-17 -12l11 -10h28zM224 50l-20 -13l27 -27h21zM239 72l-8 -15l29 -43l13 24zM253 99 l-10 -18l34 -34l10 18zM268 126l-10 -18l34 -34l10 18zM282 153l-10 -18l34 -34l10 18zM297 180l-10 -18l34 -34l9 18zM311 207l-10 -18l34 -34l10 18zM326 234l-10 -18l33 -34l10 18zM340 261l-9 -18l33 -34l10 18zM355 288l-10 -18l33 -34l10 19zM369 315l-9 -18l33 -34 l9 19zM384 342l-10 -18l33 -33l10 18zM398 369l-9 -18l33 -33l9 18zM413 396l-10 -19l33 -32l10 18zM427 422l-9 -18l32 -32l10 18zM442 449l-10 -18l33 -32l9 18zM457 476l-10 -18l32 -32l10 18zM471 503l-10 -18l33 -32l9 18zM486 530l-10 -18l32 -32l10 18zM500 557 l-10 -18l32 -32l10 18zM515 584l-10 -18l32 -32l9 18zM529 611l-10 -18l32 -32l10 19zM544 638l-10 -18l32 -32l9 19zM569 654l-17 -10l28 -28l10 18zM595 670l-17 -11l16 -16l10 18zM616 683l-13 -8l6 -5zM317 622v-38q0 -33 -25 -55q25 -35 25 -61v-62q0 -31 -21.5 -52.5 t-52.5 -21.5h-139q-30 0 -52 21.5t-22 52.5v38h175v15h-71l-17 111h88v14h-175v38q0 31 22 52.5t52 21.5h139q31 0 52.5 -21.5t21.5 -52.5zM172 469l-14 14l-10 -14h24zM174 508l-11 -17l22 -22h19l5 5zM307 624l-29 30l-12 -13v-3l41 -42v26v2zM185 510l30 -30l14 14 l-16 16h-28zM227 510l9 -9l9 9h-18zM256 523v107l-42 -45v-21zM227 635l11 -11l9 11h-20zM231 617l-18 18h-28l33 -32zM176 520h69l-41 40h-69zM256 508l-42 -42v-24l42 -42v108zM284 357l-30 30h-28l41 -41q12 6 17 11zM266 417v-27l25 -26q8 10 11 16zM266 429v1l39 -39 q2 10 2 15v11l-41 41v-29zM266 472l41 -42v28l-41 42v-28zM277 530l-11 11v-17q2 1 5.5 3t5.5 3zM307 583l-41 41v-28l36 -36q5 12 5 23zM284 661l20 -20q-5 15 -15 25zM243 686h-139q-21 0 -39 -13l28 -28h163l26 28q-18 13 -39 13zM89 594l-20 19l-21 -19h41zM90 633 l-14 -13l26 -26h28zM130 635h-28l42 -41h28zM84 640l-26 26q-18 -18 -18 -44v-22zM144 635l41 -41h24l2 2l-39 39h-28zM167 515l-37 37l11 -76zM245 397l-37 37h-160l40 -37h157zM90 343l-21 21l-6 -7q11 -9 27 -14zM90 385l-14 -14l29 -29h28zM129 387h-28l46 -45h28z M170 387h-27l45 -45h28zM81 390l-41 38v-22q0 -24 16 -42zM184 387l46 -45h13q9 0 13 1l-44 44h-28zM266 513l41 -41q-2 25 -23 51q-9 -6 -18 -9v-1zM266 555l19 -19q6 5 13 15l-32 32v-28z" />
<glyph unicode="&#xbf;" d="M237 121v97l121 38v-182q0 -30 -22 -52t-52 -22h-180q-31 0 -52.5 22t-21.5 52v262q0 31 21.5 52.5t52.5 21.5h50v124h121v-171q0 -30 -22 -52t-52 -22h-51v-168h87zM293 182l-46 24v-88l46 -46v110zM323 207l25 -24v27l-12 12zM255 213l41 -22l42 48zM326 26l-31 30h-28 l41 -41q8 3 18 11zM302 90v-27l30 -31q5 5 11 17zM302 131v-27l44 -44q2 8 2 14v12zM302 173v-28l46 -45v27zM317 200l-13 -15l44 -44v28zM342 230l6 -6v12zM286 65l-46 46h-91l-46 -46h183zM90 11l-20 21l-7 -7q8 -8 27 -14zM90 53l-13 -14l28 -29h28zM140 265v29l-45 45 v-28zM95 104l16 -17l14 14l-30 30v-27zM95 256v-28l45 -45v27zM140 141v28l-45 45v-27zM95 297v-27l45 -46v28zM95 145l37 -37l8 9v10l-45 46v-28zM104 80l-9 10v-19zM129 56h-28l46 -46h28zM171 56h-28l45 -46h28zM212 56h-28l46 -46h28zM103 345l46 -46h27l-46 46h-27z M144 345l46 -46h11q5 0 15 2l-44 44h-28zM210 473l-46 46v-111l46 -45v110zM219 380v-27l31 -31q7 9 10 17zM219 422v-28l45 -44q0 2 0.5 6.5t0.5 6.5v13zM219 463v-27l46 -46v28zM236 489l-14 -14l43 -44v28zM256 509l-14 -14l23 -22v28zM265 518l-2 -2l2 -2v4zM172 525 l43 -43l43 43h-86zM243 315l-29 30h-28l40 -41q9 4 17 11zM204 355l-46 45h-54q-24 0 -41 -15l30 -30h111zM39 336v-262q0 -23 17 -42l29 29v288l-29 29q-17 -19 -17 -42zM226 56l45 -46h13q4 0 14 2l-44 44h-28zM275 700v-120h-121v120h121zM175 590l-2 2l-2 -2h4zM194 613 l-14 -14l9 -9h28zM214 633l-13 -13l29 -30h27zM235 654l-14 -14l44 -43v28zM256 675l-14 -14l23 -23v28zM265 684l-2 -2l2 -2v4zM171 691l44 -44l43 44h-87zM164 597l44 43l-44 44v-87z" />
<glyph unicode="&#xc2;" d="M10 850l184 185l184 -184l-91 -91l-93 94l-93 -94zM283 820v28l-84 84v-28zM189 899l-16 16l-15 -16l31 -32v32zM189 932l-8 -10l8 -9v19zM100 856l89 90v69l-159 -159h70zM73 846l23 -22v22h-23zM96 808l-38 38h-30l68 -67v29zM115 789l-9 10v-20zM106 843v-30l17 -17 l14 15zM127 869l-17 -16l35 -35l16 16zM150 892l-16 -16l34 -34l17 15zM283 805l-84 83v-26l84 -83v26zM300 788l-6 7v-14zM294 838v-29l13 -13l15 13zM327 846h-28l30 -29l14 13zM358 846h-15l8 -8zM199 946l91 -90h68l-159 159v-69zM358 626v-626h-121v208h-87v-208h-120 v626q0 31 21.5 52.5t52.5 21.5h180q30 0 52 -21.5t22 -52.5zM293 256l-46 -45v-194l46 46v193zM215 217l-45 46h-28l46 -46h27zM147 318l-45 -45h183l-46 45h-92zM49 10l-1 2l-2 -2h3zM69 32l-14 -14l8 -8h28zM89 53l-14 -14l30 -29h27zM266 263l10 -10l10 10h-20zM293 630 l-46 -46v-260l46 -46v352zM268 635l8 -8l9 8h-17zM269 620l-15 15h-28l29 -29zM248 599l-36 36h-27l45 -45h9zM237 328v252h-87v-252h87zM217 590l-46 45h-28l46 -45h28zM175 590l-46 45h-27l45 -45h28zM140 85l-45 46v-28l45 -46v28zM95 463v-28l45 -46v28zM140 348v27 l-45 46v-28zM95 504v-28l45 -45v27zM95 546v-28l45 -46v28zM95 587v-28l45 -45v27zM103 288l-8 9v-17zM95 310l15 -15l14 14l-29 29v-28zM95 352l36 -36l9 9v9l-45 46v-28zM140 555v28l-45 46v-28zM95 89v-28l45 -45v27zM95 172v-28l45 -45v27zM95 214v-28l45 -46v28z M95 227l45 -45v27l-45 46v-28zM269 247l-16 16h-28l30 -30zM257 10l-2 2l-1 -2h3zM276 32l-14 -14l9 -8h27zM297 53l-14 -14l29 -29h28zM302 89v-28l46 -45v27zM302 131v-28l46 -46v28zM302 172v-28l46 -45v27zM302 214v-28l46 -46v28zM302 255v-28l46 -45v27zM302 297v-28 l46 -46v28zM302 338v-28l46 -45v27zM302 380v-28l46 -46v28zM302 421v-28l46 -45v27zM302 463v-28l46 -46v28zM302 504v-28l46 -45v27zM302 546v-28l46 -46v28zM302 587v-28l46 -45v27zM302 629v-28l46 -46v28zM318 655l-14 -14l44 -44v27zM332 669l-8 -7l23 -23 q-5 18 -15 30zM284 691h-180q-24 0 -42 -16l30 -30h202l31 31q-18 15 -41 15zM85 638l-30 30q-16 -18 -16 -42v-609l46 46v575zM100 263l46 -46h28l-46 46h-28zM183 263l46 -46h9l10 9l-37 37h-28z" />
<glyph unicode="&#xc5;" d="M125 975h138q31 0 52.5 -21.5t21.5 -52.5v-137q0 -31 -21.5 -52.5t-52.5 -21.5h-138q-31 0 -52.5 21.5t-21.5 52.5v137q0 31 21.5 52.5t52.5 21.5zM111 702l-21 21l-6 -7q11 -11 27 -14zM111 743l-14 -14l29 -29h28zM247 910l9 -8l8 8h-17zM249 895l-15 15h-29l30 -29z M228 874l-35 36h-28l44 -46h9zM217 810v45h-46v-45h46zM196 864l-45 46h-28l46 -46h27zM116 793l16 -16l14 15l-30 29v-28zM116 834l37 -36l9 10v9l-46 44v-27zM162 831v26l-46 46v-28zM125 770l-9 9v-17zM150 745h-28l46 -45h27zM192 745h-28l45 -45h27zM169 801l-46 -46 h141l-46 46h-49zM304 715l-30 30h-28l41 -40q8 3 17 10zM227 859v-52l45 -46v143zM328 775l-46 46v-28l44 -44q2 10 2 15v11zM282 861v-27l46 -45v28zM282 903v-28l46 -44v26zM297 929l-14 -14l45 -44v28zM311 943l-7 -7l22 -22q-3 17 -15 29zM263 965h-138q-23 0 -41 -16 l29 -29h161l30 30q-17 15 -41 15zM61 901v-137q0 -23 16 -41l29 29v161l-29 29q-16 -18 -16 -41zM204 745l46 -45h13q9 0 13 1l-44 44h-28zM282 751l29 -29q6 6 11 16l-40 41v-28zM358 626v-626h-121v208h-87v-208h-120v626q0 31 21.5 52.5t52.5 21.5h180q30 0 52 -21.5 t22 -52.5zM293 256l-46 -45v-194l46 46v193zM215 217l-45 46h-28l46 -46h27zM147 318l-45 -45h183l-46 45h-92zM49 10l-1 2l-2 -2h3zM69 32l-14 -14l8 -8h28zM89 53l-14 -14l30 -29h27zM266 263l10 -10l10 10h-20zM293 630l-46 -46v-260l46 -46v352zM268 635l8 -8l9 8h-17z M269 620l-15 15h-28l29 -29zM248 599l-36 36h-27l45 -45h9zM237 328v252h-87v-252h87zM217 590l-46 45h-28l46 -45h28zM175 590l-46 45h-27l45 -45h28zM140 85l-45 46v-28l45 -46v28zM95 463v-28l45 -46v28zM140 348v27l-45 46v-28zM95 504v-28l45 -45v27zM95 546v-28 l45 -46v28zM95 587v-28l45 -45v27zM103 288l-8 9v-17zM95 310l15 -15l14 14l-29 29v-28zM95 352l36 -36l9 9v9l-45 46v-28zM140 555v28l-45 46v-28zM95 89v-28l45 -45v27zM95 172v-28l45 -45v27zM95 214v-28l45 -46v28zM95 227l45 -45v27l-45 46v-28zM269 247l-16 16h-28 l30 -30zM257 10l-2 2l-1 -2h3zM276 32l-14 -14l9 -8h27zM297 53l-14 -14l29 -29h28zM302 89v-28l46 -45v27zM302 131v-28l46 -46v28zM302 172v-28l46 -45v27zM302 214v-28l46 -46v28zM302 255v-28l46 -45v27zM302 297v-28l46 -46v28zM302 338v-28l46 -45v27zM302 380v-28 l46 -46v28zM302 421v-28l46 -45v27zM302 463v-28l46 -46v28zM302 504v-28l46 -45v27zM302 546v-28l46 -46v28zM302 587v-28l46 -45v27zM302 629v-28l46 -46v28zM318 655l-14 -14l44 -44v27zM332 669l-8 -7l23 -23q-5 18 -15 30zM284 691h-180q-24 0 -42 -16l30 -30h202 l31 31q-18 15 -41 15zM85 638l-30 30q-16 -18 -16 -42v-609l46 46v575zM100 263l46 -46h28l-46 46h-28zM183 263l46 -46h9l10 9l-37 37h-28z" />
<glyph unicode="&#xc6;" horiz-adv-x="595" d="M565 121v-121h-328v208h-87v-208h-120v626q0 31 21.5 52.5t52.5 21.5h461v-120h-207v-169h166v-120h-166v-170h207zM293 256l-46 -45v-194l46 46v193zM216 217l-46 46h-28l46 -46h28zM147 318l-45 -45h183l-46 45h-92zM50 10l-2 2l-1 -2h3zM69 32l-14 -14l8 -8h28zM90 53 l-14 -14l29 -29h28zM555 99v5l-2 -3zM556 85l-10 10l-14 -14l24 -24v28zM556 43l-31 31l-14 -14l45 -44v27zM547 10l-45 46h-28l46 -46h27zM506 10l-46 46h-27l45 -46h28zM465 10l-46 46h-28l46 -46h28zM423 10l-46 46h-27l45 -46h28zM382 10l-46 46h-28l46 -46h28zM267 263 l9 -10l10 10h-19zM293 630l-46 -46v-260l46 -46v352zM348 168l-46 46v-28l46 -46v28zM302 255v-28l46 -45v27zM302 297v-28l46 -46v28zM348 458l-46 46v-28l46 -45v27zM302 546v-28l46 -46v28zM302 587v-28l46 -45v27zM302 629v-28l46 -46v28zM257 10l-1 2l-2 -2h3zM276 32 l-14 -14l9 -8h28zM297 53l-14 -14l29 -29h28zM311 81l-9 8v-17zM302 103l16 -16l14 14l-30 30v-28zM302 144l37 -36l9 10v8l-46 46v-28zM348 265v27l-46 46v-28zM311 371l-9 9v-17zM302 393l16 -15l14 14l-30 29v-28zM302 435l37 -36l9 9v9l-46 46v-28zM268 635l8 -8l9 8 h-17zM269 620l-15 15h-28l30 -29zM249 599l-36 36h-28l45 -45h9zM237 328v252h-87v-252h87zM217 590l-46 45h-28l46 -45h28zM175 590l-45 45h-28l45 -45h28zM141 85l-46 46v-28l46 -46v28zM95 463v-28l46 -46v28zM141 348v27l-46 46v-28zM95 504v-28l46 -45v27zM95 546v-28 l46 -46v28zM95 587v-28l46 -45v27zM103 288l-8 9v-17zM95 310l15 -15l14 14l-29 29v-28zM95 352l36 -36l10 9v9l-46 46v-28zM141 555v28l-46 46v-28zM95 89v-28l46 -45v27zM95 172v-28l46 -45v27zM95 214v-28l46 -46v28zM95 227l46 -45v27l-46 46v-28zM269 247l-16 16h-28 l31 -30zM503 65l46 46h-194l-46 -46h194zM308 346l46 -46h28l-46 46h-28zM511 392l3 -3v6zM514 375l-10 10l-14 -14l24 -23v27zM514 334l-30 30l-14 -14l44 -44v28zM506 300l-46 46h-27l45 -46h28zM465 300l-46 46h-28l46 -46h28zM423 300l-46 46h-27l45 -46h28zM461 356 l46 45h-152l-46 -45h152zM309 635l46 -45h28l-46 45h-28zM556 679v6l-3 -3zM556 666l-10 9l-14 -13l24 -24v28zM556 624l-31 31l-14 -14l45 -44v27zM549 590l-46 45h-28l46 -45h28zM507 590l-45 45h-28l45 -45h28zM466 590l-46 45h-28l46 -45h28zM424 590l-45 45h-28l45 -45 h28zM502 645l46 46h-444q-24 0 -42 -16l30 -30h410zM85 638l-30 30q-15 -18 -15 -42v-609l45 46v575zM101 263l45 -46h28l-46 46h-27zM184 263l45 -46h12l8 9l-38 37h-27z" />
<glyph unicode="&#xca;" d="M10 850l184 185l184 -184l-91 -91l-93 94l-93 -94zM283 820v28l-84 84v-28zM189 899l-16 16l-15 -16l31 -32v32zM189 932l-8 -10l8 -9v19zM100 856l89 90v69l-159 -159h70zM73 846l23 -22v22h-23zM96 808l-38 38h-30l68 -67v29zM115 789l-9 10v-20zM106 843v-30l17 -17 l14 15zM127 869l-17 -16l35 -35l16 16zM150 892l-16 -16l34 -34l17 15zM283 805l-84 83v-26l84 -83v26zM300 788l-6 7v-14zM294 838v-29l13 -13l15 13zM327 846h-28l30 -29l14 13zM358 846h-15l8 -8zM199 946l91 -90h68l-159 159v-69zM150 121h208v-121h-328v700h328v-120 h-208v-169h166v-120h-166v-170zM85 638l-46 46v-667l46 46v575zM217 590l-46 45h-28l46 -45h28zM212 635h-27l45 -45h28zM254 635h-28l46 -45h28zM295 635h-27l45 -45h28zM318 655l-14 -14l44 -44v27zM338 675l-14 -13l24 -24v28zM348 685l-3 -3l3 -3v6zM92 645h202l46 46 h-294zM140 168l-45 46v-28l45 -46v28zM95 255v-28l45 -45v27zM95 297v-28l45 -46v28zM140 458l-45 46v-28l45 -45v27zM95 546v-28l45 -46v28zM95 587v-28l45 -45v27zM103 81l-8 8v-17zM95 103l15 -16l14 14l-29 30v-28zM95 144l36 -36l9 10v8l-45 46v-28zM140 265v27l-45 46 v-28zM103 371l-8 9v-17zM95 393l15 -15l14 14l-29 29v-28zM95 435l36 -36l9 9v9l-45 46v-28zM95 601l45 -46v28l-45 46v-28zM49 10l-1 2l-2 -2h3zM69 32l-14 -14l8 -8h28zM89 53l-14 -14l30 -29h27zM128 56h-28l46 -46h28zM170 56h-28l46 -46h27zM211 56h-28l46 -46h28z M253 56h-28l46 -46h27zM294 56h-28l46 -46h28zM317 74l-13 -14l44 -44v27zM338 95l-14 -14l24 -24v28zM348 99v5l-3 -3zM295 65l46 46h-194l-45 -46h193zM100 346l46 -46h28l-46 46h-28zM304 392l2 -3v6zM306 375l-9 10l-14 -14l23 -23v27zM306 334l-30 30l-14 -14l44 -44 v28zM298 300l-45 46h-28l46 -46h27zM257 300l-46 46h-28l46 -46h28zM215 300l-45 46h-28l46 -46h27zM254 356l45 45h-152l-45 -45h152zM102 635l45 -45h28l-46 45h-27z" />
<glyph unicode="&#xce;" horiz-adv-x="180" d="M-94 850l184 185l184 -184l-91 -91l-93 94l-93 -94zM179 820v28l-84 84v-28zM85 899l-16 16l-15 -16l31 -32v32zM85 932l-8 -10l8 -9v19zM-4 856l89 90v69l-159 -159h70zM-31 846l23 -22v22h-23zM-8 808l-38 38h-30l68 -67v29zM11 789l-9 10v-20zM2 843v-30l17 -17l14 15 zM23 869l-17 -16l35 -35l16 16zM46 892l-16 -16l34 -34l17 15zM179 805l-84 83v-26l84 -83v26zM196 788l-6 7v-14zM190 838v-29l13 -13l15 13zM223 846h-28l30 -29l14 13zM254 846h-15l8 -8zM95 946l91 -90h68l-159 159v-69zM30 0v700h120v-700h-120zM47 691l43 -43l43 43 h-86zM141 85l-46 46v-28l46 -46v28zM141 292l-46 46v-28l46 -45v27zM85 63v575l-45 46v-667zM50 10l-2 2l-1 -2h3zM69 32l-14 -14l8 -8h28zM90 53l-14 -14l29 -29h28zM95 89v-28l46 -45v27zM95 172v-28l46 -45v27zM95 214v-28l46 -46v28zM95 255v-28l46 -45v27zM95 297v-28 l46 -46v28zM95 380v-28l46 -46v28zM95 421v-28l46 -45v27zM95 463v-28l46 -46v28zM95 504v-28l46 -45v27zM95 546v-28l46 -46v28zM95 587v-28l46 -45v27zM95 629v-28l46 -46v28zM110 655l-14 -14l45 -44v27zM131 675l-14 -14l24 -23v28zM141 685l-3 -3l3 -3v6z" />
<glyph unicode="&#xd4;" d="M10 850l184 185l184 -184l-91 -91l-93 94l-93 -94zM283 820v28l-84 84v-28zM189 899l-16 16l-15 -16l31 -32v32zM189 932l-8 -10l8 -9v19zM100 856l89 90v69l-159 -159h70zM73 846l23 -22v22h-23zM96 808l-38 38h-30l68 -67v29zM115 789l-9 10v-20zM106 843v-30l17 -17 l14 15zM127 869l-17 -16l35 -35l16 16zM150 892l-16 -16l34 -34l17 15zM283 805l-84 83v-26l84 -83v26zM300 788l-6 7v-14zM294 838v-29l13 -13l15 13zM327 846h-28l30 -29l14 13zM358 846h-15l8 -8zM199 946l91 -90h68l-159 159v-69zM104 700h180q30 0 52 -21.5t22 -52.5 v-552q0 -30 -22 -52t-52 -22h-180q-31 0 -52.5 22t-21.5 52v552q0 31 21.5 52.5t52.5 21.5zM89 12l-20 20l-7 -6q13 -11 27 -14zM89 53l-14 -14l30 -29h27zM268 635l8 -8l9 8h-17zM269 620l-15 15h-28l29 -29zM248 599l-36 36h-27l45 -45h9zM237 121v459h-87v-459h87z M217 590l-46 45h-28l46 -45h28zM175 590l-46 45h-27l45 -45h28zM95 103l15 -16l14 14l-29 30v-28zM95 255v-28l45 -45v27zM140 140v28l-45 46v-28zM95 297v-28l45 -46v28zM95 338v-28l45 -45v27zM95 380v-28l45 -46v28zM95 421v-28l45 -45v27zM95 463v-28l45 -46v28zM95 504 v-28l45 -45v27zM95 546v-28l45 -46v28zM95 587v-28l45 -45v27zM95 144l36 -36l9 10v8l-45 46v-28zM140 555v28l-45 46v-28zM103 81l-8 8v-17zM128 56h-28l46 -46h28zM170 56h-28l46 -46h27zM211 56h-28l46 -46h28zM147 111l-45 -46h183l-46 46h-92zM325 25l-31 31h-28 l41 -41q9 2 18 10zM247 584v-467l46 -46v559zM348 85l-46 46v-28l44 -44q2 10 2 15v11zM302 172v-28l46 -45v27zM302 214v-28l46 -46v28zM302 255v-28l46 -45v27zM302 297v-28l46 -46v28zM302 338v-28l46 -45v27zM302 380v-28l46 -46v28zM302 421v-28l46 -45v27zM302 463 v-28l46 -46v28zM302 504v-28l46 -45v27zM302 546v-28l46 -46v28zM302 587v-28l46 -45v27zM302 629v-28l46 -46v28zM318 655l-14 -14l44 -44v27zM332 669l-8 -7l23 -23q-5 18 -15 30zM284 691h-180q-24 0 -42 -16l30 -30h202l31 31q-18 15 -41 15zM39 626v-552q0 -23 16 -42 l30 31v575l-30 30q-16 -18 -16 -42zM225 56l46 -46h13q2 0 6.5 0.5t6.5 0.5l-44 45h-28zM302 61l30 -29q7 8 11 17l-41 40v-28z" />
<glyph unicode="&#xd7;" horiz-adv-x="402" d="M371 440l-86 -88l87 -87l-85 -87l-86 87l-85 -87l-86 87l86 87l-85 88l85 85l85 -85l86 85zM113 238v22h-24zM113 224l-38 36h-26l64 -64v28zM128 206l-9 8v-16zM119 257v-29l16 -15l14 14zM137 278l-14 -11l33 -33l14 15zM157 299l-13 -14l33 -29l14 13zM85 437l78 -80 h30l-80 80h-28zM219 366l-10 -9h19zM226 373l17 -16h28l-31 30zM247 394l34 -33l14 15l-33 33zM283 430l-14 -14l31 -35l16 16zM315 436h-27l33 -33l14 14zM353 437h-25l13 -12zM290 505v-62h61zM206 366l76 74v66l-76 -73v-67zM119 444l77 -79v68l-77 73v-62zM50 443h63v63 zM186 327l10 -9v19zM282 264l-76 73v-29l76 -73v29zM196 304l-17 16l-14 -14l31 -30v28zM282 221l-76 73v-24l76 -72v23zM296 204l-8 7v-15zM288 254v-29l15 -14l14 14zM325 260h-29l29 -28l14 14zM353 260h-14l7 -7zM287 269h66l-77 78h-67zM72 437h-23l76 -80h24zM194 347 h-69l-76 -78h66z" />
<glyph unicode="&#xdb;" d="M10 850l184 185l184 -184l-91 -91l-93 94l-93 -94zM283 820v28l-84 84v-28zM189 899l-16 16l-15 -16l31 -32v32zM189 932l-8 -10l8 -9v19zM100 856l89 90v69l-159 -159h70zM73 846l23 -22v22h-23zM96 808l-38 38h-30l68 -67v29zM115 789l-9 10v-20zM106 843v-30l17 -17 l14 15zM127 869l-17 -16l35 -35l16 16zM150 892l-16 -16l34 -34l17 15zM283 805l-84 83v-26l84 -83v26zM300 788l-6 7v-14zM294 838v-29l13 -13l15 13zM327 846h-28l30 -29l14 13zM358 846h-15l8 -8zM199 946l91 -90h68l-159 159v-69zM237 700h121v-626q0 -30 -22 -52 t-52 -22h-180q-31 0 -52.5 22t-21.5 52v626h120v-579h87v579zM325 25l-31 31h-28l41 -41q9 2 18 10zM247 684v-567l46 -46v567zM348 666l-10 9l-14 -14l24 -23v28zM345 682l3 -3v6zM254 691l43 -43l43 43h-86zM348 85l-46 46v-28l44 -44q2 10 2 15v11zM302 172v-28l46 -45 v27zM302 214v-28l46 -46v28zM302 255v-28l46 -45v27zM302 297v-28l46 -46v28zM302 338v-28l46 -45v27zM302 380v-28l46 -46v28zM302 421v-28l46 -45v27zM302 463v-28l46 -46v28zM302 504v-28l46 -45v27zM302 545v-27l46 -46v28zM302 587v-28l46 -45v27zM302 628v-27l46 -46 v28zM318 655l-14 -14l44 -45v28zM285 65l-46 46h-92l-45 -46h183zM89 12l-20 20l-7 -6q13 -11 27 -14zM89 53l-14 -14l30 -29h27zM95 103l15 -16l14 14l-29 30v-28zM95 255v-28l45 -45v27zM140 140v28l-45 46v-28zM95 297v-28l45 -46v28zM95 338v-28l45 -45v27zM95 380v-28 l45 -46v28zM95 421v-28l45 -45v27zM95 463v-28l45 -46v28zM95 504v-28l45 -45v27zM95 545v-27l45 -46v28zM95 587v-28l45 -45v27zM95 144l36 -36l9 10v8l-45 46v-28zM140 666l-9 9l-14 -14l23 -23v28zM140 624l-30 31l-14 -14l44 -44v27zM138 682l2 -3v6zM46 691l43 -43 l43 43h-86zM140 555v28l-45 45v-27zM103 81l-8 8v-17zM128 56h-28l46 -46h28zM170 56h-28l46 -46h27zM211 56h-28l46 -46h28zM85 638l-46 46v-610q0 -23 16 -42l30 31v575zM225 56l46 -46h13q2 0 6.5 0.5t6.5 0.5l-44 45h-28zM302 61l30 -29q7 8 11 17l-41 40v-28z" />
<glyph unicode="&#xe2;" d="M10 684l184 185l184 -184l-91 -91l-93 94l-93 -94zM283 654v28l-84 84v-28zM189 733l-16 16l-15 -16l31 -32v32zM189 766l-8 -10l8 -9v19zM100 690l89 90v69l-159 -159h70zM73 680l23 -22v22h-23zM96 642l-38 38h-30l68 -67v29zM115 623l-9 10v-20zM106 677v-30l17 -17 l14 15zM127 703l-17 -16l35 -35l16 16zM150 726l-16 -16l34 -34l17 15zM283 639l-84 83v-26l84 -83v26zM300 622l-6 7v-14zM294 672v-29l13 -13l15 13zM327 680h-28l30 -29l14 13zM358 680h-15l8 -8zM199 780l91 -90h68l-159 159v-69zM358 460v-460h-120v124h-88v-124h-120 v460q0 31 21.5 52.5t52.5 21.5h180q31 0 52.5 -21.5t21.5 -52.5zM293 173l-46 -45v-112l46 46v111zM216 134l-46 46h-28l46 -46h28zM148 235l-46 -46h183l-46 46h-91zM50 9l-2 2l-1 -2h3zM69 32l-14 -14l8 -9h28zM90 53l-14 -14l29 -30h28zM267 180l9 -10l10 10h-19z M293 464l-46 -46v-177l46 -46v269zM268 469l8 -8l9 8h-17zM270 454l-16 15h-28l30 -29zM249 433l-36 36h-28l46 -46h8zM238 245v169h-88v-169h88zM217 423l-46 46h-28l46 -46h28zM175 423l-45 46h-28l46 -46h27zM141 84l-46 46v-28l46 -45v27zM95 379v-28l46 -45v28z M141 264v28l-46 46v-28zM95 421v-28l46 -46v28zM104 205l-9 8v-17zM95 227l15 -15l14 13l-29 30v-28zM95 268l36 -36l10 10v9l-46 45v-28zM141 389v28l-46 45v-28zM95 89v-28l46 -46v28zM95 172v-28l46 -46v28zM270 163l-17 17h-28l31 -31zM257 9l-1 2l-2 -2h3zM276 32 l-13 -14l8 -9h28zM297 53l-14 -14l29 -30h28zM303 89v-28l45 -46v28zM303 130v-28l45 -45v27zM303 172v-28l45 -46v28zM303 213v-28l45 -45v28zM303 255v-28l45 -46v28zM303 296v-28l45 -45v28zM303 338v-28l45 -46v28zM303 379v-28l45 -45v28zM303 421v-28l45 -46v28z M303 462v-28l45 -45v28zM318 489l-14 -14l44 -45v28zM332 503l-7 -8l22 -22q-3 14 -15 30zM284 525h-180q-24 0 -42 -16l30 -30h203l30 31q-18 15 -41 15zM85 472l-30 30q-15 -18 -15 -42v-444l45 46v410zM101 180l45 -46h28l-45 46h-28zM184 180l45 -46h12l8 8l-37 38h-28z " />
<glyph unicode="&#xe5;" d="M125 879h138q31 0 52.5 -21.5t21.5 -52.5v-137q0 -31 -21.5 -52.5t-52.5 -21.5h-138q-31 0 -52.5 21.5t-21.5 52.5v137q0 31 21.5 52.5t52.5 21.5zM111 606l-21 21l-6 -7q11 -11 27 -14zM111 647l-14 -14l29 -29h28zM247 814l9 -8l8 8h-17zM249 799l-15 15h-29l30 -29z M228 778l-35 36h-28l44 -46h9zM217 714v45h-46v-45h46zM196 768l-45 46h-28l46 -46h27zM116 697l16 -16l14 15l-30 29v-28zM116 738l37 -36l9 10v9l-46 44v-27zM162 735v26l-46 46v-28zM125 674l-9 9v-17zM150 649h-28l46 -45h27zM192 649h-28l45 -45h27zM169 705l-46 -46 h141l-46 46h-49zM304 619l-30 30h-28l41 -40q8 3 17 10zM227 763v-52l45 -46v143zM328 679l-46 46v-28l44 -44q2 10 2 15v11zM282 765v-27l46 -45v28zM282 807v-28l46 -44v26zM297 833l-14 -14l45 -44v28zM311 847l-7 -7l22 -22q-3 17 -15 29zM263 869h-138q-23 0 -41 -16 l29 -29h161l30 30q-17 15 -41 15zM61 805v-137q0 -23 16 -41l29 29v161l-29 29q-16 -18 -16 -41zM204 649l46 -45h13q9 0 13 1l-44 44h-28zM282 655l29 -29q6 6 11 16l-40 41v-28zM358 460v-460h-120v124h-88v-124h-120v460q0 31 21.5 52.5t52.5 21.5h180q31 0 52.5 -21.5 t21.5 -52.5zM293 173l-46 -45v-112l46 46v111zM216 134l-46 46h-28l46 -46h28zM148 235l-46 -46h183l-46 46h-91zM50 9l-2 2l-1 -2h3zM69 32l-14 -14l8 -9h28zM90 53l-14 -14l29 -30h28zM267 180l9 -10l10 10h-19zM293 464l-46 -46v-177l46 -46v269zM268 469l8 -8l9 8h-17z M270 454l-16 15h-28l30 -29zM249 433l-36 36h-28l46 -46h8zM238 245v169h-88v-169h88zM217 423l-46 46h-28l46 -46h28zM175 423l-45 46h-28l46 -46h27zM141 84l-46 46v-28l46 -45v27zM95 379v-28l46 -45v28zM141 264v28l-46 46v-28zM95 421v-28l46 -46v28zM104 205l-9 8v-17 zM95 227l15 -15l14 13l-29 30v-28zM95 268l36 -36l10 10v9l-46 45v-28zM141 389v28l-46 45v-28zM95 89v-28l46 -46v28zM95 172v-28l46 -46v28zM270 163l-17 17h-28l31 -31zM257 9l-1 2l-2 -2h3zM276 32l-13 -14l8 -9h28zM297 53l-14 -14l29 -30h28zM303 89v-28l45 -46v28z M303 130v-28l45 -45v27zM303 172v-28l45 -46v28zM303 213v-28l45 -45v28zM303 255v-28l45 -46v28zM303 296v-28l45 -45v28zM303 338v-28l45 -46v28zM303 379v-28l45 -45v28zM303 421v-28l45 -46v28zM303 462v-28l45 -45v28zM318 489l-14 -14l44 -45v28zM332 503l-7 -8 l22 -22q-3 14 -15 30zM284 525h-180q-24 0 -42 -16l30 -30h203l30 31q-18 15 -41 15zM85 472l-30 30q-15 -18 -15 -42v-444l45 46v410zM101 180l45 -46h28l-45 46h-28zM184 180l45 -46h12l8 8l-37 38h-28z" />
<glyph unicode="&#xe6;" horiz-adv-x="595" d="M565 121v-121h-328v125h-87v-125h-120v460q0 31 21.5 52.5t52.5 21.5h461v-120h-208v-86h166v-120h-166v-87h208zM293 173l-46 -45v-111l46 45v111zM216 135l-46 45h-28l46 -45h28zM147 236l-45 -46h183l-46 46h-92zM49 10l-1 2l-2 -2h3zM69 32l-14 -13l8 -9h28zM89 53 l-13 -14l29 -29h27zM555 99v6l-3 -3zM556 85l-10 10l-14 -14l24 -24v28zM556 44l-31 30l-14 -14l45 -44v28zM547 10l-45 45h-28l46 -45h27zM506 10l-46 45h-27l45 -45h28zM465 10l-46 45h-28l46 -45h28zM423 10l-46 45h-27l45 -45h28zM382 10l-46 45h-28l46 -45h28zM266 180 l10 -9l10 9h-20zM293 464l-46 -46v-177l46 -45v268zM302 213v-27l46 -46v28zM348 375l-46 46v-28l46 -46v28zM302 462v-27l46 -46v28zM257 10l-2 2l-2 -2h4zM276 32l-14 -13l8 -9h29zM297 53l-14 -14l29 -29h28zM311 81l-9 8v-17zM302 103l15 -15l15 14l-30 29v-28zM302 144 l36 -36l10 9v9l-46 46v-28zM348 182v27l-46 46v-28zM311 288l-9 8v-16zM302 310l15 -15l15 14l-30 29v-28zM302 352l36 -36l10 9v9l-46 45v-27zM268 469l8 -8l9 8h-17zM270 454l-16 15h-28l29 -29zM248 433l-36 36h-27l45 -46h9zM237 245v169h-87v-169h87zM217 423l-46 46 h-28l46 -46h28zM175 423l-46 46h-27l45 -46h28zM141 85l-46 46v-28l46 -46v28zM95 379v-27l46 -46v28zM141 265v27l-46 46v-28zM95 421v-28l46 -46v28zM103 205l-8 8v-16zM95 227l15 -15l14 14l-29 29v-28zM95 269l36 -36l10 9v9l-46 45v-27zM141 389v28l-46 45v-27zM95 89 v-28l46 -45v28zM95 172v-28l46 -45v27zM270 164l-17 16h-28l30 -30zM503 65l45 46h-193l-46 -46h194zM308 263l46 -45h28l-46 45h-28zM511 309l3 -3v6zM514 292l-10 10l-14 -14l24 -23v27zM514 251l-31 30l-14 -14l45 -44v28zM506 218l-46 45h-27l45 -45h28zM465 218l-46 45 h-28l46 -45h28zM423 218l-46 45h-27l45 -45h28zM461 273l46 45h-152l-46 -45h152zM309 469l46 -46h28l-46 46h-28zM556 513v6l-3 -3zM556 499l-10 10l-14 -14l24 -23v27zM556 458l-31 30l-14 -13l45 -45v28zM549 423l-46 46h-28l45 -46h29zM507 423l-45 46h-29l46 -46h28z M466 423l-46 46h-28l46 -46h28zM424 423l-46 46h-27l45 -46h28zM502 479l45 45h-443q-24 0 -42 -15l30 -30h410zM85 472l-29 30q-16 -16 -16 -42v-443l45 45v410zM100 180l46 -45h28l-46 45h-28zM183 180l46 -45h12l7 8l-36 37h-29z" />
<glyph unicode="&#xea;" d="M10 684l184 185l184 -184l-91 -91l-93 94l-93 -94zM283 654v28l-84 84v-28zM189 733l-16 16l-15 -16l31 -32v32zM189 766l-8 -10l8 -9v19zM100 690l89 90v69l-159 -159h70zM73 680l23 -22v22h-23zM96 642l-38 38h-30l68 -67v29zM115 623l-9 10v-20zM106 677v-30l17 -17 l14 15zM127 703l-17 -16l35 -35l16 16zM150 726l-16 -16l34 -34l17 15zM283 639l-84 83v-26l84 -83v26zM300 622l-6 7v-14zM294 672v-29l13 -13l15 13zM327 680h-28l30 -29l14 13zM358 680h-15l8 -8zM199 780l91 -90h68l-159 159v-69zM150 120h208v-120h-328v534h328v-120 h-208v-86h166v-121h-166v-87zM85 472l-45 46v-502l45 46v410zM217 423l-46 46h-28l46 -46h28zM213 469h-28l46 -46h27zM254 469h-28l46 -46h28zM296 469h-28l46 -46h27zM318 489l-14 -14l44 -45v28zM339 509l-14 -14l23 -23v28zM348 519l-2 -3l2 -3v6zM92 479h203l45 46 h-293zM141 168l-46 45v-28l46 -45v28zM141 375l-46 46v-28l46 -46v28zM104 80l-9 9v-17zM95 102l15 -15l14 14l-29 29v-28zM95 144l36 -36l10 9v9l-46 46v-28zM141 181v28l-46 46v-28zM104 288l-9 8v-17zM95 310l15 -15l14 14l-29 29v-28zM95 351l36 -36l10 10v9l-46 45v-28 zM95 434l46 -45v28l-46 45v-28zM50 10l-2 1l-1 -1h3zM69 32l-14 -14l8 -8h28zM90 53l-14 -14l29 -29h28zM129 55h-28l45 -45h28zM170 55h-28l46 -45h28zM212 55h-28l45 -45h28zM253 55h-28l46 -45h28zM295 55h-28l45 -45h28zM318 73l-14 -14l44 -44v28zM339 94l-14 -14 l23 -23v28zM348 98v6l-3 -3zM296 65l45 46h-193l-46 -46h194zM101 263l45 -46h28l-45 46h-28zM304 309l3 -3v5zM307 292l-10 10l-14 -14l24 -24v28zM307 251l-31 30l-14 -14l45 -44v28zM299 217l-46 46h-28l46 -46h28zM257 217l-45 46h-28l45 -46h28zM216 217l-46 46h-28 l46 -46h28zM254 272l46 46h-152l-46 -46h152zM102 469l46 -46h27l-45 46h-28z" />
<glyph unicode="&#xee;" horiz-adv-x="180" d="M-94 684l184 185l184 -184l-91 -91l-93 94l-93 -94zM179 654v28l-84 84v-28zM85 733l-16 16l-15 -16l31 -32v32zM85 766l-8 -10l8 -9v19zM-4 690l89 90v69l-159 -159h70zM-31 680l23 -22v22h-23zM-8 642l-38 38h-30l68 -67v29zM11 623l-9 10v-20zM2 677v-30l17 -17l14 15 zM23 703l-17 -16l35 -35l16 16zM46 726l-16 -16l34 -34l17 15zM179 639l-84 83v-26l84 -83v26zM196 622l-6 7v-14zM190 672v-29l13 -13l15 13zM223 680h-28l30 -29l14 13zM254 680h-15l8 -8zM95 780l91 -90h68l-159 159v-69zM30 0v534h120v-534h-120zM47 525l43 -43l43 43 h-86zM141 85l-46 46v-28l46 -46v28zM85 63v409l-45 46v-501zM50 10l-2 2l-1 -2h3zM69 32l-14 -14l8 -8h28zM90 53l-14 -14l29 -29h28zM95 89v-28l46 -45v27zM95 172v-28l46 -45v27zM95 214v-28l46 -46v28zM95 255v-28l46 -45v27zM95 297v-28l46 -46v28zM95 338v-28l46 -45 v27zM95 380v-28l46 -46v28zM95 421v-28l46 -45v27zM95 463v-28l46 -46v28zM110 489l-14 -14l45 -44v27zM131 509l-14 -14l24 -23v28zM141 519l-3 -3l3 -3v6z" />
<glyph unicode="&#xf4;" d="M10 684l184 185l184 -184l-91 -91l-93 94l-93 -94zM283 654v28l-84 84v-28zM189 733l-16 16l-15 -16l31 -32v32zM189 766l-8 -10l8 -9v19zM100 690l89 90v69l-159 -159h70zM73 680l23 -22v22h-23zM96 642l-38 38h-30l68 -67v29zM115 623l-9 10v-20zM106 677v-30l17 -17 l14 15zM127 703l-17 -16l35 -35l16 16zM150 726l-16 -16l34 -34l17 15zM283 639l-84 83v-26l84 -83v26zM300 622l-6 7v-14zM294 672v-29l13 -13l15 13zM327 680h-28l30 -29l14 13zM358 680h-15l8 -8zM199 780l91 -90h68l-159 159v-69zM104 534h180q31 0 52.5 -21.5 t21.5 -52.5v-386q0 -30 -21.5 -52t-52.5 -22h-180q-31 0 -52.5 22t-21.5 52v386q0 31 21.5 52.5t52.5 21.5zM89 12l-20 20l-7 -6q13 -11 27 -14zM90 53l-14 -14l29 -29h28zM268 469l8 -8l9 8h-17zM269 454l-15 15h-28l30 -29zM249 433l-36 36h-28l45 -45h9zM237 121v293h-87 v-293h87zM217 424l-46 45h-28l46 -45h28zM175 424l-45 45h-28l45 -45h28zM95 103l15 -16l14 14l-29 30v-28zM95 255v-28l46 -45v27zM141 140v28l-46 46v-28zM95 297v-28l46 -46v28zM95 338v-28l46 -45v27zM95 380v-28l46 -46v28zM95 421v-28l46 -45v27zM95 144l36 -36l10 10 v8l-46 46v-28zM141 389v28l-46 46v-28zM103 81l-8 8v-17zM128 56h-27l45 -46h28zM170 56h-28l46 -46h28zM211 56h-27l45 -46h28zM147 111l-45 -46h183l-46 46h-92zM325 25l-31 31h-27l41 -41q8 3 17 10zM247 418v-301l46 -46v393zM348 85l-46 46v-28l44 -44q2 10 2 15v11z M302 172v-28l46 -45v27zM302 214v-28l46 -46v28zM302 255v-28l46 -45v27zM302 297v-28l46 -46v28zM302 338v-28l46 -45v27zM302 380v-28l46 -46v28zM302 421v-28l46 -45v27zM302 463v-28l46 -46v28zM318 489l-14 -14l44 -44v27zM332 503l-7 -7l22 -23q-5 18 -15 30zM284 525 h-180q-24 0 -42 -16l30 -30h202l31 31q-18 15 -41 15zM40 460v-386q0 -22 15 -42l30 31v409l-30 30q-15 -18 -15 -42zM225 56l46 -46h13q2 0 6.5 0.5t6.5 0.5l-44 45h-28zM302 61l30 -29q7 8 11 17l-41 40v-28z" />
<glyph unicode="&#xf7;" horiz-adv-x="512" d="M30 411h452v-120h-452v120zM472 389v6l-3 -3zM91 356h328l46 45h-420zM40 308l43 43l-43 43v-86zM49 301l-1 1l-1 -1h2zM69 323l-14 -14l8 -8h28zM90 344l-14 -14l29 -29h27zM128 347h-27l45 -46h28zM169 347h-27l46 -46h27zM211 347h-28l46 -46h27zM253 347h-28l45 -46 h28zM378 347h-29l46 -46h28zM336 347h-28l45 -46h29zM294 347h-28l46 -46h28zM419 347h-28l45 -46h28zM441 365l-13 -14l44 -45v29zM462 385l-14 -14l24 -23v28zM197 571h120v-121h-120v121zM307 536l-8 9l-14 -14l22 -22v27zM305 552l2 -2v4zM214 561l43 -44l44 44h-87z M206 467l44 44l-44 43v-87zM218 460l-2 3l-3 -3h5zM236 483l-14 -14l9 -9h28zM257 504l-14 -14l30 -30h28zM278 525l-14 -14l43 -44v28zM197 251h120v-121h-120v121zM307 216l-8 9l-14 -14l22 -22v27zM305 232l2 -2v4zM214 241l43 -44l44 44h-87zM206 147l44 44l-44 43v-87z M218 140l-2 3l-3 -3h5zM236 163l-14 -14l9 -9h28zM257 184l-14 -14l30 -30h28zM278 205l-14 -14l43 -44v28z" />
<glyph unicode="&#xfb;" horiz-adv-x="389" d="M10 684l184 185l184 -184l-91 -91l-93 94l-93 -94zM283 654v28l-84 84v-28zM189 733l-16 16l-15 -16l31 -32v32zM189 766l-8 -10l8 -9v19zM100 690l89 90v69l-159 -159h70zM73 680l23 -22v22h-23zM96 642l-38 38h-30l68 -67v29zM115 623l-9 10v-20zM106 677v-30l17 -17 l14 15zM127 703l-17 -16l35 -35l16 16zM150 726l-16 -16l34 -34l17 15zM283 639l-84 83v-26l84 -83v26zM300 622l-6 7v-14zM294 672v-29l13 -13l15 13zM327 680h-28l30 -29l14 13zM358 680h-15l8 -8zM199 780l91 -90h68l-159 159v-69zM237 534h121v-460q0 -30 -21.5 -52 t-52.5 -22h-180q-31 0 -52.5 22t-21.5 52v460h120v-413h87v413zM325 25l-31 31h-27l41 -41q8 3 17 10zM247 518v-401l46 -46v401zM348 500l-10 9l-13 -14l23 -23v28zM345 516l3 -3v6zM254 525l43 -43l43 43h-86zM348 85l-46 46v-28l44 -44q2 10 2 15v11zM302 172v-28l46 -45 v27zM302 214v-28l46 -46v28zM302 255v-28l46 -45v27zM302 297v-28l46 -46v28zM302 338v-28l46 -45v27zM302 380v-28l46 -46v28zM302 421v-28l46 -45v27zM302 462v-27l46 -46v28zM318 489l-14 -14l44 -44v27zM285 65l-46 46h-92l-45 -46h183zM89 12l-20 20l-7 -6 q13 -11 27 -14zM90 53l-14 -14l29 -29h28zM95 103l15 -16l14 14l-29 30v-28zM95 255v-28l46 -45v27zM141 140v28l-46 46v-28zM95 297v-28l46 -46v28zM95 338v-28l46 -45v27zM95 380v-28l46 -46v28zM95 421v-28l46 -45v27zM95 144l36 -36l10 10v8l-46 46v-28zM141 500l-10 9 l-14 -14l24 -23v28zM141 458l-31 31l-14 -14l45 -44v27zM138 516l3 -3v6zM46 525l44 -43l43 43h-87zM141 389v28l-46 45v-27zM103 81l-8 8v-17zM128 56h-27l45 -46h28zM170 56h-28l46 -46h28zM211 56h-27l45 -46h28zM85 472l-45 46v-444q0 -22 15 -42l30 31v409zM225 56 l46 -46h13q2 0 6.5 0.5t6.5 0.5l-44 45h-28zM302 61l30 -29q7 8 11 17l-41 40v-28z" />
<glyph unicode="&#x152;" horiz-adv-x="595" d="M358 121h207v-121h-461q-31 0 -52.5 22t-21.5 52v552q0 31 21.5 52.5t52.5 21.5h461v-120h-207v-169h166v-120h-166v-170zM89 12l-20 20l-7 -6q13 -11 27 -14zM89 53l-14 -14l30 -29h27zM293 630l-46 -46v-467l46 -46v559zM348 168l-46 46v-28l46 -46v28zM302 255v-28 l46 -45v27zM302 297v-28l46 -46v28zM348 458l-46 46v-28l46 -45v27zM302 546v-28l46 -46v28zM302 587v-28l46 -45v27zM302 629v-28l46 -46v28zM311 81l-9 8v-17zM302 103l16 -16l13 14l-29 30v-28zM302 144l36 -36l10 10v8l-46 46v-28zM348 265v27l-46 46v-28zM311 371l-9 9 v-17zM302 393l16 -15l13 14l-29 29v-28zM302 435l36 -36l10 9v9l-46 46v-28zM268 635l8 -8l9 8h-17zM269 620l-15 15h-28l29 -29zM248 599l-36 36h-27l45 -45h9zM237 121v459h-87v-459h87zM217 590l-46 45h-28l46 -45h28zM175 590l-46 45h-27l45 -45h28zM95 103l15 -16 l14 14l-29 30v-28zM95 255v-28l45 -45v27zM140 140v28l-45 46v-28zM95 297v-28l45 -46v28zM95 338v-28l45 -45v27zM95 380v-28l45 -46v28zM95 421v-28l45 -45v27zM95 463v-28l45 -46v28zM95 504v-28l45 -45v27zM95 546v-28l45 -46v28zM95 587v-28l45 -45v27zM95 144l36 -36 l9 10v8l-45 46v-28zM140 555v28l-45 46v-28zM103 81l-8 8v-17zM128 56h-28l46 -46h28zM170 56h-28l46 -46h27zM147 111l-45 -46h183l-46 46h-92zM298 10l-45 46h-28l46 -46h27zM266 56l46 -46h28l-46 46h-28zM336 56h-28l46 -46h27zM377 56h-28l46 -46h28zM419 56h-28 l46 -46h27zM460 56h-28l46 -46h28zM502 56h-28l46 -46h27zM525 74l-14 -14l44 -44v27zM546 95l-14 -14l23 -24v28zM555 99v5l-3 -3zM503 65l45 46h-193l-46 -46h194zM308 346l46 -46h27l-45 46h-28zM511 392l3 -3v6zM514 375l-10 10l-14 -14l24 -23v27zM514 334l-31 30 l-13 -14l44 -44v28zM506 300l-46 46h-28l46 -46h28zM464 300l-45 46h-28l46 -46h27zM423 300l-46 46h-28l46 -46h28zM461 356l46 45h-152l-46 -45h152zM309 635l46 -45h28l-46 45h-28zM555 679v6l-2 -3zM555 666l-9 9l-14 -13l23 -24v28zM555 624l-30 31l-14 -14l44 -44v27z M549 590l-46 45h-28l46 -45h28zM507 590l-46 45h-27l45 -45h28zM466 590l-46 45h-28l46 -45h28zM424 590l-46 45h-27l45 -45h28zM502 645l45 46h-443q-24 0 -42 -16l30 -30h410zM39 626v-552q0 -23 16 -42l30 31v575l-30 30q-16 -18 -16 -42zM183 56l46 -46h13h15l-46 46 h-28z" />
<glyph unicode="&#x153;" horiz-adv-x="595" d="M358 121h207v-121h-461q-31 0 -52.5 22t-21.5 52v386q0 31 21.5 52.5t52.5 21.5h461v-120h-207v-86h166v-120h-166v-87zM89 12l-20 20l-7 -6q13 -11 27 -14zM90 53l-14 -14l29 -29h28zM293 464l-46 -46v-301l46 -46v393zM348 168l-46 46v-28l46 -46v28zM302 421v-28 l46 -45v27zM302 463v-28l46 -46v28zM311 81l-9 8v-17zM302 103l16 -16l14 14l-30 30v-28zM302 144l36 -36l10 10v8l-46 46v-28zM348 182v27l-46 46v-28zM311 288l-9 9v-17zM302 310l16 -15l14 14l-30 29v-28zM302 352l36 -36l10 9v9l-46 46v-28zM268 469l8 -8l9 8h-17z M269 454l-15 15h-28l30 -29zM249 433l-36 36h-28l45 -45h9zM237 121v293h-87v-293h87zM217 424l-46 45h-28l46 -45h28zM175 424l-45 45h-28l45 -45h28zM95 103l15 -16l14 14l-29 30v-28zM141 140v28l-46 46v-28zM95 255v-28l46 -45v27zM95 297v-28l46 -46v28zM95 338v-28 l46 -45v27zM95 380v-28l46 -46v28zM95 421v-28l46 -45v27zM95 144l36 -36l10 10v8l-46 46v-28zM141 389v28l-46 46v-28zM103 81l-8 8v-17zM128 56h-27l45 -46h28zM170 56h-28l46 -46h28zM147 111l-45 -46h183l-46 46h-92zM299 10l-46 46h-28l46 -46h28zM267 56l45 -46h28 l-46 46h-27zM336 56h-28l46 -46h28zM377 56h-27l45 -46h28zM419 56h-28l46 -46h28zM460 56h-27l45 -46h28zM502 56h-28l46 -46h27zM525 74l-14 -14l45 -44v27zM546 95l-14 -14l23 -24v28zM555 99v5l-3 -3zM503 65l46 46h-194l-46 -46h194zM308 263l46 -46h28l-46 46h-28z M511 309l3 -3v6zM514 292l-10 10l-14 -14l24 -23v27zM514 251l-30 30l-14 -14l44 -44v28zM506 217l-46 46h-27l45 -46h28zM465 217l-46 46h-28l46 -46h28zM423 217l-46 46h-27l45 -46h28zM461 273l46 45h-152l-46 -45h152zM309 469l46 -45h28l-46 45h-28zM556 514v5l-3 -3z M556 500l-10 9l-14 -13l24 -24v28zM556 458l-31 31l-14 -14l45 -44v27zM549 424l-46 45h-28l46 -45h28zM507 424l-45 45h-28l45 -45h28zM466 424l-46 45h-28l46 -45h28zM424 424l-45 45h-28l45 -45h28zM502 479l45 46h-443q-24 0 -42 -16l30 -30h410zM40 460v-386 q0 -22 15 -42l30 31v409l-30 30q-15 -18 -15 -42zM184 56l45 -46h13h15l-46 46h-27z" />
<glyph unicode="&#x2c6;" horiz-adv-x="428" d="M30 630l184 185l184 -184l-91 -91l-93 94l-93 -94zM303 600v28l-84 84v-28zM209 679l-16 16l-15 -16l31 -32v32zM209 712l-8 -10l8 -9v19zM120 636l89 90v69l-159 -159h70zM93 626l23 -22v22h-23zM116 588l-38 38h-30l68 -67v29zM135 569l-9 10v-20zM126 623v-30l17 -17 l14 15zM147 649l-17 -16l35 -35l16 16zM170 672l-16 -16l34 -34l17 15zM303 585l-84 83v-26l84 -83v26zM320 568l-6 7v-14zM314 618v-29l13 -13l15 13zM347 626h-28l30 -29l14 13zM378 626h-15l8 -8zM219 726l91 -90h68l-159 159v-69z" />
<glyph unicode="&#x2000;" horiz-adv-x="517" />
<glyph unicode="&#x2001;" horiz-adv-x="1035" />
<glyph unicode="&#x2002;" horiz-adv-x="517" />
<glyph unicode="&#x2003;" horiz-adv-x="1035" />
<glyph unicode="&#x2004;" horiz-adv-x="345" />
<glyph unicode="&#x2005;" horiz-adv-x="258" />
<glyph unicode="&#x2006;" horiz-adv-x="172" />
<glyph unicode="&#x2007;" horiz-adv-x="172" />
<glyph unicode="&#x2008;" horiz-adv-x="129" />
<glyph unicode="&#x2009;" horiz-adv-x="207" />
<glyph unicode="&#x200a;" horiz-adv-x="57" />
<glyph unicode="&#x2010;" horiz-adv-x="304" d="M30 327h244v-120h-244v120zM264 305v5l-3 -3zM91 271h121l45 46h-212zM39 223l43 43l-43 43v-86zM49 216l-1 2l-2 -2h3zM69 239l-14 -14l8 -9h28zM89 259l-14 -14l29 -29h28zM128 262h-28l46 -46h28zM169 262h-27l45 -46h28zM211 262h-28l46 -46h27zM234 280l-14 -14 l44 -44v28zM255 301l-14 -14l23 -24v28z" />
<glyph unicode="&#x2011;" horiz-adv-x="304" d="M30 327h244v-120h-244v120zM264 305v5l-3 -3zM91 271h121l45 46h-212zM39 223l43 43l-43 43v-86zM49 216l-1 2l-2 -2h3zM69 239l-14 -14l8 -9h28zM89 259l-14 -14l29 -29h28zM128 262h-28l46 -46h28zM169 262h-27l45 -46h28zM211 262h-28l46 -46h27zM234 280l-14 -14 l44 -44v28zM255 301l-14 -14l23 -24v28z" />
<glyph unicode="&#x2012;" horiz-adv-x="304" d="M30 327h244v-120h-244v120zM264 305v5l-3 -3zM91 271h121l45 46h-212zM39 223l43 43l-43 43v-86zM49 216l-1 2l-2 -2h3zM69 239l-14 -14l8 -9h28zM89 259l-14 -14l29 -29h28zM128 262h-28l46 -46h28zM169 262h-27l45 -46h28zM211 262h-28l46 -46h27zM234 280l-14 -14 l44 -44v28zM255 301l-14 -14l23 -24v28z" />
<glyph unicode="&#x2013;" d="M30 327h328v-120h-328v120zM348 305v6l-3 -3zM91 272h205l45 46h-296zM39 224l43 43l-43 43v-86zM49 217l-1 2l-2 -2h3zM69 239l-14 -14l8 -8h28zM89 260l-14 -14l29 -29h28zM128 263h-28l46 -46h28zM169 263h-27l45 -46h29zM212 263h-29l47 -46h27zM253 263h-28l46 -46 h28zM295 263h-28l45 -46h28zM318 281l-14 -14l44 -44v27zM338 301l-13 -13l23 -24v28z" />
<glyph unicode="&#x2014;" horiz-adv-x="512" d="M30 327h452v-120h-452v120zM472 305v5l-3 -2zM91 272h328l46 45h-420zM40 224l43 43l-43 43v-86zM49 217l-1 1l-1 -1h2zM69 239l-14 -14l8 -8h28zM90 260l-14 -14l29 -29h27zM128 263h-27l45 -46h28zM169 263h-27l46 -46h27zM211 263h-28l46 -46h27zM253 263h-28l45 -46 h28zM378 263h-29l46 -46h28zM336 263h-28l45 -46h29zM294 263h-28l46 -46h28zM419 263h-28l45 -46h28zM441 281l-13 -14l44 -45v29zM462 301l-14 -14l24 -23v28z" />
<glyph unicode="&#x2018;" horiz-adv-x="180" d="M30 572v128h120v-118h-55v-84q-13 3 -16 4q-22 7 -35.5 27t-13.5 43zM46 691l44 -43l43 43h-87zM40 598l43 43l-43 42v-85zM49 593l-9 -9v-11l45 -45v27zM56 600l29 -31v23h6l-22 21zM90 634l-14 -14l29 -28h27zM111 655l-15 -14l44 -44v27zM131 675l-13 -13l22 -24v28z M140 684l-2 -2l2 -3v5zM83 511q1 0 2 -1v4l-44 44q8 -35 42 -47z" />
<glyph unicode="&#x2019;" horiz-adv-x="180" d="M30 581v119h120v-114v-15q0 -23 -14 -42.5t-36 -27.5q-6 -2 -16 -3v83h-54zM50 590l-2 1l-2 -1h4zM40 683v-87l42 44zM46 690l42 -42l44 42h-86zM140 583l-52 50l-13 -13l64 -63q1 4 1 14v12zM110 654l-14 -14l44 -45v29zM131 675l-14 -14l23 -23v27zM140 684l-2 -2l2 -3 v5zM55 598l7 -8h29l-23 23zM97 510q11 4 20 13l-22 21v-34h2zM95 558l28 -29q9 9 12 17l-40 41v-29z" />
<glyph unicode="&#x201a;" horiz-adv-x="180" d="M30 -33v119h120v-114v-15q0 -23 -14 -42.5t-36 -27.5q-6 -2 -16 -3v83h-54zM50 -24l-2 1l-2 -1h4zM40 69v-87l42 44zM46 76l42 -42l44 42h-86zM140 -31l-52 50l-13 -13l64 -63q1 4 1 14v12zM110 40l-14 -14l44 -45v29zM131 61l-14 -14l23 -23v27zM140 70l-2 -2l2 -3v5z M55 -16l7 -8h29l-23 23zM97 -104q11 4 20 13l-22 21v-34h2zM95 -56l28 -29q9 9 12 17l-40 41v-29z" />
<glyph unicode="&#x201c;" horiz-adv-x="330" d="M30 570v130h122v-120h-56v-85q-13 3 -16 4q-22 7 -36 27t-14 44zM46 691l45 -44l44 44h-89zM40 596l44 44l-44 43v-87zM49 591l-9 -9v-11l46 -46v28zM56 598l30 -31v23h6l-22 22zM91 633l-14 -14l29 -29h28zM112 654l-15 -14l45 -45v28zM133 675l-14 -14l23 -24v28z M142 684l-2 -2l2 -3v5zM84 508l2 -1v4l-45 45q8 -35 43 -48zM178 570v130h122v-120h-56v-85q-13 3 -16 4q-22 7 -36 27t-14 44zM194 691l45 -44l44 44h-89zM188 596l44 44l-44 43v-87zM197 591l-9 -9v-11l46 -46v28zM204 598l30 -31v23h6l-22 22zM239 633l-14 -14l29 -29h28 zM260 654l-15 -14l45 -45v28zM281 675l-14 -14l23 -24v28zM290 684l-2 -2l2 -3v5zM232 508l2 -1v4l-45 45q8 -35 43 -48z" />
<glyph unicode="&#x201d;" horiz-adv-x="328" d="M30 581v119h120v-129q0 -23 -14 -42.5t-36 -27.5q-6 -2 -16 -3v83h-54zM50 590l-2 1l-2 -1h4zM40 683v-87l42 44zM46 690l42 -42l44 42h-86zM140 583l-52 50l-13 -13l64 -63q1 4 1 14v12zM110 654l-14 -14l44 -45v29zM131 675l-14 -14l23 -23v27zM140 684l-2 -2l2 -3v5z M55 598l7 -8h29l-23 23zM95 510h2q11 4 20 13l-22 21v-34zM95 558l28 -29q9 9 12 17l-40 41v-29zM178 581v119h120v-129q0 -23 -14 -42.5t-36 -27.5q-6 -2 -16 -3v83h-54zM198 590l-2 1l-2 -1h4zM188 683v-87l42 44zM194 690l42 -42l44 42h-86zM288 583l-52 50l-13 -13 l64 -63q1 4 1 14v12zM258 654l-14 -14l44 -45v29zM279 675l-14 -14l23 -23v27zM288 684l-2 -2l2 -3v5zM203 598l7 -8h29l-23 23zM243 510h2q11 4 20 13l-22 21v-34zM243 558l28 -29q9 9 12 17l-40 41v-29z" />
<glyph unicode="&#x201e;" horiz-adv-x="328" d="M30 -33v119h120v-129q0 -23 -14 -42.5t-36 -27.5q-6 -2 -16 -3v83h-54zM50 -24l-2 1l-2 -1h4zM40 69v-87l42 44zM46 76l42 -42l44 42h-86zM140 -31l-52 50l-13 -13l64 -63q1 4 1 14v12zM110 40l-14 -14l44 -45v29zM131 61l-14 -14l23 -23v27zM140 70l-2 -2l2 -3v5z M55 -16l7 -8h29l-23 23zM97 -104q11 4 20 13l-22 21v-34h2zM95 -56l28 -29q9 9 12 17l-40 41v-29zM178 -33v119h120v-129q0 -23 -14 -42.5t-36 -27.5q-6 -2 -16 -3v83h-54zM198 -24l-2 1l-2 -1h4zM188 69v-87l42 44zM194 76l42 -42l44 42h-86zM288 -31l-52 50l-13 -13 l64 -63q1 4 1 14v12zM258 40l-14 -14l44 -45v29zM279 61l-14 -14l23 -23v27zM288 70l-2 -2l2 -3v5zM203 -16l7 -8h29l-23 23zM245 -104q11 4 20 13l-22 21v-34h2zM243 -56l28 -29q9 9 12 17l-40 41v-29z" />
<glyph unicode="&#x2022;" horiz-adv-x="250" d="M118 440h14q32 0 55 -23t23 -55v-14q0 -32 -23 -55t-55 -23h-14q-32 0 -55 23t-23 55v14q0 32 23 55t55 23zM146 369l-14 -14l51 -52q5 5 12 19zM177 297l-52 51l-14 -14l47 -49q15 8 19 12zM169 391l-14 -15l43 -43q0 2 0.5 7t0.5 8v11zM183 407l-7 -8l22 -23 q-3 17 -15 31zM132 429h-14q-27 0 -44 -16l51 -51l52 51q-19 16 -45 16zM51 362v-14q0 -24 16 -45l51 52l-51 52q-16 -21 -16 -45zM112 281l-26 27l-12 -11q16 -14 38 -16zM92 316l35 -35h5q3 0 8 0.5t7 0.5l-43 43z" />
<glyph unicode="&#x2026;" horiz-adv-x="512" d="M30 121h120v-121h-120v121zM140 86l-8 9l-14 -14l22 -22v27zM138 102l2 -2v4zM47 111l43 -44l44 44h-87zM39 17l44 44l-44 43v-87zM51 10l-2 2l-3 -2h5zM69 33l-14 -14l9 -9h28zM90 54l-14 -14l30 -30h28zM111 75l-14 -14l43 -44v28zM196 121h120v-121h-120v121zM306 86 l-8 9l-14 -14l22 -22v27zM304 102l2 -2v4zM213 111l43 -44l44 44h-87zM205 17l44 44l-44 43v-87zM217 10l-2 2l-3 -2h5zM235 33l-14 -14l9 -9h28zM256 54l-14 -14l30 -30h28zM277 75l-14 -14l43 -44v28zM362 121h120v-121h-120v121zM472 86l-8 9l-14 -14l22 -22v27zM470 102 l2 -2v4zM379 111l43 -44l44 44h-87zM371 17l44 44l-44 43v-87zM383 10l-2 2l-3 -2h5zM401 33l-14 -14l9 -9h28zM422 54l-14 -14l30 -30h28zM443 75l-14 -14l43 -44v28z" />
<glyph unicode="&#x202f;" horiz-adv-x="207" />
<glyph unicode="&#x2039;" horiz-adv-x="300" d="M181 277l89 -89l-86 -86l-174 175l173 173l86 -86zM212 321l-33 32l-14 -14l33 -32zM214 359h-28l33 -32l13 15zM252 359h-23l11 -10zM188 432v-62h62zM94 281l85 85v66l-150 -151h65zM179 186l-85 86h-28l113 -113v27zM127 281l-10 9l-9 -9h19zM124 298l16 -17h28 l-31 30zM179 145l-128 127h-22l150 -150v23zM197 127l-9 7v-14zM188 177v-27l16 -16l13 15zM224 183h-27l27 -28l14 14zM252 183h-14l7 -6zM186 193h65l-79 79h-64zM144 318l34 -33l13 15l-33 33z" />
<glyph unicode="&#x203a;" horiz-adv-x="300" d="M31 364l85 86l174 -173l-174 -175l-86 87l88 88zM111 161v23h-23zM111 148l-37 36h-25l62 -64v28zM129 131l-8 8v-16zM121 180v-28l15 -14l14 13zM138 205l-13 -14l32 -33l14 14zM159 225l-14 -13l33 -33l14 14zM180 246l-14 -14l33 -32l14 14zM202 268l-15 -15l33 -32 l14 13zM86 360l78 -78h27l-78 78h-27zM121 367l83 -85h67l-150 149v-64zM50 370h61v61zM239 272h-28l30 -31l14 14zM72 360h-23l78 -78h23zM193 272h-66l-78 -79h64zM271 272h-19l9 -10z" />
<glyph unicode="&#x205f;" horiz-adv-x="258" />
<glyph unicode="&#x20ac;" horiz-adv-x="428" d="M278 121v41l120 -29v-59q0 -30 -21.5 -52t-52.5 -22h-180q-30 0 -52 22t-22 52v133h-40v120h40v46h-40v120h40v133q0 31 22 52.5t52 21.5h180q31 0 52.5 -21.5t21.5 -52.5v-59l-120 -28v41h-87v-86h124v-120h-124v-46h124v-120h-124v-87h87zM366 25l-31 31h-28l41 -41 q5 1 18 10zM288 144v-27l45 -46v28zM299 147l40 -40l41 20zM389 85l-24 24l-19 -9l41 -41q2 10 2 15v11zM389 121l-15 -8l15 -14v22zM325 65l-45 46h-92l-46 -46h183zM130 12l-21 20l-6 -6q11 -11 27 -14zM130 53l-14 -14l29 -29h28zM75 246l14 -14l14 14l-14 14zM49 217 l-1 1l-2 -1h3zM39 310v-86l43 43zM100 262l10 -9l11 9h-21zM126 422l-46 -47v-51l46 -47v145zM49 383l-1 1l-2 -1h3zM39 476v-86l43 43zM181 555v28l-46 46v-28zM135 103l16 -15l14 13l-30 30v-28zM135 227l46 -45v28l-46 47v-30zM181 140v28l-46 46v-28zM135 144l37 -36 l9 10v9l-46 45v-28zM144 288l-9 9v-20zM135 310l16 -15l14 14l-30 29v-28zM135 352l37 -36l9 9v9l-46 46v-28zM181 348v27l-46 47v-29zM181 541l-46 46v-28l46 -45v27zM135 476l16 -15l14 14l-30 29v-28zM135 444l9 10l-9 9v-19zM135 518l37 -36l9 9v9l-46 46v-28zM100 428 l10 -9l11 9h-21zM103 412l-14 14l-14 -14l14 -14zM144 81l-9 8v-17zM169 56h-28l46 -46h28zM210 56h-27l45 -46h28zM252 56h-28l46 -46h28zM140 263l47 -45h28l-46 45h-29zM303 309l3 -3v6zM306 292l-10 10l-14 -14l24 -23v27zM306 251l-31 30l-14 -14l45 -44v28zM298 218 l-46 45h-28l46 -45h28zM256 218l-46 45h-27l45 -45h28zM253 273l46 45h-111l-47 -45h112zM140 429l47 -46h28l-46 46h-29zM303 475l3 -3v6zM306 458l-10 10l-14 -14l24 -23v27zM306 417l-31 30l-14 -14l45 -44v28zM298 383l-46 46h-28l46 -46h28zM256 383l-46 46h-27l45 -46 h28zM253 439l46 45h-111l-48 -45h113zM142 635l46 -45h28l-46 45h-28zM257 590l-45 45h-28l45 -45h28zM225 635l46 -45h9l9 9l-36 36h-28zM389 624l-31 31l-14 -14l45 -44v27zM333 630l-45 -46v-28l45 46v28zM317 572l-14 -14l3 -3l22 5zM338 593l-14 -14l15 -16l23 5z M380 572l-18 10l11 -11zM343 629v-26l46 -24v4zM308 635l9 -8l8 8h-17zM310 620l-15 15h-28l29 -29zM365 662l22 -23q-3 18 -15 30zM324 691h-180q-23 0 -41 -16l30 -30h202l31 31q-20 15 -42 15zM126 638l-30 30q-16 -18 -16 -42v-136l46 -47v195zM120 438l-47 46h-28 l45 -46h30zM63 383h-1h12l8 8l-14 14l-14 -14zM120 272l-47 46h-28l45 -46h30zM63 217h-1h12l8 8l-14 14l-14 -14zM126 256l-46 -47v-135q0 -23 16 -42l30 31v193zM266 56l45 -46h13q2 0 7 0.5t7 0.5l-45 45h-27zM343 61l29 -29q8 8 11 17l-40 40v-28z" />
<glyph unicode="&#x2122;" horiz-adv-x="836" d="M113 580h-83v120h286v-120h-82v-164h-121v164zM299 589l-45 46h-27l45 -46h27zM276 655l-14 -14l44 -45v28zM297 675l-14 -13l23 -24v28zM306 685l-3 -3l3 -3v6zM92 645h161l45 46h-252zM168 629l-45 -45v-152l45 45v152zM143 635l9 -9l8 9h-17zM131 606l14 14l-15 15 h-28zM133 425l-2 2l-1 -2h3zM152 447l-14 -14l8 -8h28zM172 468l-13 -14l28 -29h28zM178 504v-28l46 -45v27zM178 546v-28l46 -46v27zM178 587v-28l46 -45v28zM178 600l46 -45v28l-46 45v-28zM40 597l42 44l-42 43v-87zM51 589l-3 3l-3 -3h6zM68 613l-13 -14l9 -10h28z M75 620l31 -31h9l9 10l-35 34zM184 635l47 -46h27l-46 46h-28zM806 416h-121v164h-45v-164h-120v164h-46v-164h-120v284h378q31 0 52.5 -21.5t21.5 -52.5v-210zM695 584v-152l45 45v152zM620 635h-29l47 -46h27zM530 584v-152l45 45v152zM550 635l8 -9l9 9h-17zM552 620 l-15 15h-28l29 -29zM531 599l-35 36h-29l46 -46h9zM631 458l-47 46v-28l47 -45v27zM584 546v-28l47 -46v27zM584 587v-27l47 -46v28zM584 628v-27l47 -46v28zM661 635h-27l45 -46h8l10 10zM796 624l-30 31l-14 -14l44 -45v28zM796 541l-45 46v-28l45 -45v27zM796 499l-45 47 v-28l45 -46v27zM796 555v28l-45 45v-27zM796 458l-45 46v-28l45 -45v27zM716 635l8 -9l9 9h-17zM717 620l-15 15h-27l29 -29zM773 662l22 -22q-3 17 -15 29zM732 691h-362l46 -46h326l31 31q-18 15 -41 15zM374 425l-2 2l-1 -2h3zM393 447l-14 -14l8 -8h28zM414 468l-14 -14 l29 -29h27zM419 504v-28l45 -45v27zM419 546v-28l45 -46v27zM419 587v-28l45 -45v28zM419 600l45 -45v28l-45 45v-28zM409 639l-46 46v-253l46 44v163zM426 635l45 -46h29l-47 46h-27zM538 427l-1 -2h2zM545 433l8 -8h27l-21 22zM565 454l29 -29h29l-44 43zM704 427l-2 -2h3 zM710 434l9 -9h29l-24 23zM731 454l30 -29h27l-42 43z" />
<glyph unicode="&#xe000;" horiz-adv-x="535" d="M0 535h535v-535h-535v535z" />
<glyph unicode="&#xfb01;" horiz-adv-x="568" d="M418 0v534h120v-534h-120zM435 525l43 -43l43 43h-86zM529 85l-46 46v-28l46 -46v28zM473 63v409l-45 46v-501zM438 10l-2 2l-1 -2h3zM457 32l-14 -14l8 -8h28zM478 53l-14 -14l29 -29h28zM483 89v-28l46 -45v27zM483 172v-28l46 -45v27zM483 214v-28l46 -46v28zM483 255 v-28l46 -45v27zM483 297v-28l46 -46v28zM483 338v-28l46 -45v27zM483 380v-28l46 -46v28zM483 421v-28l46 -45v27zM483 463v-28l46 -46v28zM498 489l-14 -14l45 -44v27zM519 509l-14 -14l24 -23v28zM529 519l-3 -3l3 -3v6zM358 534v-120h-208v-86h166v-120h-166v-208h-120 v534h328zM85 472l-45 46v-501l45 46v409zM95 421v-28l46 -45v27zM50 10l-2 2l-1 -2h3zM69 32l-14 -14l8 -8h28zM90 53l-14 -14l29 -29h28zM95 89v-28l46 -45v28zM95 131v-28l46 -46v28zM95 172v-28l46 -45v27zM95 214v-28l46 -46v28zM141 182v27l-46 46v-28zM103 288l-8 9 v-17zM95 310l15 -15l14 14l-29 29v-28zM95 352l36 -36l10 9v9l-46 46v-28zM95 435l46 -46v28l-46 46v-28zM340 525h-293l45 -46h202zM258 424l-45 45h-28l45 -45h28zM254 469h-28l46 -45h28zM296 469h-28l45 -45h28zM318 489l-14 -14l44 -44v27zM338 509l-13 -13l23 -24v28z M348 519l-3 -3l3 -2v5zM217 424l-46 45h-28l46 -45h28zM101 263l45 -46h28l-46 46h-27zM304 309l3 -3v6zM307 292l-10 10l-14 -14l24 -23v27zM307 251l-31 30l-14 -14l45 -44v28zM298 217l-45 46h-28l46 -46h27zM257 217l-46 46h-27l45 -46h28zM216 217l-46 46h-28l46 -46 h28zM254 273l46 45h-153l-45 -45h152zM102 469l45 -45h28l-45 45h-28z" />
<glyph unicode="&#xfb02;" horiz-adv-x="735" d="M538 121h167v-121h-287v534h120v-413zM529 500l-10 9l-14 -13l24 -24v28zM529 458l-31 31l-14 -14l45 -44v27zM529 389v28l-46 46v-28zM529 168l-46 46v-28l46 -46v28zM483 255v-28l46 -45v27zM483 297v-28l46 -46v28zM483 338v-28l46 -45v27zM483 380v-28l46 -46v28z M483 421v-28l46 -45v27zM491 81l-8 8v-17zM483 103l15 -16l14 14l-29 30v-28zM483 144l36 -36l10 10v8l-46 46v-28zM526 516l3 -2v5zM435 525l43 -43l43 43h-86zM473 63v409l-45 46v-501zM438 10l-2 2l-1 -2h3zM457 32l-14 -14l8 -8h28zM478 53l-14 -14l29 -29h28zM516 56 h-27l45 -46h28zM558 56h-28l46 -46h28zM599 56h-27l45 -46h28zM641 56h-27l45 -46h28zM665 74l-14 -14l44 -44v27zM685 95l-13 -14l23 -24v28zM695 99v5l-3 -3zM642 65l46 46h-153l-45 -46h152zM358 534v-120h-208v-86h166v-120h-166v-208h-120v534h328zM85 472l-45 46v-501 l45 46v409zM95 421v-28l46 -45v27zM50 10l-2 2l-1 -2h3zM69 32l-14 -14l8 -8h28zM90 53l-14 -14l29 -29h28zM95 89v-28l46 -45v28zM95 131v-28l46 -46v28zM95 172v-28l46 -45v27zM95 214v-28l46 -46v28zM141 182v27l-46 46v-28zM103 288l-8 9v-17zM95 310l15 -15l14 14 l-29 29v-28zM95 352l36 -36l10 9v9l-46 46v-28zM95 435l46 -46v28l-46 46v-28zM340 525h-293l45 -46h202zM258 424l-45 45h-28l45 -45h28zM254 469h-28l46 -45h28zM296 469h-28l45 -45h28zM318 489l-14 -14l44 -44v27zM338 509l-13 -13l23 -24v28zM348 519l-3 -3l3 -2v5z M217 424l-46 45h-28l46 -45h28zM101 263l45 -46h28l-46 46h-27zM304 309l3 -3v6zM307 292l-10 10l-14 -14l24 -23v27zM307 251l-31 30l-14 -14l45 -44v28zM298 217l-45 46h-28l46 -46h27zM257 217l-46 46h-27l45 -46h28zM216 217l-46 46h-28l46 -46h28zM254 273l46 45h-153 l-45 -45h152zM102 469l45 -45h28l-45 45h-28z" />
</font>
</defs>
</svg>
